<svg width="72" height="72" viewBox="0 0 72 72" fill="none" xmlns="http://www.w3.org/2000/svg" class="hizmet-icon"><mask id="mask0_1108_495" style="mask-type:luminance" maskUnits="userSpaceOnUse" x="0" y="0" width="72" height="72"><path d="M71.6932 0.223633H0.171875V71.5077H71.6932V0.223633Z" fill="white"></path></mask><g mask="url(#mask0_1108_495)"><path d="M35.9103 0.223633H55.0546C56.3034 0.223633 56.6586 0.587363 56.6586 1.85339C56.6586 8.46193 56.6586 15.0705 56.6586 21.679C56.6586 22.8459 56.2933 23.2128 55.1123 23.2128C42.3256 23.2128 29.5391 23.2128 16.7529 23.2128C15.543 23.2128 15.1863 22.8467 15.1856 21.6275C15.1856 15.019 15.1856 8.41042 15.1856 1.80188C15.184 0.602973 15.5665 0.223633 16.7661 0.223633H35.9103ZM37.2123 2.51685L37.1889 2.64486C37.313 2.70496 37.4355 2.76896 37.562 2.8236C38.3399 3.11355 39.0234 3.61139 39.538 4.26292C40.0526 4.91445 40.3786 5.69469 40.4804 6.51866C40.5684 7.54454 40.5825 8.57543 40.5225 9.60334C40.4859 10.5156 40.1761 11.3958 39.6334 12.1299C39.0906 12.864 38.3399 13.4182 37.4784 13.7207C37.3223 13.7706 37.1381 13.755 37.11 14.0227C38.2207 14.0227 39.3221 14.0227 40.4234 14.0227C40.8974 14.0063 41.3696 14.088 41.8105 14.2627C42.2514 14.4374 42.6514 14.7013 42.9855 15.0379C43.3196 15.3746 43.5804 15.7766 43.7518 16.2188C43.9231 16.661 44.0012 17.1339 43.9811 17.6077C43.9811 18.5178 44.0068 19.4279 43.9702 20.3396C43.9506 20.8259 44.1263 20.9359 44.5852 20.9328C47.6075 20.9141 50.6297 20.9094 53.6519 20.9383C54.2272 20.9437 54.37 20.7736 54.3677 20.2139C54.3469 14.542 54.3469 8.86833 54.3677 3.19279C54.3677 2.65734 54.2342 2.50436 53.691 2.50904C50.9091 2.53558 48.1265 2.51997 45.3439 2.51919H37.2123M34.6591 14.0243C33.8052 13.7335 33.0471 13.2145 32.4671 12.5235C31.8872 11.8325 31.5075 10.9959 31.3692 10.1044C31.2684 9.10357 31.2517 8.09601 31.3192 7.09235C31.3196 6.4208 31.4695 5.75775 31.7582 5.1514C32.0468 4.54505 32.467 4.01063 32.988 3.58696C33.562 3.1629 34.1926 2.82135 34.8613 2.57227C34.6069 2.5387 34.5233 2.51841 34.4398 2.51841C28.9761 2.51841 23.5045 2.52465 18.0368 2.50592C17.4959 2.50592 17.4827 2.76272 17.4835 3.16469C17.4928 5.84505 17.4881 8.5262 17.4881 11.2042C17.4881 14.2436 17.4975 17.2838 17.4788 20.3232C17.4788 20.7845 17.5919 20.9336 18.0751 20.9297C21.1202 20.9084 24.1656 20.9084 27.2113 20.9297C27.703 20.9297 27.8896 20.8095 27.8693 20.2951C27.8334 19.3632 27.8529 18.4289 27.8607 17.4953C27.8564 17.0341 27.9448 16.5766 28.1207 16.1502C28.2967 15.7238 28.5565 15.3371 28.8848 15.013C29.213 14.689 29.6031 14.4342 30.0318 14.2638C30.4604 14.0934 30.9189 14.0109 31.3801 14.0212C32.4729 14.0173 33.5656 14.0212 34.6623 14.0212M35.933 16.3175C34.45 16.3175 32.9615 16.3081 31.4761 16.3175C31.3022 16.2981 31.1261 16.3175 30.9606 16.3742C30.795 16.431 30.6441 16.5237 30.5187 16.6457C30.3932 16.7677 30.2964 16.916 30.235 17.0799C30.1737 17.2438 30.1495 17.4193 30.164 17.5937C30.1469 18.5264 30.1875 19.4599 30.1492 20.3911C30.1289 20.8743 30.3412 20.9266 30.7424 20.9328C31.1733 20.9391 31.3528 20.8142 31.3208 20.3654C31.2888 19.9166 31.3146 19.4568 31.313 19.0026C31.313 18.802 31.313 18.6123 31.5979 18.6209C32.2312 18.5334 32.8756 18.5708 33.4946 18.7309C33.8482 18.9081 33.5726 19.7019 33.6148 20.2139C33.6225 20.2853 33.6225 20.3573 33.6148 20.4286C33.5664 20.7993 33.7116 20.9344 34.0964 20.9219C34.8863 20.8961 35.6777 20.9156 36.4684 20.9164C38.1973 20.9164 38.1973 20.9164 38.2309 19.1782C38.2343 19.1304 38.2343 19.0824 38.2309 19.0346C38.1934 18.7333 38.3089 18.6349 38.6274 18.6084C40.5108 18.4523 40.51 18.4437 40.5288 20.2639C40.5325 20.3117 40.5325 20.3597 40.5288 20.4075C40.4648 20.829 40.6685 20.9359 41.0603 20.925C41.4319 20.9141 41.7074 20.9149 41.6894 20.4083C41.6574 19.5247 41.6894 18.6388 41.6816 17.7545C41.6754 16.7398 41.2562 16.3167 40.247 16.3128C38.8093 16.3074 37.3715 16.3128 35.9338 16.3128M33.6179 8.28501C33.6179 8.69089 33.6007 9.09755 33.6179 9.50187C33.6419 10.0938 33.8932 10.6536 34.3196 11.0649C34.746 11.4761 35.3145 11.7071 35.9069 11.7097C36.4993 11.7123 37.0698 11.4864 37.4998 11.0789C37.9298 10.6714 38.1861 10.1138 38.2153 9.52216C38.252 8.68855 38.2512 7.85103 38.2153 7.01664C38.2084 6.40596 37.9593 5.823 37.5226 5.39601C37.086 4.96902 36.4976 4.73298 35.8869 4.73981C35.2763 4.74665 34.6933 4.99579 34.2663 5.43244C33.8393 5.86909 33.6033 6.45747 33.6101 7.06815C33.5953 7.47325 33.6101 7.87991 33.6101 8.28501" fill="#D9BB7E"></path><path d="M16.8427 57.7754C17.0998 57.9668 17.402 58.0888 17.72 58.1297C19.3225 58.6573 20.7185 59.6758 21.7102 61.0407C22.7018 62.4057 23.2389 64.0481 23.2454 65.7353C23.254 67.1965 23.2501 68.6568 23.2454 70.118C23.2454 71.0937 22.8333 71.505 21.8404 71.505C15.0758 71.5086 8.30905 71.5086 1.54024 71.505C0.646529 71.505 0.19694 71.0757 0.217234 70.1914C0.262505 68.2556 0.0135143 66.3059 0.35617 64.3865C0.941572 61.1083 2.96004 59.0492 6.07438 58.0298C6.58016 57.8644 6.65666 57.8058 6.31556 57.3711C5.28886 56.0906 4.75596 54.4842 4.81381 52.844C4.85206 51.3695 4.70454 49.8896 5.23452 48.448C5.7719 47.0274 6.75519 45.8193 8.037 45.0047C9.31882 44.1901 10.8301 43.8128 12.3444 43.9294C13.848 44.0532 15.2673 44.6748 16.378 45.6957C17.4887 46.7166 18.2273 48.0787 18.4771 49.5665C18.7893 51.8144 18.9454 54.0936 17.8831 56.2432C17.5879 56.7883 17.2391 57.3026 16.8419 57.7785M11.7239 69.2118C13.043 69.2118 14.3629 69.1837 15.6804 69.2251C16.2409 69.243 16.3767 69.0502 16.3462 68.5296C16.3033 67.7897 16.3314 67.0466 16.3322 66.3043C16.3322 64.4895 16.3322 64.4989 18.1906 64.6035C18.5286 64.6222 18.6488 64.7159 18.641 65.0586C18.6215 65.8719 18.6348 66.686 18.6355 67.4993C18.6355 69.3375 18.6355 69.3234 20.4784 69.2212C20.8733 69.1993 20.9553 69.0494 20.9467 68.7013C20.9311 67.6484 20.967 66.5939 20.935 65.5425C20.877 64.0927 20.2734 62.7184 19.2449 61.6949C18.2165 60.6714 16.8393 60.0743 15.3893 60.0233C12.9439 59.9804 10.4953 59.9539 8.05226 60.0343C7.07602 60.0481 6.12075 60.3195 5.28315 60.8212C4.44555 61.3228 3.75534 62.0369 3.2824 62.891C2.41679 64.3256 2.4925 65.9047 2.50186 67.4829C2.51279 69.325 2.50186 69.3133 4.3291 69.2219C4.70532 69.2032 4.82942 69.0877 4.81928 68.7177C4.7982 67.9044 4.81225 67.0903 4.81225 66.277C4.81225 64.5731 4.81225 64.5895 6.55909 64.6019C6.99853 64.6019 7.13513 64.7183 7.12342 65.1647C7.0922 66.2887 7.13903 67.415 7.10156 68.539C7.08439 69.0565 7.20225 69.2477 7.7658 69.2282C9.08334 69.1829 10.4032 69.2134 11.7223 69.2126M7.13122 51.9416H7.11873C7.11873 52.3491 7.11873 52.7557 7.11873 53.1632C7.12716 54.3009 7.55767 55.395 8.32682 56.2334C9.09597 57.0718 10.149 57.5948 11.2818 57.701C12.4145 57.8072 13.5464 57.4891 14.458 56.8084C15.3697 56.1276 15.9961 55.1326 16.2159 54.0163C16.3588 52.9015 16.3959 51.7756 16.3267 50.6538C16.3225 50.0789 16.1956 49.5115 15.9544 48.9897C15.5511 48.0503 14.8468 47.2719 13.9523 46.777C13.0578 46.2821 12.0241 46.0988 11.0141 46.2561C10.004 46.4135 9.07497 46.9024 8.37339 47.6459C7.67181 48.3894 7.23755 49.3451 7.13903 50.3626C7.08907 50.884 7.13122 51.4148 7.13122 51.9416Z" fill="#D9BB7E"></path><path d="M35.892 62.3075C32.556 62.3075 29.2199 62.3075 25.8839 62.3075C24.806 62.3075 24.3845 61.9102 24.4072 60.851C24.4485 58.9863 24.2151 57.1044 24.5344 55.2592C24.7575 53.7571 25.4113 52.3519 26.4166 51.2137C27.4219 50.0755 28.7357 49.2532 30.1987 48.8464C30.7084 48.6746 30.8403 48.6169 30.4719 48.1329C29.459 46.8413 28.9393 45.2311 29.0061 43.591C29.0537 42.2344 28.8874 40.8669 29.3183 39.5361C29.7974 38.0823 30.7381 36.8247 31.9973 35.9543C33.2565 35.0839 34.7654 34.6484 36.2947 34.714C37.7422 34.7721 39.1316 35.2987 40.2541 36.2145C41.3765 37.1303 42.1712 38.3858 42.5187 39.7921C43.1509 42.741 43.3141 45.7437 41.209 48.3304C40.8538 48.7667 41.287 48.7285 41.4861 48.7894C43.1817 49.2685 44.6788 50.2792 45.7572 51.6727C46.8173 53.0163 47.405 54.6719 47.4291 56.3832C47.4611 57.8912 47.4392 59.4008 47.4353 60.9103C47.4353 61.8922 47.0271 62.3067 46.0413 62.3083C42.6589 62.314 39.2748 62.314 35.8888 62.3083M35.8802 60.0151C37.1994 60.0151 38.5192 59.9838 39.8368 60.0291C40.43 60.0494 40.5705 59.8394 40.5393 59.2946C40.4956 58.5789 40.5276 57.8592 40.526 57.1411C40.526 55.3264 40.5221 55.3389 42.3525 55.4036C42.731 55.4169 42.8473 55.5254 42.8364 55.8977C42.8122 56.711 42.8294 57.5251 42.8294 58.3392C42.8294 60.0642 42.8294 60.0509 44.5645 60.0236C44.9875 60.0166 45.16 59.919 45.1468 59.4632C45.1156 58.4111 45.1593 57.3558 45.1312 56.3036C45.0646 54.8665 44.4619 53.5064 43.442 52.4918C42.422 51.4772 41.0588 50.8817 39.6214 50.8227C37.1518 50.7782 34.6782 50.7493 32.211 50.8344C31.2466 50.8532 30.304 51.1239 29.4767 51.6197C28.6494 52.1155 27.9662 52.8192 27.4949 53.6607C26.6036 55.1141 26.6894 56.7181 26.698 58.3189C26.7082 60.161 26.698 60.1516 28.5604 60.0213C28.8991 59.9979 29.0209 59.8948 29.0139 59.553C28.9967 58.7396 29.0084 57.9256 29.0076 57.1115C29.0076 55.3459 29.0076 55.3591 30.788 55.3997C31.1885 55.4091 31.3266 55.5106 31.3172 55.9243C31.2915 57.049 31.3344 58.1753 31.2969 59.2985C31.279 59.8394 31.3961 60.0486 31.9994 60.0244C33.2928 59.9721 34.5892 60.008 35.8842 60.0104M40.5307 42.7831C40.5307 42.3765 40.5307 41.969 40.5307 41.5616C40.5212 40.4293 40.0944 39.3402 39.3319 38.503C38.5694 37.6658 37.5249 37.1392 36.3984 37.0242C35.2719 36.9092 34.1425 37.2137 33.2266 37.8796C32.3106 38.5454 31.6725 39.5257 31.4343 40.6328C31.2756 41.7468 31.2377 42.8747 31.3211 43.9969C31.3369 44.9984 31.6798 45.9672 32.2975 46.7557C32.9152 47.5441 33.7738 48.1089 34.7425 48.3638C35.7111 48.6188 36.7365 48.5499 37.6623 48.1678C38.5882 47.7856 39.3636 47.1111 39.8703 46.2472C40.4329 45.1848 40.6624 43.978 40.5307 42.7831Z" fill="#D9BB7E"></path><path d="M60.0906 71.5069C56.7566 71.5069 53.4227 71.5069 50.0888 71.5069C48.9874 71.5069 48.5706 71.1026 48.5995 69.9857C48.6479 68.1225 48.4044 66.2469 48.7377 64.3978C48.9679 62.8978 49.6302 61.4974 50.6435 60.3677C51.6567 59.2379 52.9772 58.4279 54.4434 58.0364C55.0584 57.8366 54.9741 57.7351 54.6619 57.3285C53.6839 56.1026 53.1676 54.5721 53.2031 53.0043C53.2375 51.4604 53.0611 49.9064 53.6285 48.3992C54.1786 46.9841 55.1711 45.7845 56.4582 44.9792C57.7452 44.1738 59.258 43.8058 60.7712 43.9298C62.2731 44.0641 63.6874 44.6951 64.7907 45.723C65.8939 46.751 66.6232 48.1172 66.8633 49.6059C67.1755 51.8304 67.3207 54.0846 66.2755 56.2092C66.0538 56.6877 65.76 57.1294 65.4044 57.5189C65.1484 57.7874 65.1929 57.8795 65.5387 57.9795C67.1149 58.3424 68.539 59.1871 69.6132 60.3963C70.6875 61.6055 71.3585 63.1192 71.5332 64.7272C71.7132 66.6576 71.7365 68.5994 71.6027 70.5336C71.5941 71.1627 71.0345 71.503 70.2336 71.5046C66.8513 71.5093 63.469 71.5093 60.0867 71.5046M60.0601 69.2098C61.4268 69.2098 62.792 69.1942 64.1611 69.2192C64.6021 69.227 64.7425 69.0927 64.7316 68.6494C64.6756 67.4776 64.6782 66.3038 64.7394 65.1323C64.8261 63.9966 65.7448 64.8263 66.249 64.6367C66.5612 64.518 67.0826 64.4376 67.0295 65.1526C66.9749 65.9386 67.017 66.7316 67.017 67.5215C67.017 69.2933 67.017 69.2793 68.8123 69.2192C69.2267 69.2051 69.3422 69.0724 69.3337 68.6728C69.311 67.6199 69.3516 66.5654 69.3196 65.5132C69.256 64.0636 68.6471 62.6916 67.6148 61.6719C66.5825 60.6522 65.2031 60.0602 63.7528 60.0143C61.3332 59.9792 58.9065 59.9519 56.4868 60.0245C55.4984 60.0329 54.53 60.304 53.6809 60.81C52.8317 61.3159 52.1324 62.0386 51.6545 62.9039C50.7905 64.34 50.8787 65.9214 50.8865 67.4973C50.8951 69.2793 50.8865 69.2605 52.663 69.2145C53.1313 69.2028 53.2172 69.0225 53.2039 68.6158C53.1789 67.8509 53.1961 67.0844 53.1961 66.3179C53.1961 64.55 53.1961 64.5703 54.9648 64.589C55.4386 64.5937 55.5112 64.7662 55.5041 65.176C55.4815 66.3242 55.519 67.4747 55.4862 68.6221C55.4721 69.1068 55.6423 69.2223 56.0997 69.2122C57.418 69.1825 58.7379 69.202 60.057 69.202M55.469 51.9155H55.4971C55.4971 52.3463 55.4901 52.7741 55.4971 53.2088C55.535 54.3434 55.9854 55.4253 56.764 56.2516C57.5425 57.0778 58.5957 57.5917 59.726 57.6969C60.8461 57.7817 61.9586 57.455 62.8551 56.7783C63.7516 56.1015 64.3705 55.121 64.5958 54.0206C64.7363 53.0016 64.7737 51.971 64.7074 50.9445C64.7279 49.787 64.3112 48.6643 63.5403 47.8005C62.7695 46.9367 61.7012 46.3954 60.5488 46.2846C59.3964 46.1737 58.2446 46.5015 57.3233 47.2025C56.4019 47.9035 55.7788 48.9262 55.5783 50.0664C55.5031 50.6832 55.4687 51.3043 55.4753 51.9256" fill="#D9BB7E"></path><path d="M0.209506 16.3172C0.209506 12.9882 0.225898 9.65843 0.197798 6.32632C0.165637 5.98153 0.255537 5.63638 0.451818 5.35109C0.648099 5.0658 0.938305 4.85846 1.27182 4.76525C4.93721 3.31892 8.59559 1.84058 12.2579 0.379417C12.452 0.264206 12.675 0.206987 12.9006 0.214527C13.1261 0.222067 13.3448 0.294051 13.5308 0.421966C13.7168 0.54988 13.8622 0.728375 13.9499 0.936339C14.0376 1.1443 14.064 1.37304 14.0258 1.59549C14.0331 8.37367 14.0364 15.1518 14.0359 21.93C14.0538 22.2066 13.9791 22.4813 13.8237 22.7108C13.6682 22.9403 13.4408 23.1116 13.1773 23.1976C9.4214 24.6942 5.66493 26.1878 1.90795 27.6787C0.922136 28.0689 0.217312 27.5468 0.21497 26.4485C0.207685 23.0714 0.207685 19.6943 0.21497 16.3172H0.209506ZM11.7279 3.11676C11.564 3.16749 11.4523 3.19481 11.347 3.23618C8.54953 4.3461 5.75444 5.46539 2.94919 6.5597C2.54799 6.71581 2.50506 6.96558 2.50584 7.32775C2.51313 12.9996 2.51079 18.6715 2.49882 24.3434C2.49882 24.9593 2.68927 24.9234 3.13886 24.7407C5.74975 23.6792 8.3583 22.613 10.9903 21.6045C11.2368 21.5444 11.4516 21.3935 11.5918 21.182C11.7319 20.9705 11.7872 20.7139 11.7466 20.4634C11.7216 14.9333 11.7279 9.40554 11.7279 3.87778V3.11676Z" fill="#D9BB7E"></path><path d="M71.6331 16.3437C71.6331 19.674 71.6331 23.002 71.6331 26.3276C71.6331 27.6357 70.9493 28.0939 69.7176 27.6045C66.1225 26.1756 62.5294 24.7425 58.9384 23.3053C57.9573 22.9151 57.8105 22.6856 57.8105 21.649C57.8105 15.0171 57.8105 8.38511 57.8105 1.75316C57.8105 0.434834 58.4818 -0.0608066 59.6932 0.419223C63.3563 1.87024 67.0068 3.35248 70.6691 4.80506C70.9779 4.90146 71.2438 5.10193 71.4214 5.37234C71.599 5.64275 71.6774 5.96636 71.6432 6.28807C71.6229 9.6397 71.6346 12.9913 71.6346 16.3437M69.3321 15.8059H69.336C69.336 13.0054 69.325 10.2056 69.3469 7.40502C69.3809 7.21108 69.3403 7.01146 69.2334 6.84615C69.1264 6.68085 68.9609 6.56208 68.7701 6.51365C66.0999 5.48022 63.432 4.4265 60.7867 3.3275C60.1686 3.0707 60.1014 3.21198 60.103 3.79582C60.1186 9.42037 60.1168 15.0449 60.0975 20.6695C60.074 20.8643 60.1247 21.0608 60.2395 21.2199C60.3544 21.379 60.5249 21.489 60.7173 21.528C63.4086 22.5794 66.0952 23.6449 68.7654 24.7485C69.2961 24.9679 69.3406 24.8414 69.3383 24.3583C69.3219 21.5101 69.3305 18.6604 69.3305 15.8137" fill="#D9BB7E"></path><path d="M52.0434 40.4602C50.149 40.4602 48.2539 40.4703 46.3595 40.4602C45.8918 40.4709 45.4267 40.3862 44.9927 40.2114C44.5586 40.0367 44.1647 39.7754 43.8349 39.4435C43.5051 39.1116 43.2462 38.7161 43.0741 38.281C42.902 37.8459 42.8203 37.3803 42.8339 36.9126C42.8302 35.4036 42.832 33.8946 42.8393 32.3855C42.8465 31.4795 43.2105 30.6128 43.8523 29.9733C44.4941 29.3338 45.3622 28.973 46.2682 28.9691C47.4453 28.959 47.4453 28.959 47.446 27.7936C47.446 27.4346 47.4351 27.0748 47.446 26.7165C47.4279 26.4921 47.4775 26.2674 47.5883 26.0715C47.6991 25.8755 47.8661 25.7172 48.0677 25.6171C48.2693 25.5169 48.4963 25.4795 48.7194 25.5096C48.9425 25.5398 49.1515 25.6361 49.3193 25.7861C50.6306 26.7087 51.9099 27.6781 53.1814 28.6554C53.4602 28.8769 53.81 28.9895 54.1657 28.9722C55.3646 28.9574 56.5643 28.9613 57.7632 28.9722C58.225 28.9637 58.6838 29.0483 59.1121 29.2211C59.5404 29.394 59.9295 29.6514 60.256 29.9781C60.5825 30.3048 60.8398 30.694 61.0125 31.1224C61.1851 31.5508 61.2695 32.0096 61.2607 32.4714C61.2691 33.9804 61.2691 35.4895 61.2607 36.9985C61.2638 37.4545 61.1762 37.9065 61.0032 38.3283C60.8301 38.7502 60.5751 39.1335 60.2528 39.456C59.9305 39.7785 59.5473 40.0339 59.1256 40.2072C58.7039 40.3805 58.2519 40.4683 57.796 40.4656C56.8367 40.4766 55.8774 40.4656 54.9181 40.4656H52.0403M49.8641 29.0823C49.744 29.3195 49.7029 29.5889 49.7471 29.8511C49.7197 30.8877 49.349 31.2561 48.2984 31.2663C47.6982 31.2702 47.0979 31.2592 46.4985 31.2663C46.3123 31.2436 46.1235 31.264 45.9464 31.3258C45.7694 31.3876 45.6089 31.4893 45.4774 31.6229C45.3458 31.7565 45.2466 31.9185 45.1875 32.0965C45.1284 32.2744 45.1109 32.4636 45.1364 32.6494C45.1263 33.9427 45.1364 35.2368 45.1364 36.5302C45.1364 37.7939 45.4986 38.1693 46.7428 38.1693C50.3192 38.1693 53.8954 38.1693 57.4712 38.1693C58.5515 38.1693 58.9543 37.7751 58.9613 36.7105C58.9681 35.369 58.9681 34.0275 58.9613 32.686C58.9566 31.6807 58.5351 31.2756 57.4986 31.2717C56.2021 31.2662 54.9056 31.2444 53.6107 31.278C53.0825 31.2972 52.5653 31.1235 52.1558 30.7893C51.4065 30.2133 50.6408 29.6576 49.8665 29.0823" fill="#D9BB7E"></path><path d="M19.8105 25.5217C21.7049 25.5217 23.5993 25.517 25.4936 25.5217C25.9553 25.5106 26.4144 25.5929 26.8435 25.7635C27.2726 25.9341 27.6628 26.1896 27.9908 26.5147C28.3188 26.8397 28.5778 27.2277 28.7522 27.6552C28.9267 28.0828 29.013 28.5412 29.006 29.0029C29.0131 30.5101 29.0099 32.0181 29.006 33.5261C29.0102 33.9817 28.9241 34.4336 28.7528 34.8558C28.5815 35.278 28.3284 35.6621 28.008 35.9861C27.6876 36.31 27.3063 36.5674 26.886 36.7433C26.4657 36.9192 26.0148 37.0103 25.5592 37.0112C24.3985 37.0323 24.3985 37.0323 24.3985 38.1953C24.3985 38.5301 24.3892 38.8658 24.3985 39.2006C24.4195 39.4287 24.3711 39.6578 24.2597 39.858C24.1483 40.0581 23.979 40.2199 23.7741 40.3222C23.5733 40.4339 23.3428 40.4807 23.1144 40.4562C22.8859 40.4318 22.6706 40.3373 22.4979 40.1856C21.2311 39.2412 19.9596 38.3022 18.7053 37.3421C18.4294 37.1156 18.081 36.9961 17.7242 37.0057C16.5019 37.0253 15.2788 37.0206 14.0557 37.0057C13.5941 37.0107 13.1362 36.9227 12.7093 36.7471C12.2824 36.5715 11.8951 36.3119 11.5706 35.9836C11.246 35.6554 10.9908 35.2652 10.8201 34.8363C10.6494 34.4074 10.5666 33.9486 10.5768 33.4871C10.5698 31.9791 10.5667 30.4719 10.5768 28.9639C10.5761 28.5086 10.6657 28.0576 10.8406 27.6372C11.0155 27.2169 11.2721 26.8354 11.5956 26.5149C11.9191 26.1945 12.303 25.9415 12.725 25.7706C13.147 25.5997 13.5988 25.5143 14.0541 25.5194C15.9727 25.5131 17.8904 25.5194 19.809 25.5194M22.0928 36.9933C22.0928 36.5889 22.0928 36.3759 22.0928 36.1628C22.103 35.1083 22.5057 34.7164 23.5844 34.7141C24.1363 34.7141 24.6881 34.7188 25.2407 34.7141C26.2695 34.7078 26.6925 34.3035 26.6996 33.2927C26.7089 31.9273 26.7089 30.5622 26.6996 29.1973C26.6925 28.2505 26.2422 27.8165 25.2688 27.8157C21.6211 27.8105 17.9734 27.8105 14.3257 27.8157C13.311 27.8157 12.8825 28.2481 12.8778 29.2535C12.8721 30.5944 12.8721 31.9356 12.8778 33.2771C12.8778 34.2918 13.2954 34.7117 14.3148 34.718C15.5637 34.7258 16.8125 34.7609 18.0614 34.7032C18.7344 34.6748 19.3926 34.9065 19.8995 35.3502C20.5684 35.8802 21.2647 36.3758 22.0975 36.9964" fill="#D9BB7E"></path><path d="M48.6017 33.5675C49.7436 33.5675 49.8505 33.5854 49.7061 34.3761C49.6156 34.8749 50.4188 35.8802 49.0544 35.8662C47.4449 35.8498 47.4449 35.8661 47.4434 34.5806C47.4434 33.5659 47.4434 33.5659 48.6017 33.5659" fill="#D9BB7E"></path><path d="M53.2009 34.7577C53.2009 35.8637 53.2009 35.8637 51.7803 35.8598C50.8944 35.8598 50.8944 35.8598 50.8991 34.2855C50.8991 33.5611 50.8991 33.5525 52.496 33.5728C53.3078 33.5837 53.1907 33.3902 53.1985 34.7577" fill="#D9BB7E"></path><path d="M55.5363 35.8619C54.3507 35.8619 54.3507 35.8619 54.3538 34.6552C54.3538 33.5726 54.3538 33.5726 55.4466 33.5718C56.6603 33.5718 56.6603 33.5718 56.658 34.7473C56.658 35.8642 56.6579 35.8642 55.5402 35.8626" fill="#D9BB7E"></path><path d="M19.76 32.4137C18.6399 32.4137 18.6399 32.4136 18.6407 30.9306C18.6407 30.1157 18.6407 30.1158 20.0698 30.1173C20.9448 30.1173 20.9448 30.1173 20.9425 31.356C20.9425 32.4129 20.9425 32.4129 19.76 32.4113" fill="#D9BB7E"></path><path d="M24.3989 31.2133C24.3989 32.4184 24.3989 32.4184 23.0884 32.4169C22.0955 32.4169 22.0955 32.4169 22.0979 30.8776C22.0979 30.119 22.1026 30.1845 23.6589 30.0971C24.779 30.037 24.2834 30.7996 24.3981 31.2101" fill="#D9BB7E"></path><path d="M16.2997 32.4142C15.1827 32.4142 15.1827 32.4142 15.1859 30.8531C15.1859 30.1085 15.1859 30.1507 16.7633 30.1015C18.0122 30.0601 17.4205 30.953 17.4611 31.4284C17.5446 32.4056 17.4838 32.4103 16.2997 32.4072" fill="#D9BB7E"></path></g></svg>