<svg width="144" height="29" viewBox="0 0 144 29" fill="none" xmlns="http://www.w3.org/2000/svg" class="hizmet-icon"><mask id="mask0_1108_693" style="mask-type:luminance" maskUnits="userSpaceOnUse" x="118" y="7" width="5" height="4"><path d="M120.631 7.64258H120.673C121.116 7.64258 121.541 7.8187 121.855 8.13221C122.168 8.44571 122.345 8.87092 122.345 9.31428C122.345 9.53373 122.302 9.75105 122.218 9.95382C122.134 10.1566 122.011 10.3408 121.855 10.496C121.7 10.6512 121.516 10.7742 121.313 10.8582C121.111 10.9421 120.893 10.9852 120.674 10.9851H120.631C120.187 10.9851 119.762 10.8091 119.449 10.4958C119.135 10.1825 118.959 9.75749 118.959 9.31428C118.959 8.87092 119.135 8.44571 119.449 8.13221C119.762 7.8187 120.187 7.64258 120.631 7.64258Z" fill="white"></path></mask><g mask="url(#mask0_1108_693)"><path d="M122.341 7.51224L118.832 7.64746L118.966 11.115L122.474 10.9797L122.341 7.51224Z" fill="#D9BB7E"></path></g><mask id="mask1_1108_693" style="mask-type:luminance" maskUnits="userSpaceOnUse" x="0" y="0" width="144" height="29"><path d="M143.269 0.787109H0.226562V28.0023H143.269V0.787109Z" fill="white"></path></mask><g mask="url(#mask1_1108_693)"><path d="M54.0746 17.7998L49.2491 11.1113C50.1902 10.7428 50.9963 10.0958 51.5596 9.25665C52.1229 8.41754 52.4165 7.42642 52.4012 6.41589C52.3812 5.67676 52.2156 4.94884 51.9139 4.27381C51.6121 3.59879 51.1802 2.98993 50.6427 2.48212C50.1053 1.9743 49.473 1.57751 48.7819 1.31448C48.0909 1.05144 47.3548 0.927328 46.6157 0.949248H42.115C41.9881 0.948908 41.8624 0.973586 41.745 1.02187C41.6276 1.07015 41.5209 1.1411 41.4309 1.23065C41.341 1.3202 41.2696 1.4266 41.2208 1.54376C41.172 1.66093 41.1467 1.78657 41.1465 1.91349V4.87258C43.8617 8.88639 46.5235 12.7916 49.1801 16.7382C49.3998 17.0649 49.6963 17.3326 50.0437 17.5177C50.3911 17.7028 50.7787 17.7997 51.1724 17.7998H54.0746ZM44.5562 4.29351H46.7432C47.3013 4.30914 47.8322 4.53774 48.227 4.9324C48.6218 5.32706 48.8506 5.85786 48.8665 6.41589C48.8725 6.97232 48.6572 7.50836 48.2682 7.90617C47.8791 8.30399 47.3479 8.53104 46.7915 8.5374H45.4774C45.2331 8.5374 44.9988 8.44035 44.826 8.2676C44.6533 8.09485 44.5562 7.86055 44.5562 7.61624V4.29351Z" fill="#D9BB7E"></path></g><mask id="mask2_1108_693" style="mask-type:luminance" maskUnits="userSpaceOnUse" x="41" y="14" width="4" height="4"><path d="M42.8292 14.4551H42.8404C43.287 14.4553 43.7153 14.6329 44.031 14.9488C44.3468 15.2647 44.5241 15.6931 44.5241 16.1397C44.5241 16.5863 44.3468 17.0147 44.031 17.3306C43.7153 17.6465 43.287 17.8241 42.8404 17.8243H42.8292C42.3824 17.8243 41.9539 17.6468 41.6379 17.3309C41.322 17.015 41.1445 16.5865 41.1445 16.1397C41.1445 15.6929 41.322 15.2644 41.6379 14.9485C41.9539 14.6326 42.3824 14.4551 42.8292 14.4551Z" fill="white"></path></mask><g mask="url(#mask2_1108_693)"><path d="M44.5202 14.3259L41.0156 14.4609L41.1503 17.9551L44.6548 17.8201L44.5202 14.3259Z" fill="#D9BB7E"></path></g><mask id="mask3_1108_693" style="mask-type:luminance" maskUnits="userSpaceOnUse" x="0" y="0" width="144" height="29"><path d="M143.269 0.787109H0.226562V28.0023H143.269V0.787109Z" fill="white"></path></mask><g mask="url(#mask3_1108_693)"><path d="M6.25534 17.8493C9.68061 17.7864 12.0477 15.9174 12.0477 12.991C12.0477 10.4369 10.3665 9.06856 7.62545 7.75963C5.75383 6.88931 4.51126 6.57824 4.51126 5.58211C4.51126 4.77297 5.44534 4.02501 6.6905 4.02501C7.3052 4.01337 7.9053 4.2129 8.39064 4.59029C8.63176 4.78101 8.92822 4.88839 9.23554 4.89631C9.54286 4.90424 9.84447 4.81228 10.0951 4.63424L11.4256 3.71739C10.6767 1.71996 8.87061 0.787598 6.62932 0.787598C3.64008 0.787598 1.21094 2.65405 1.21094 5.51921C1.21094 8.13533 3.2661 9.13146 5.07223 10.0655C6.81545 10.8773 8.74652 11.8096 8.74652 13.0548C8.74652 13.8639 7.74954 14.4878 6.25448 14.549L6.25534 17.8493Z" fill="#D9BB7E"></path></g><mask id="mask4_1108_693" style="mask-type:luminance" maskUnits="userSpaceOnUse" x="0" y="13" width="5" height="6"><path d="M0.226563 16.0453C0.226563 16.4729 0.353362 16.8909 0.590927 17.2465C0.828492 17.602 1.16615 17.8791 1.56121 18.0428C1.95626 18.2064 2.39097 18.2492 2.81036 18.1658C3.22975 18.0824 3.61498 17.8764 3.91735 17.5741C4.21971 17.2717 4.42562 16.8865 4.50904 16.4671C4.59246 16.0477 4.54965 15.613 4.38601 15.2179C4.22237 14.8229 3.94526 14.4852 3.58972 14.2477C3.23418 14.0101 2.81618 13.8833 2.38857 13.8833C2.10458 13.8833 1.82337 13.9393 1.56101 14.048C1.29865 14.1567 1.06027 14.316 0.859496 14.5168C0.658724 14.7177 0.499489 14.9561 0.390889 15.2185C0.282288 15.481 0.226449 15.7613 0.226563 16.0453Z" fill="white"></path></mask><g mask="url(#mask4_1108_693)"><path d="M4.54496 13.7178L0.0605469 13.8906L0.23337 18.375L4.71779 18.2022L4.54496 13.7178Z" fill="#D9BB7E"></path></g><mask id="mask5_1108_693" style="mask-type:luminance" maskUnits="userSpaceOnUse" x="0" y="0" width="144" height="29"><path d="M143.269 0.787109H0.226562V28.0023H143.269V0.787109Z" fill="white"></path></mask><g mask="url(#mask5_1108_693)"><path d="M117.529 14.5729V11.0348H117.534V7.62069H117.529V4.33588H123.159C123.459 4.33588 123.748 4.2165 123.96 4.00399C124.173 3.79149 124.292 3.50327 124.292 3.20274V0.987305H115.305C114.99 0.987305 114.687 1.11268 114.464 1.33585C114.241 1.55902 114.115 1.86171 114.115 2.17732V17.9154H124.291V15.706C124.291 15.4055 124.172 15.1173 123.959 14.9048C123.747 14.6923 123.458 14.5729 123.158 14.5729H117.529Z" fill="#D9BB7E"></path></g><mask id="mask6_1108_693" style="mask-type:luminance" maskUnits="userSpaceOnUse" x="89" y="13" width="5" height="5"><path d="M89.9297 13.8853L90.7741 15.7069L91.6169 17.5294L92.4622 15.7069L93.3506 13.8853H89.9297Z" fill="white"></path></mask><g mask="url(#mask6_1108_693)"><path d="M93.3461 13.7531L89.7891 13.8901L89.9344 17.6607L93.4914 17.5236L93.3461 13.7531Z" fill="#D9BB7E"></path></g><mask id="mask7_1108_693" style="mask-type:luminance" maskUnits="userSpaceOnUse" x="0" y="0" width="144" height="29"><path d="M143.269 0.787109H0.226562V28.0023H143.269V0.787109Z" fill="white"></path></mask><g mask="url(#mask7_1108_693)"><path d="M91.3222 7.01483C91.2471 7.08676 91.195 7.17936 91.1726 7.28089C91.1501 7.38242 91.1583 7.48833 91.196 7.58522C91.2338 7.68212 91.2994 7.76563 91.3846 7.82521C91.4699 7.88479 91.5709 7.91774 91.6748 7.91992C91.7788 7.92209 91.8811 7.89337 91.9687 7.83741C92.0563 7.78144 92.1254 7.70074 92.1672 7.6055C92.209 7.51027 92.2215 7.4048 92.2033 7.30241C92.1851 7.20003 92.137 7.10535 92.065 7.03034C92.0174 6.98028 91.9603 6.94014 91.8971 6.91224C91.834 6.88434 91.7659 6.86923 91.6968 6.86779C91.6277 6.86635 91.5591 6.8786 91.4948 6.90384C91.4305 6.92907 91.3718 6.9668 91.3222 7.01483Z" fill="#D9BB7E"></path><path d="M91.6462 0.949707V0.968664L91.6272 0.949707L83.1895 17.8253H85.0938C85.467 17.8252 85.8328 17.7215 86.1505 17.5257C86.4682 17.3298 86.7253 17.0496 86.8931 16.7163L88.8172 12.8946C89.0448 12.4334 89.3831 12.0357 89.8019 11.7371C90.2206 11.4384 90.7069 11.2482 91.2171 11.1833C91.1863 11.0565 91.1641 10.9279 91.1507 10.7981C91.1507 10.7524 91.1507 10.7059 91.1447 10.6594C91.1433 10.6507 91.1438 10.6418 91.1462 10.6334C91.1486 10.6249 91.1529 10.6171 91.1586 10.6104C91.1644 10.6038 91.1715 10.5985 91.1795 10.5949C91.1875 10.5913 91.1962 10.5895 91.205 10.5896C91.2196 10.5885 91.2343 10.5885 91.249 10.5896C91.5075 10.5896 91.7737 10.5956 92.0357 10.6008C92.0674 10.6037 92.0988 10.6092 92.1296 10.6171C92.1338 10.6397 92.1367 10.6624 92.1382 10.6852C92.134 10.8548 92.1049 11.0229 92.0521 11.1841C92.5651 11.2475 93.0543 11.4376 93.4755 11.7373C93.8967 12.037 94.2367 12.4368 94.4648 12.9007L96.2632 16.4853C96.4654 16.8886 96.7759 17.2277 97.1599 17.4647C97.5438 17.7016 97.9861 17.8271 98.4373 17.827H100.082L91.6462 0.949707ZM93.3696 10.9325C93.3696 10.9799 93.3644 11.0273 93.361 11.0747L93.3257 11.1092C93.3035 11.112 93.281 11.1096 93.26 11.1023C93.2389 11.095 93.2198 11.0829 93.2042 11.067C92.9853 10.9032 92.7673 10.7386 92.5475 10.5758C92.5015 10.5434 92.4629 10.5016 92.4343 10.4532C92.4056 10.4047 92.3875 10.3508 92.3812 10.2949C92.3726 10.2242 92.3597 10.2087 92.2882 10.2087L90.9861 10.1915C90.9163 10.1915 90.9 10.2035 90.8939 10.2716C90.8885 10.3225 90.8726 10.3718 90.8473 10.4163C90.8219 10.4607 90.7876 10.4995 90.7466 10.5301C90.5122 10.6973 90.2761 10.8627 90.0408 11.0299C90.0245 11.0435 90.0054 11.0534 89.9849 11.0591C89.9644 11.0647 89.9429 11.0659 89.9219 11.0626L89.9013 11.0411C89.8942 11.0128 89.8896 10.984 89.8875 10.9549C89.8944 10.3905 89.9012 9.8261 89.9107 9.26255C89.9106 9.20605 89.9254 9.15051 89.9535 9.10151C89.9816 9.05251 90.0222 9.01176 90.071 8.98336C90.1451 8.93683 90.2184 8.88857 90.2959 8.84979C90.337 8.83091 90.3714 8.80028 90.3951 8.76178C90.4187 8.72328 90.4304 8.67864 90.4286 8.63351C90.4507 8.22316 90.5128 7.81595 90.6139 7.41765C90.6968 7.05402 90.8305 6.70389 91.0111 6.37757C91.1019 6.20884 91.2266 6.06069 91.3773 5.94241C91.4581 5.87976 91.5562 5.84358 91.6583 5.8388C91.7604 5.83402 91.8615 5.86087 91.9478 5.9157C92.1256 6.03689 92.2694 6.20152 92.3657 6.39394C92.5099 6.65518 92.6211 6.93335 92.6966 7.22204C92.8336 7.72019 92.9085 8.23333 92.9198 8.74984C92.9192 8.77354 92.9251 8.79696 92.937 8.8175C92.9488 8.83803 92.9662 8.85488 92.987 8.86617C93.0646 8.9127 93.1404 8.96268 93.2162 9.01093C93.2718 9.04362 93.3173 9.09099 93.3477 9.14785C93.3781 9.2047 93.3922 9.26884 93.3886 9.33321C93.3808 9.86574 93.3739 10.3991 93.3662 10.9317" fill="#D9BB7E"></path></g><mask id="mask8_1108_693" style="mask-type:luminance" maskUnits="userSpaceOnUse" x="17" y="14" width="4" height="4"><path d="M17.2695 17.8505H20.027C20.1806 17.8505 20.3278 17.7895 20.4364 17.6809C20.545 17.5723 20.606 17.4251 20.606 17.2715V14.8794L17.2695 17.8505Z" fill="white"></path></mask><g mask="url(#mask8_1108_693)"><path d="M20.6005 14.7506L17.1562 14.8833L17.2755 17.9788L20.7198 17.8461L20.6005 14.7506Z" fill="#D9BB7E"></path></g><mask id="mask9_1108_693" style="mask-type:luminance" maskUnits="userSpaceOnUse" x="58" y="14" width="4" height="4"><path d="M58.1309 17.8515H60.8883C61.0419 17.8515 61.1892 17.7905 61.2978 17.6819C61.4064 17.5733 61.4674 17.426 61.4674 17.2725V14.8804L58.1309 17.8515Z" fill="white"></path></mask><g mask="url(#mask9_1108_693)"><path d="M61.4618 14.7515L58.0176 14.8843L58.1369 17.9798L61.5811 17.8471L61.4618 14.7515Z" fill="#D9BB7E"></path></g><mask id="mask10_1108_693" style="mask-type:luminance" maskUnits="userSpaceOnUse" x="0" y="0" width="144" height="29"><path d="M143.269 0.787109H0.226562V28.0023H143.269V0.787109Z" fill="white"></path></mask><g mask="url(#mask10_1108_693)"><path d="M101.799 0.994629C100.57 0.994629 99.5742 2.41299 99.5742 4.16311H104.126V17.3368L107.166 14.5871C107.262 14.4999 107.339 14.3935 107.392 14.2748C107.444 14.1561 107.472 14.0276 107.472 13.8978V4.16311H110.067C111.296 4.16311 112.619 2.74475 112.619 0.994629H101.799Z" fill="#D9BB7E"></path><path d="M55.7933 0.994629C54.5645 0.994629 53.5684 2.41299 53.5684 4.16311H58.1207V17.3368L61.1608 14.5871C61.2571 14.4999 61.334 14.3935 61.3867 14.2748C61.4393 14.1561 61.4666 14.0276 61.4667 13.8978V4.16311H64.0622C65.291 4.16311 66.6137 2.74475 66.6137 0.994629H55.7933Z" fill="#D9BB7E"></path><path d="M14.8812 0.994629C13.6524 0.994629 12.6562 2.41299 12.6562 4.16311H17.2086V17.3368L20.2487 14.5871C20.3449 14.4999 20.4219 14.3935 20.4745 14.2748C20.5272 14.1561 20.5545 14.0276 20.5546 13.8978V4.16311H23.1509C24.3797 4.16311 25.7024 2.74475 25.7024 0.994629H14.8812Z" fill="#D9BB7E"></path></g><mask id="mask11_1108_693" style="mask-type:luminance" maskUnits="userSpaceOnUse" x="104" y="14" width="4" height="4"><path d="M104.143 17.8505H106.9C107.054 17.8505 107.201 17.7895 107.309 17.6809C107.418 17.5723 107.479 17.4251 107.479 17.2715V14.8794L104.143 17.8505Z" fill="white"></path></mask><g mask="url(#mask11_1108_693)"><path d="M107.472 14.7511L104.027 14.8838L104.147 17.9793L107.591 17.8466L107.472 14.7511Z" fill="#D9BB7E"></path></g><mask id="mask12_1108_693" style="mask-type:luminance" maskUnits="userSpaceOnUse" x="29" y="14" width="5" height="4"><path d="M30.8001 15.9949L29.9082 17.8235H33.3438L32.4959 15.9949L31.6454 14.1655L30.8001 15.9949Z" fill="white"></path></mask><g mask="url(#mask12_1108_693)"><path d="M33.3384 14.0328L29.7676 14.1704L29.9134 17.9548L33.4843 17.8172L33.3384 14.0328Z" fill="#D9BB7E"></path></g><mask id="mask13_1108_693" style="mask-type:luminance" maskUnits="userSpaceOnUse" x="0" y="0" width="144" height="29"><path d="M143.269 0.787109H0.226562V28.0023H143.269V0.787109Z" fill="white"></path></mask><g mask="url(#mask13_1108_693)"><path d="M36.2851 16.4746L32.5901 9.11052C32.501 8.93295 32.3643 8.78367 32.1952 8.67934C32.0262 8.57501 31.8314 8.51976 31.6328 8.51976C31.4341 8.51976 31.2393 8.57501 31.0703 8.67934C30.9012 8.78367 30.7645 8.93295 30.6754 9.11052L26.8486 16.7099C26.6803 17.0458 26.4219 17.3284 26.1024 17.5262C25.7829 17.724 25.4148 17.8292 25.039 17.8301H23.1191L31.6121 0.833008L31.631 0.851965V0.833008L40.1274 17.8249H38.4712C38.0171 17.8249 37.5719 17.6986 37.1854 17.4602C36.7988 17.2217 36.4863 16.8805 36.2825 16.4746" fill="#D9BB7E"></path><path d="M82.8779 8.43577H75.2535V10.1962C75.2535 10.3638 75.2866 10.5298 75.3507 10.6846C75.4148 10.8394 75.5088 10.9801 75.6273 11.0986C75.7458 11.2171 75.8865 11.3111 76.0413 11.3753C76.1962 11.4394 76.3621 11.4724 76.5297 11.4724H79.4681C79.3449 13.4543 77.6706 14.634 75.3776 14.634C74.43 14.6686 73.4909 14.4446 72.661 13.986C71.8311 13.5274 71.1416 12.8515 70.6667 12.0308L69.7369 12.5883L67.8145 13.7034C68.5694 14.9886 69.6475 16.054 70.9417 16.7936C72.2358 17.5333 73.7009 17.9215 75.1915 17.9197C79.4681 17.9197 82.9399 14.9442 82.9399 9.79985C82.9489 9.34429 82.9282 8.88863 82.8779 8.43577ZM70.6676 6.82439C71.1264 6.06306 71.7709 5.43054 72.5407 4.98598C73.3104 4.54142 74.1804 4.29933 75.0691 4.28237C76.2221 4.3082 77.3367 4.70225 78.2497 5.40689C78.5044 5.59934 78.8249 5.683 79.1412 5.63955C79.4574 5.5961 79.7436 5.42909 79.9369 5.17509C79.9516 5.157 79.9645 5.13718 79.9774 5.11822L81.0183 3.53786C79.4299 1.96625 77.3029 1.05802 75.0691 0.997559C73.5961 0.999236 72.1497 1.38986 70.8761 2.12992C69.6026 2.86998 68.547 3.93323 67.8162 5.21214L69.7386 6.32719L70.6676 6.82439Z" fill="#D9BB7E"></path></g><mask id="mask14_1108_693" style="mask-type:luminance" maskUnits="userSpaceOnUse" x="66" y="7" width="5" height="5"><path d="M66.0293 9.42856C66.0293 9.8577 66.1565 10.2772 66.395 10.634C66.6334 10.9908 66.9722 11.2689 67.3687 11.4332C67.7652 11.5974 68.2015 11.6404 68.6223 11.5566C69.0432 11.4729 69.4299 11.2663 69.7333 10.9628C70.0368 10.6594 70.2434 10.2727 70.3271 9.85186C70.4109 9.43096 70.3679 8.9947 70.2037 8.59822C70.0394 8.20175 69.7613 7.86288 69.4045 7.62446C69.0477 7.38604 68.6282 7.25879 68.1991 7.25879C67.6236 7.25879 67.0717 7.48739 66.6648 7.8943C66.2579 8.30121 66.0293 8.8531 66.0293 9.42856Z" fill="white"></path></mask><g mask="url(#mask14_1108_693)"><path d="M70.364 7.08902L65.8652 7.26465L66.0409 11.7634L70.5396 11.5878L70.364 7.08902Z" fill="#D9BB7E"></path></g><mask id="mask15_1108_693" style="mask-type:luminance" maskUnits="userSpaceOnUse" x="0" y="0" width="144" height="29"><path d="M143.269 0.787109H0.226562V28.0023H143.269V0.787109Z" fill="white"></path></mask><g mask="url(#mask15_1108_693)"><path d="M5.57072 23.5069H1.79905C1.81715 23.8971 1.98911 24.2643 2.27729 24.528C2.57147 24.7939 2.95718 24.9357 3.35356 24.9235C3.52857 24.9246 3.70278 24.9 3.87058 24.8503C4.01262 24.811 4.14881 24.7531 4.27558 24.6779C4.37461 24.6166 4.46855 24.5475 4.5565 24.4711C4.61952 24.4192 4.67518 24.3589 4.72194 24.2919L4.77709 24.2186L5.39321 24.7796C5.37483 24.8101 5.34869 24.8483 5.3148 24.8942C5.24103 24.981 5.16096 25.0622 5.07524 25.1372C4.94907 25.2543 4.81201 25.359 4.66593 25.45C4.47987 25.5586 4.28023 25.6421 4.07222 25.6982C3.81674 25.7731 3.5517 25.8102 3.28549 25.8085C2.95598 25.8185 2.62781 25.7622 2.3205 25.6429C2.01319 25.5236 1.733 25.3437 1.49659 25.1139C1.26381 24.8904 1.08021 24.6207 0.957505 24.3222C0.834803 24.0237 0.775698 23.7029 0.783965 23.3802C0.777489 23.0531 0.83867 22.7282 0.963673 22.4258C1.08868 22.1235 1.2748 21.8502 1.51038 21.6232C1.74375 21.389 2.02226 21.2046 2.32902 21.0812C2.63578 20.9578 2.9644 20.898 3.29497 20.9054C3.60038 20.9002 3.90363 20.9576 4.18607 21.0739C4.46851 21.1902 4.72418 21.3631 4.93737 21.5818C5.15486 21.792 5.327 22.0444 5.44319 22.3236C5.55938 22.6028 5.61715 22.9029 5.61294 23.2053L5.57072 23.5069ZM3.27859 21.6766C2.93595 21.668 2.60094 21.7786 2.33072 21.9894C2.06834 22.1959 1.88884 22.4898 1.8249 22.8175H4.64181C4.59462 22.495 4.42904 22.2017 4.17735 21.9946C3.92587 21.7837 3.60671 21.6708 3.27859 21.6766Z" fill="#D9BB7E"></path><path d="M10.2376 24.3074L10.9269 24.9511C10.9088 24.9761 10.8821 25.0063 10.8485 25.0433C10.777 25.1149 10.7016 25.1825 10.6227 25.2458C10.5064 25.3426 10.3819 25.4291 10.2505 25.5043C10.0835 25.5953 9.90577 25.6647 9.72141 25.7111C9.49973 25.7726 9.27071 25.8037 9.04066 25.8033C8.7108 25.8133 8.38233 25.7565 8.07494 25.6364C7.76754 25.5163 7.48756 25.3354 7.25177 25.1045C6.792 24.6388 6.5357 24.0098 6.5391 23.3554C6.54249 22.701 6.80529 22.0746 7.26987 21.6137C7.50813 21.3794 7.79116 21.1955 8.10206 21.0729C8.41296 20.9503 8.74536 20.8916 9.07944 20.9003C9.29786 20.8994 9.51552 20.9258 9.72744 20.9787C9.90556 21.0201 10.0774 21.085 10.2384 21.1717C10.3623 21.2414 10.4819 21.3182 10.5969 21.4018C10.6779 21.4592 10.7548 21.5222 10.827 21.5905L10.8916 21.6766L10.2022 22.3479C10.1712 22.3109 10.129 22.2617 10.0738 22.2049C9.96032 22.1096 9.83308 22.0321 9.69642 21.9748C9.4987 21.8794 9.28176 21.8304 9.06221 21.8318C8.86243 21.8268 8.66377 21.863 8.4786 21.9382C8.29344 22.0133 8.12573 22.1258 7.98594 22.2686C7.70837 22.5618 7.55368 22.9502 7.55368 23.354C7.55368 23.7577 7.70837 24.1461 7.98594 24.4393C8.12567 24.5822 8.29336 24.6947 8.47854 24.7699C8.66372 24.845 8.86242 24.8812 9.06221 24.8761C9.20991 24.8771 9.357 24.857 9.49909 24.8167C9.61733 24.7856 9.7305 24.7377 9.83515 24.6745C9.91383 24.6246 9.98897 24.5693 10.0601 24.5091C10.1112 24.4672 10.1588 24.4211 10.2022 24.3712L10.2376 24.3074Z" fill="#D9BB7E"></path><path d="M12.1637 21.6174C12.4019 21.3831 12.685 21.1992 12.9959 21.0766C13.3067 20.954 13.6392 20.8953 13.9732 20.904C14.3027 20.894 14.6309 20.9504 14.9382 21.0697C15.2455 21.189 15.5257 21.3688 15.7621 21.5985C15.9947 21.8222 16.1781 22.0919 16.3008 22.3904C16.4235 22.6889 16.4827 23.0096 16.4748 23.3322C16.4811 23.6598 16.4193 23.9851 16.2934 24.2875C16.1675 24.59 15.9801 24.863 15.7432 25.0892C15.5055 25.3247 15.2227 25.5097 14.9117 25.6331C14.6008 25.7564 14.268 25.8156 13.9336 25.807C13.6037 25.817 13.2752 25.7602 12.9678 25.6402C12.6604 25.5201 12.3805 25.3391 12.1447 25.1082C11.6847 24.6426 11.4283 24.0135 11.4317 23.3591C11.4351 22.7046 11.6989 22.0782 12.1637 21.6174ZM12.8754 24.4412C13.1637 24.7219 13.5502 24.879 13.9526 24.879C14.3549 24.879 14.7414 24.7219 15.0297 24.4412C15.3073 24.1481 15.4619 23.7597 15.4619 23.3559C15.4619 22.9522 15.3073 22.5638 15.0297 22.2706C14.7414 21.99 14.3549 21.8329 13.9526 21.8329C13.5502 21.8329 13.1637 21.99 12.8754 22.2706C12.5979 22.5638 12.4432 22.9522 12.4432 23.3559C12.4432 23.7597 12.5979 24.1481 12.8754 24.4412Z" fill="#D9BB7E"></path><path d="M19.3871 22.9192C20.3683 23.2013 20.8589 23.6827 20.8589 24.3634C20.8625 24.5611 20.8209 24.7571 20.7373 24.9363C20.6537 25.1155 20.5302 25.2732 20.3764 25.3975C19.9969 25.689 19.5253 25.8343 19.0476 25.8068C18.7161 25.8087 18.3865 25.7545 18.073 25.6465C17.8376 25.5744 17.6143 25.4675 17.4104 25.3294L17.207 25.1596L17.6482 24.497C17.6913 24.534 17.7542 24.5832 17.8369 24.6443C17.9917 24.7417 18.1567 24.8217 18.329 24.883C18.5594 24.9783 18.806 25.0283 19.0554 25.0304C19.2658 25.0423 19.4743 24.9841 19.6482 24.8649C19.7143 24.8199 19.7685 24.7595 19.8061 24.689C19.8438 24.6185 19.8638 24.5399 19.8645 24.4599C19.8639 24.3708 19.8428 24.2829 19.8029 24.2031C19.7631 24.1234 19.7054 24.0538 19.6344 23.9998C19.3634 23.8174 19.0611 23.6866 18.7426 23.6137C18.373 23.5213 18.0338 23.3342 17.7585 23.0709C17.6476 22.9634 17.5595 22.8347 17.4994 22.6924C17.4392 22.5501 17.4084 22.3972 17.4087 22.2428C17.4087 22.0603 17.4501 21.8801 17.5298 21.7159C17.6095 21.5518 17.7254 21.4078 17.8688 21.2949C18.2309 21.0157 18.6817 20.8768 19.1381 20.9037C19.429 20.9032 19.718 20.95 19.9938 21.0424C20.2067 21.1059 20.4097 21.1987 20.597 21.3182L20.79 21.456L20.3393 22.1273C20.3026 22.0969 20.2506 22.0555 20.1833 22.0032C20.0553 21.92 19.9179 21.852 19.774 21.8007C19.58 21.7203 19.3723 21.6781 19.1622 21.6766C18.9658 21.6646 18.7707 21.716 18.6056 21.8231C18.5466 21.8609 18.4977 21.9125 18.4632 21.9735C18.4286 22.0345 18.4095 22.1029 18.4074 22.173C18.4091 22.2523 18.4285 22.3303 18.4643 22.4011C18.5001 22.4719 18.5513 22.5339 18.6142 22.5823C18.8449 22.7447 19.1061 22.859 19.382 22.9183" fill="#D9BB7E"></path><path d="M23.33 25.6627L21.4102 20.9966H22.5304L23.8229 24.427L25.2016 20.9966H26.2857L24.3262 25.7609C24.2181 26.1821 23.9772 26.5573 23.6391 26.8308C23.3011 27.1043 22.8839 27.2616 22.4494 27.2793C22.2622 27.2801 22.0756 27.2584 21.8936 27.2146C21.7645 27.1881 21.6393 27.145 21.5213 27.0862L21.411 27.0216L21.7333 26.203C21.934 26.3275 22.169 26.3854 22.4046 26.3684C22.6138 26.3642 22.8163 26.2935 22.9828 26.1666C23.1493 26.0398 23.2703 25.8633 23.33 25.6627Z" fill="#D9BB7E"></path><path d="M28.7407 22.9192C29.7218 23.2013 30.2124 23.6827 30.2124 24.3634C30.2161 24.5611 30.1745 24.7571 30.0908 24.9363C30.0072 25.1155 29.8837 25.2732 29.7299 25.3975C29.3505 25.689 28.8788 25.8343 28.4011 25.8068C28.0696 25.8087 27.7401 25.7545 27.4266 25.6465C27.1911 25.5744 26.9678 25.4675 26.7639 25.3294L26.5605 25.1596L27.0017 24.497C27.0448 24.534 27.1077 24.5832 27.1905 24.6443C27.3452 24.7417 27.5102 24.8217 27.6825 24.883C27.9129 24.9783 28.1596 25.0283 28.4089 25.0304C28.6194 25.0423 28.8278 24.9841 29.0017 24.8649C29.0678 24.8199 29.122 24.7595 29.1596 24.689C29.1973 24.6185 29.2173 24.5399 29.218 24.4599C29.2174 24.3708 29.1963 24.2829 29.1565 24.2031C29.1166 24.1234 29.0589 24.0538 28.988 23.9998C28.7169 23.8174 28.4146 23.6866 28.0961 23.6137C27.7265 23.5213 27.3874 23.3342 27.112 23.0709C27.0011 22.9634 26.913 22.8347 26.8529 22.6924C26.7928 22.5501 26.7619 22.3972 26.7622 22.2428C26.7622 22.0603 26.8036 21.8801 26.8833 21.7159C26.963 21.5518 27.0789 21.4078 27.2223 21.2949C27.5844 21.0157 28.0352 20.8768 28.4916 20.9037C28.7825 20.9032 29.0715 20.95 29.3473 21.0424C29.5602 21.1059 29.7632 21.1987 29.9505 21.3182L30.1435 21.456L29.6928 22.1273C29.6561 22.0969 29.6041 22.0555 29.5369 22.0032C29.4088 21.92 29.2714 21.852 29.1276 21.8007C28.9335 21.7203 28.7258 21.6781 28.5158 21.6766C28.3193 21.6646 28.1242 21.716 27.9591 21.8231C27.9003 21.861 27.8515 21.9127 27.8172 21.9736C27.7828 22.0346 27.7638 22.103 27.7618 22.173C27.7634 22.2523 27.7829 22.3303 27.8187 22.4011C27.8545 22.4719 27.9057 22.5339 27.9686 22.5823C28.1993 22.7448 28.4604 22.8591 28.7363 22.9183" fill="#D9BB7E"></path><path d="M32.7865 19.8286V20.9971H34.4419V21.8062H32.7865V24.0785C32.7865 24.6122 33.0226 24.8791 33.4949 24.8791C33.6259 24.8785 33.7567 24.8679 33.8861 24.8472C34.0239 24.8259 34.1296 24.8061 34.2032 24.7877L34.3135 24.7601L34.4419 25.5977C34.0694 25.7523 33.6678 25.8243 33.2648 25.8088C33.0632 25.8294 32.8596 25.8047 32.6689 25.7364C32.4781 25.6682 32.305 25.5582 32.1622 25.4145C32.0194 25.2708 31.9105 25.097 31.8435 24.9058C31.7765 24.7146 31.7531 24.5109 31.7749 24.3095V21.8105H30.8555V21.0014H31.7749V19.8286H32.7865Z" fill="#D9BB7E"></path><path d="M39.9633 23.5069H36.1916C36.2097 23.8971 36.3817 24.2643 36.6699 24.528C36.9641 24.7939 37.3498 24.9357 37.7461 24.9235C37.9212 24.9246 38.0954 24.9 38.2632 24.8503C38.4052 24.811 38.5414 24.7531 38.6682 24.6779C38.7672 24.6166 38.8611 24.5475 38.9491 24.4711C39.0121 24.4192 39.0678 24.3589 39.1145 24.2919L39.1697 24.2186L39.7858 24.7796C39.7674 24.8101 39.7413 24.8483 39.7074 24.8942C39.6336 24.981 39.5535 25.0622 39.4678 25.1372C39.3417 25.2543 39.2046 25.359 39.0585 25.45C38.8725 25.5586 38.6728 25.6421 38.4648 25.6982C38.2093 25.7731 37.9443 25.8102 37.6781 25.8085C37.3486 25.8185 37.0204 25.7622 36.7131 25.6429C36.4058 25.5236 36.1256 25.3437 35.8892 25.1139C35.6564 24.8904 35.4728 24.6207 35.3501 24.3222C35.2274 24.0237 35.1683 23.7029 35.1765 23.3802C35.1701 23.0531 35.2313 22.7282 35.3563 22.4258C35.4813 22.1235 35.6674 21.8502 35.903 21.6232C36.1363 21.389 36.4148 21.2046 36.7216 21.0812C37.0284 20.9578 37.357 20.898 37.6875 20.9054C37.9908 20.9041 38.2913 20.9627 38.5719 21.0776C38.8525 21.1925 39.1077 21.3616 39.323 21.5751C39.5382 21.7887 39.7093 22.0426 39.8264 22.3223C39.9435 22.602 40.0044 22.902 40.0055 23.2053L39.9633 23.5069ZM37.6729 21.6766C37.3303 21.668 36.9952 21.7786 36.725 21.9894C36.4626 22.1959 36.2831 22.4898 36.2192 22.8175H39.0344C38.9873 22.495 38.8217 22.2016 38.5699 21.9946C38.3188 21.7844 38.0003 21.6709 37.6729 21.6766Z" fill="#D9BB7E"></path><path d="M41.2031 25.7148V20.9962H42.095L42.1501 21.7967C42.279 21.5867 42.448 21.4042 42.6476 21.2598C42.8472 21.1153 43.0733 21.0116 43.313 20.9548C43.5527 20.8979 43.8013 20.889 44.0445 20.9285C44.2877 20.968 44.5207 21.0551 44.7301 21.1849C45.024 21.3834 45.2451 21.6723 45.36 22.0078C45.4947 21.6687 45.7329 21.3808 46.0407 21.1849C46.3515 20.9943 46.7103 20.8968 47.0748 20.904C47.3107 20.8974 47.5453 20.9408 47.7633 21.0313C47.9813 21.1217 48.1777 21.2571 48.3397 21.4287C48.6965 21.84 48.8767 22.3753 48.8413 22.9186V25.7148H47.8253V23.2495C47.8537 22.8706 47.7462 22.4939 47.522 22.187C47.4269 22.0728 47.3072 21.9815 47.1719 21.9202C47.0365 21.8589 46.889 21.829 46.7404 21.8329C46.5796 21.8279 46.4195 21.8559 46.27 21.9152C46.1205 21.9744 45.9846 22.0637 45.871 22.1776C45.7459 22.323 45.6511 22.4918 45.5919 22.6742C45.5327 22.8566 45.5104 23.0489 45.5263 23.24V25.7148H44.5146V23.2495C44.5431 22.8706 44.4356 22.4939 44.2113 22.187C44.1163 22.0727 43.9966 21.9815 43.8613 21.9201C43.7259 21.8588 43.5783 21.8289 43.4298 21.8329C43.269 21.8279 43.1089 21.8559 42.9594 21.9152C42.8098 21.9745 42.674 22.0638 42.5603 22.1776C42.4353 22.323 42.3405 22.4918 42.2813 22.6742C42.2221 22.8566 42.1998 23.0489 42.2156 23.24V25.7148H41.2031Z" fill="#D9BB7E"></path><path d="M53.043 25.7149V21.0617H53.3652L53.4109 22.0277C53.5654 21.6927 53.8176 21.4124 54.1345 21.2235C54.4513 21.0346 54.8179 20.9461 55.186 20.9695C55.5621 20.9642 55.9298 21.0802 56.2347 21.3004C56.5576 21.545 56.7879 21.8919 56.8879 22.2845C57.0125 21.8815 57.2705 21.533 57.6195 21.2961C57.9636 21.0755 58.3654 20.9619 58.7741 20.9695C59.0168 20.9643 59.2578 21.0112 59.4808 21.1071C59.7037 21.203 59.9035 21.3456 60.0667 21.5253C60.4408 21.9802 60.6258 22.5613 60.5837 23.1488V25.7149H60.2158V23.2677C60.2567 22.7409 60.1034 22.2174 59.7849 21.7959C59.6543 21.6407 59.4908 21.5165 59.3063 21.4322C59.1219 21.3478 58.921 21.3055 58.7181 21.3082C58.4927 21.3011 58.2682 21.3413 58.0591 21.426C57.85 21.5107 57.661 21.6382 57.504 21.8002C57.148 22.2321 56.9675 22.7821 56.9982 23.3409V25.7141H56.6302V23.2668C56.671 22.7401 56.5178 22.2166 56.1994 21.795C56.0687 21.6399 55.9053 21.5157 55.7208 21.4313C55.5363 21.347 55.3354 21.3046 55.1326 21.3073C54.9071 21.3003 54.6827 21.3405 54.4736 21.4252C54.2645 21.5099 54.0754 21.6374 53.9185 21.7993C53.5626 22.2313 53.382 22.7812 53.4126 23.3401V25.7132L53.043 25.7149Z" fill="#D9BB7E"></path><path d="M66.6198 23.2873V23.3235H62.3337V23.3881C62.3257 23.6627 62.3737 23.936 62.4747 24.1914C62.5758 24.4468 62.7277 24.6789 62.9214 24.8737C63.1115 25.0682 63.3398 25.2213 63.5919 25.3235C63.8439 25.4257 64.1144 25.4747 64.3863 25.4674C64.6144 25.4693 64.8412 25.4335 65.0576 25.3614C65.2398 25.3038 65.4119 25.218 65.5677 25.1072C65.6896 25.0176 65.8049 24.9191 65.9124 24.8125C65.9931 24.7353 66.064 24.6485 66.1235 24.554L66.1907 24.4549L66.4578 24.6109L66.3837 24.741C66.3139 24.8439 66.2352 24.9405 66.1485 25.0297C66.0263 25.1644 65.8906 25.2863 65.7435 25.3933C65.5633 25.5157 65.3665 25.6117 65.1592 25.6785C64.826 25.7924 64.4719 25.8322 64.1217 25.7951C63.7715 25.758 63.4337 25.6449 63.1317 25.4637C62.8297 25.2825 62.571 25.0376 62.3735 24.746C62.1759 24.4545 62.0444 24.1233 61.9881 23.7757C61.9319 23.4281 61.9521 23.0724 62.0475 22.7334C62.1429 22.3944 62.3112 22.0803 62.5405 21.8131C62.7699 21.5458 63.0548 21.3319 63.3754 21.1862C63.696 21.0404 64.0445 20.9664 64.3966 20.9693C64.6907 20.9666 64.9821 21.0252 65.2521 21.1416C65.5222 21.2579 65.7649 21.4293 65.9649 21.6449C66.1789 21.8607 66.3474 22.1173 66.4604 22.3994C66.5733 22.6815 66.6284 22.9835 66.6224 23.2873M64.3871 21.3054C63.9015 21.2973 63.4293 21.4657 63.0584 21.7793C62.6861 22.0873 62.4391 22.5206 62.3639 22.9978H66.2364C66.1779 22.5331 65.9543 22.105 65.6065 21.7914C65.2776 21.4791 64.8407 21.3061 64.3871 21.3088" fill="#D9BB7E"></path><path d="M68.0898 25.7149V21.0617H68.4112L68.4569 22.0277C68.6114 21.6927 68.8636 21.4124 69.1805 21.2235C69.4973 21.0346 69.8639 20.9461 70.232 20.9695C70.6081 20.9642 70.9758 21.0802 71.2807 21.3004C71.6036 21.545 71.8339 21.8919 71.9339 22.2845C72.0586 21.8816 72.3165 21.533 72.6655 21.2961C73.0096 21.0755 73.4114 20.9619 73.8202 20.9695C74.0628 20.9643 74.3038 21.0112 74.5268 21.1071C74.7497 21.203 74.9496 21.3456 75.1127 21.5253C75.4868 21.9802 75.6719 22.5613 75.6297 23.1488V25.7149H75.2618V23.2677C75.3027 22.7409 75.1494 22.2174 74.8309 21.7959C74.7003 21.6407 74.5368 21.5165 74.3523 21.4322C74.1679 21.3478 73.967 21.3055 73.7641 21.3082C73.5387 21.3011 73.3142 21.3413 73.1051 21.426C72.896 21.5107 72.707 21.6382 72.55 21.8002C72.194 22.2321 72.0135 22.7821 72.0442 23.3409V25.7141H71.6762V23.2668C71.7164 22.7409 71.5632 22.2185 71.2454 21.7976C71.1147 21.6425 70.9513 21.5182 70.7668 21.4339C70.5823 21.3496 70.3814 21.3072 70.1786 21.3099C69.9531 21.3029 69.7286 21.343 69.5196 21.4277C69.3105 21.5124 69.1214 21.6399 68.9645 21.8019C68.6086 22.2339 68.428 22.7838 68.4586 23.3427V25.7158L68.0898 25.7149Z" fill="#D9BB7E"></path><path d="M77.3809 25.7149V19.2788H77.7488V22.1578C77.9494 21.7991 78.2433 21.5013 78.5993 21.2961C78.9649 21.0814 79.3818 20.9701 79.8057 20.9738C80.1168 20.9682 80.4256 21.027 80.7129 21.1465C81.0001 21.2661 81.2595 21.4437 81.4748 21.6683C81.9162 22.1327 82.1615 22.7495 82.1598 23.3902C82.158 24.0309 81.9093 24.6462 81.4653 25.1082C81.2492 25.3349 80.9884 25.5144 80.6996 25.6356C80.4107 25.7567 80.0999 25.8169 79.7867 25.8122C79.3663 25.8176 78.9521 25.7111 78.5864 25.5037C78.2326 25.3034 77.9412 25.009 77.7445 24.6532L77.6799 25.72L77.3809 25.7149ZM78.2917 21.9018C77.9134 22.304 77.7027 22.8353 77.7027 23.3874C77.7027 23.9395 77.9134 24.4709 78.2917 24.873C78.6825 25.2535 79.2064 25.4664 79.7518 25.4664C80.2973 25.4664 80.8212 25.2535 81.212 24.873C81.5875 24.4694 81.7962 23.9386 81.7962 23.3874C81.7962 22.8362 81.5875 22.3054 81.212 21.9018C80.8212 21.5213 80.2973 21.3084 79.7518 21.3084C79.2064 21.3084 78.6825 21.5213 78.2917 21.9018Z" fill="#D9BB7E"></path><path d="M87.9226 23.2873V23.3235H83.6365V23.3881C83.6284 23.6627 83.6764 23.936 83.7775 24.1914C83.8785 24.4468 84.0305 24.6789 84.2241 24.8737C84.4143 25.0682 84.6425 25.2213 84.8946 25.3235C85.1467 25.4257 85.4171 25.4747 85.689 25.4674C85.9171 25.4693 86.1439 25.4335 86.3603 25.3614C86.5425 25.3037 86.7147 25.218 86.8704 25.1072C86.9924 25.0176 87.1076 24.9191 87.2151 24.8125C87.2958 24.7353 87.3667 24.6485 87.4262 24.554L87.4934 24.4549L87.7606 24.6109L87.6865 24.741C87.6167 24.8439 87.5379 24.9405 87.4512 25.0297C87.329 25.1644 87.1933 25.2863 87.0462 25.3933C86.866 25.5157 86.6693 25.6117 86.462 25.6785C86.1287 25.7924 85.7747 25.8322 85.4245 25.7951C85.0743 25.758 84.7364 25.6449 84.4344 25.4637C84.1325 25.2825 83.8737 25.0376 83.6762 24.746C83.4787 24.4545 83.3472 24.1233 83.2909 23.7757C83.2346 23.4281 83.2549 23.0724 83.3503 22.7334C83.4457 22.3944 83.6139 22.0803 83.8433 21.8131C84.0726 21.5458 84.3575 21.3319 84.6781 21.1862C84.9987 21.0404 85.3472 20.9664 85.6994 20.9693C85.9934 20.9666 86.2848 21.0253 86.5548 21.1416C86.8249 21.258 87.0677 21.4294 87.2677 21.6449C87.4817 21.8607 87.6501 22.1172 87.7631 22.3994C87.876 22.6815 87.9312 22.9835 87.9252 23.2873M85.6899 21.3054C85.2042 21.2973 84.7321 21.4657 84.3611 21.7793C83.9889 22.0873 83.7419 22.5206 83.6666 22.9978H87.5391C87.4806 22.5331 87.257 22.105 86.9092 21.7914C86.5804 21.4791 86.1434 21.3061 85.6899 21.3088" fill="#D9BB7E"></path><path d="M89.7605 23.5898V25.7148H89.3926V21.0616H89.7148L89.7605 22.1818C89.9233 21.7933 90.2051 21.4664 90.5655 21.2483C90.9258 21.0301 91.346 20.9318 91.7657 20.9677L91.7562 21.3261H91.7106C91.4448 21.3111 91.1789 21.3539 90.9312 21.4514C90.6835 21.549 90.4599 21.6991 90.2758 21.8914C89.8972 22.3727 89.7128 22.9784 89.7588 23.589" fill="#D9BB7E"></path></g><mask id="mask16_1108_693" style="mask-type:luminance" maskUnits="userSpaceOnUse" x="133" y="4" width="7" height="9"><path d="M137.007 7.18646C136.94 7.13816 136.884 7.0767 136.842 7.00588C136.8 6.93506 136.773 6.85637 136.762 6.77466C136.752 6.69296 136.758 6.60997 136.781 6.53081C136.804 6.45165 136.843 6.37801 136.895 6.31441C137 6.18154 137.153 6.09435 137.321 6.07093C137.489 6.04751 137.659 6.08964 137.797 6.1886C137.864 6.23697 137.92 6.29847 137.962 6.36932C138.004 6.44018 138.031 6.51888 138.041 6.60059C138.052 6.68229 138.045 6.76526 138.023 6.84438C138 6.9235 137.961 6.99711 137.908 7.06065C137.846 7.13841 137.768 7.20125 137.678 7.24451C137.589 7.28777 137.491 7.31033 137.391 7.31054C137.254 7.31111 137.12 7.26761 137.01 7.18646M137.86 4.19635C137.547 4.28876 137.262 4.45688 137.03 4.68579C136.7 4.98825 136.407 5.33001 136.16 5.70346C135.727 6.33944 135.373 7.02654 135.109 7.74915C135.098 7.78333 135.078 7.81393 135.051 7.83762C135.024 7.86132 134.991 7.87721 134.956 7.88357C134.823 7.91546 134.691 7.95337 134.557 7.98784C134.462 8.00849 134.375 8.05438 134.304 8.12066C134.233 8.18694 134.181 8.27115 134.154 8.3644C133.912 9.11523 133.668 9.86606 133.422 10.6169C133.401 10.6841 133.385 10.7522 133.367 10.8194L133.402 10.8832C133.433 10.8966 133.466 10.9031 133.5 10.902C133.533 10.901 133.566 10.8925 133.596 10.8771C133.989 10.7427 134.381 10.6057 134.774 10.473C134.855 10.4479 134.93 10.4065 134.994 10.3512C135.058 10.2958 135.11 10.2279 135.147 10.1516C135.193 10.0559 135.217 10.0421 135.319 10.0714L137.199 10.6117C137.3 10.641 137.312 10.6643 137.294 10.7634C137.276 10.8372 137.275 10.9139 137.29 10.9882C137.305 11.0626 137.336 11.1329 137.38 11.1942C137.639 11.5312 137.897 11.8655 138.156 12.2016C138.173 12.228 138.196 12.2503 138.223 12.2671C138.249 12.2839 138.279 12.2948 138.311 12.2989L138.35 12.2783C138.374 12.2414 138.395 12.2025 138.412 12.1619C138.671 11.3674 138.93 10.5727 139.187 9.77759C139.214 9.69916 139.22 9.61479 139.203 9.53356C139.185 9.45233 139.146 9.37732 139.09 9.31658C139.004 9.22007 138.923 9.12012 138.831 9.03222C138.782 8.98805 138.747 8.92976 138.732 8.86521C138.716 8.80067 138.721 8.73295 138.745 8.67117C138.909 8.08801 139.015 7.48988 139.06 6.88572C139.114 6.34147 139.088 5.79227 138.984 5.25538C138.934 4.97878 138.825 4.7161 138.665 4.48502C138.596 4.38908 138.506 4.3109 138.401 4.25695C138.296 4.203 138.18 4.17484 138.062 4.1748C137.994 4.17508 137.927 4.18347 137.862 4.19979" fill="white"></path></mask><g mask="url(#mask16_1108_693)"><path d="M134.628 1.75413L130.021 10.5444L137.973 14.7115L142.58 5.92115L134.628 1.75413Z" fill="#D9BB7E"></path></g><mask id="mask17_1108_693" style="mask-type:luminance" maskUnits="userSpaceOnUse" x="129" y="13" width="3" height="2"><path d="M130.052 13.1224C129.893 13.197 129.767 13.3279 129.698 13.4899C129.629 13.652 129.622 13.8338 129.679 14.0005C129.736 14.1671 129.852 14.3069 130.006 14.3929C130.16 14.4789 130.34 14.5051 130.512 14.4665C130.683 14.4279 130.835 14.3271 130.937 14.1836C131.039 14.0401 131.085 13.864 131.065 13.689C131.045 13.514 130.961 13.3525 130.829 13.2355C130.698 13.1185 130.528 13.0543 130.351 13.0552C130.248 13.055 130.146 13.078 130.052 13.1224Z" fill="white"></path></mask><g mask="url(#mask17_1108_693)"><path d="M131.162 12.9937L129.49 13.0581L129.551 14.639L131.223 14.5746L131.162 12.9937Z" fill="#D9BB7E"></path></g><mask id="mask18_1108_693" style="mask-type:luminance" maskUnits="userSpaceOnUse" x="142" y="6" width="1" height="2"><path d="M142.49 6.91542C142.454 6.9325 142.425 6.96238 142.409 6.99933C142.394 7.03628 142.392 7.0777 142.405 7.11564C142.418 7.15358 142.445 7.18538 142.48 7.20495C142.515 7.22451 142.556 7.23046 142.595 7.22165C142.634 7.21285 142.669 7.18991 142.692 7.15723C142.715 7.12455 142.726 7.08443 142.721 7.04457C142.717 7.0047 142.698 6.96789 142.668 6.9412C142.638 6.9145 142.599 6.8998 142.559 6.8999C142.535 6.89982 142.511 6.90513 142.49 6.91542Z" fill="white"></path></mask><g mask="url(#mask18_1108_693)"><path d="M142.745 6.8855L142.363 6.90039L142.377 7.26117L142.759 7.24628L142.745 6.8855Z" fill="#D9BB7E"></path></g><mask id="mask19_1108_693" style="mask-type:luminance" maskUnits="userSpaceOnUse" x="126" y="7" width="2" height="2"><path d="M126.727 7.54539C126.649 7.58577 126.59 7.6531 126.559 7.73465C126.527 7.8162 126.527 7.9063 126.558 7.98791C126.589 8.06952 126.649 8.13698 126.726 8.17752C126.803 8.21807 126.893 8.22889 126.978 8.20794C127.062 8.18698 127.136 8.13571 127.186 8.06381C127.235 7.99192 127.257 7.9044 127.246 7.8178C127.235 7.7312 127.193 7.65153 127.128 7.59387C127.062 7.53621 126.978 7.50455 126.891 7.50489C126.833 7.50462 126.777 7.51854 126.727 7.54539Z" fill="white"></path></mask><g mask="url(#mask19_1108_693)"><path d="M127.292 7.47374L126.459 7.50586L126.489 8.29201L127.323 8.25989L127.292 7.47374Z" fill="#D9BB7E"></path></g><mask id="mask20_1108_693" style="mask-type:luminance" maskUnits="userSpaceOnUse" x="133" y="2" width="2" height="2"><path d="M133.626 2.69121C133.546 2.72887 133.484 2.79445 133.45 2.87541C133.416 2.95637 133.413 3.04702 133.441 3.13001C133.47 3.213 133.528 3.2825 133.605 3.3252C133.682 3.36791 133.772 3.38082 133.857 3.36146C133.943 3.34211 134.018 3.29185 134.069 3.2203C134.12 3.14876 134.143 3.06095 134.133 2.9737C134.123 2.88644 134.082 2.80586 134.016 2.74738C133.951 2.6889 133.866 2.65663 133.778 2.65675C133.725 2.6564 133.673 2.66819 133.626 2.69121Z" fill="white"></path></mask><g mask="url(#mask20_1108_693)"><path d="M134.18 2.62611L133.348 2.6582L133.378 3.44349L134.211 3.4114L134.18 2.62611Z" fill="#D9BB7E"></path></g><mask id="mask21_1108_693" style="mask-type:luminance" maskUnits="userSpaceOnUse" x="137" y="15" width="2" height="1"><path d="M137.717 15.2977C137.638 15.3353 137.575 15.4007 137.541 15.4815C137.508 15.5622 137.505 15.6526 137.533 15.7354C137.562 15.8182 137.62 15.8875 137.697 15.9301C137.773 15.9726 137.863 15.9855 137.948 15.9662C138.033 15.9469 138.109 15.8968 138.16 15.8254C138.21 15.7541 138.233 15.6665 138.223 15.5795C138.214 15.4924 138.172 15.4121 138.107 15.3537C138.041 15.2953 137.957 15.2631 137.869 15.2632C137.816 15.2628 137.764 15.2746 137.717 15.2977Z" fill="white"></path></mask><g mask="url(#mask21_1108_693)"><path d="M138.269 15.2312L137.438 15.2637L137.468 16.0489L138.3 16.0165L138.269 15.2312Z" fill="#D9BB7E"></path></g><mask id="mask22_1108_693" style="mask-type:luminance" maskUnits="userSpaceOnUse" x="142" y="13" width="2" height="2"><path d="M142.764 13.8303C142.685 13.8683 142.623 13.934 142.589 14.0149C142.556 14.0958 142.554 14.1862 142.583 14.2688C142.612 14.3514 142.67 14.4203 142.747 14.4626C142.823 14.5048 142.913 14.5173 142.998 14.4976C143.084 14.478 143.159 14.4276 143.209 14.3561C143.26 14.2846 143.282 14.197 143.272 14.11C143.262 14.0231 143.22 13.9428 143.155 13.8847C143.089 13.8266 143.005 13.7946 142.917 13.7949C142.864 13.7947 142.811 13.8068 142.764 13.8303Z" fill="white"></path></mask><g mask="url(#mask22_1108_693)"><path d="M143.321 13.7639L142.488 13.7964L142.519 14.5817L143.352 14.5492L143.321 13.7639Z" fill="#D9BB7E"></path></g><mask id="mask23_1108_693" style="mask-type:luminance" maskUnits="userSpaceOnUse" x="92" y="11" width="45" height="18"><path d="M135.088 12.2952L135.225 13.1647C135.227 13.1762 135.225 13.1879 135.22 13.1983C134.45 14.7147 133.555 16.1642 132.544 17.5318C131.932 18.3554 131.27 19.1405 130.562 19.8825C129.851 20.6157 129.095 21.3036 128.298 21.942C125.058 24.4421 121.231 26.0686 117.182 26.6659C115.163 26.9958 113.118 27.1429 111.072 27.1053C109.018 27.0772 106.967 26.9146 104.934 26.6185C102.893 26.3236 100.868 25.925 98.8676 25.4241C96.8561 24.9309 94.8715 24.3335 92.9219 23.6344C94.8059 24.5155 96.7503 25.2616 98.7401 25.8671C100.733 26.4828 102.762 26.9746 104.815 27.3397C106.875 27.7104 108.959 27.9284 111.051 27.992C111.338 27.9983 111.626 28.0018 111.913 28.0024H112.048C113.818 28.0067 115.584 27.8684 117.331 27.5887C119.416 27.2512 121.452 26.6597 123.393 25.8274C125.334 24.9872 127.142 23.8678 128.759 22.5047C129.56 21.8208 130.312 21.0826 131.011 20.2953C131.697 19.5034 132.333 18.6687 132.913 17.7964C133.852 16.3519 134.646 14.8191 135.286 13.2198C135.291 13.2082 135.297 13.1974 135.306 13.188L135.893 12.527L136.567 11.7739L134.93 11.3086L135.088 12.2952Z" fill="white"></path></mask><g mask="url(#mask23_1108_693)"><path d="M136.567 11.3066H92.9238V28.0021H136.567V11.3066Z" fill="#D9BB7E"></path></g></svg>