<svg width="26" height="26" viewBox="0 0 26 26" fill="none" xmlns="http://www.w3.org/2000/svg">
<path d="M19.4815 4.76343C18.6757 4.76343 18.0236 5.4169 18.0236 6.22156C18.0236 7.02601 18.6757 7.67831 19.4815 7.67831C20.286 7.67831 20.9385 7.02601 20.9385 6.22156C20.9385 5.4169 20.286 4.76343 19.4815 4.76343Z" fill="white"/>
<path d="M13.0017 6.63379C9.62634 6.63379 6.87939 9.3797 6.87939 12.7552C6.87939 16.1305 9.62634 18.8776 13.0017 18.8776C16.3771 18.8776 19.1242 16.1305 19.1242 12.7552C19.1242 9.3797 16.3771 6.63379 13.0017 6.63379ZM13.0017 16.6768C10.8392 16.6768 9.07996 14.9177 9.07996 12.7552C9.07996 10.5925 10.8392 8.83332 13.0017 8.83332C15.1642 8.83332 16.9233 10.5925 16.9233 12.7552C16.9233 14.9177 15.1642 16.6768 13.0017 16.6768Z" fill="white"/>
<path d="M17.8618 25.1844H7.93767C3.82071 25.1844 0.470337 21.8351 0.470337 17.718V7.79294C0.470337 3.67476 3.82071 0.325439 7.93767 0.325439H17.8618C21.9801 0.325439 25.3292 3.67476 25.3292 7.79294V17.718C25.3292 21.8351 21.9801 25.1844 17.8618 25.1844ZM7.93767 2.66424C5.10971 2.66424 2.80908 4.96496 2.80908 7.79294V17.718C2.80908 20.5459 5.10971 22.8455 7.93767 22.8455H17.8618C20.6897 22.8455 22.9905 20.5459 22.9905 17.718V7.79294C22.9905 4.96496 20.6897 2.66424 17.8618 2.66424H7.93767Z" fill="white"/>
</svg>
