<svg width="28" height="27" viewBox="0 0 28 27" fill="none" xmlns="http://www.w3.org/2000/svg">
<path d="M6.9221 26.3907H1.07656V8.8043H6.9221V26.3907ZM3.99951 6.4028H3.96142C1.99984 6.4028 0.731201 5.05248 0.731201 3.36486C0.731201 1.63914 2.03867 0.326172 4.03833 0.326172C6.03799 0.326172 7.26855 1.63913 7.30664 3.36486C7.30664 5.05248 6.03799 6.4028 3.99951 6.4028ZM27.9998 26.3907H22.155V16.9823C22.155 14.6179 21.3087 13.0054 19.1936 13.0054C17.5789 13.0054 16.6171 14.0931 16.1945 15.1431C16.0399 15.5189 16.0022 16.0441 16.0022 16.5696V26.3907H10.1571C10.1571 26.3907 10.2336 10.4541 10.1571 8.80426H16.0022V11.2943C16.779 10.096 18.1689 8.39151 21.2702 8.39151C25.1161 8.39151 27.9998 10.905 27.9998 16.3067V26.3907Z" fill="white"/>
</svg>
