<svg width="17" height="23" viewBox="0 0 17 23" fill="none" xmlns="http://www.w3.org/2000/svg">
<path d="M8.94917 0C9.18244 0.0292474 9.41743 0.0528703 9.64955 0.0888672C12.7941 0.581011 15.0285 2.26443 16.3172 5.09636C17.1394 6.90239 17.1854 8.78716 16.6355 10.6905C16.1581 12.3424 15.4031 13.8745 14.5344 15.3538C13.0101 17.9495 11.1819 20.3337 9.18876 22.5993C8.71877 23.133 8.26143 23.1341 7.7926 22.5993C5.53346 20.0215 3.4714 17.3072 1.85403 14.2913C1.11459 12.9122 0.46362 11.4903 0.171173 9.94806C-0.403953 6.91814 0.473962 4.32806 2.74804 2.20874C4.09134 0.957853 5.72134 0.273913 7.55703 0.051183C7.71503 0.0320597 7.87361 0.0168735 8.03161 0C8.33727 0 8.64351 0 8.94917 0ZM8.4631 12.5185C10.7791 12.5595 12.7194 10.6922 12.763 8.38163C12.8061 6.07784 10.9107 4.17732 8.52917 4.13626C6.20569 4.09633 4.2683 5.95072 4.21831 8.26127C4.16833 10.5741 6.0655 12.4763 8.46367 12.5185H8.4631Z" fill="white"/>
</svg>
