<svg width="250" height="35" viewBox="0 0 250 35" fill="none" xmlns="http://www.w3.org/2000/svg">
<path d="M240.553 13.4666H244.973C245.607 13.4666 246.12 13.9803 246.12 14.6143V18.9502C246.12 19.5842 245.607 20.0971 244.974 20.0971H240.553C239.919 20.0971 239.406 19.5834 239.406 18.9494V14.6143C239.406 13.9803 239.919 13.4666 240.553 13.4666Z" fill="white"/>
<path d="M107.476 33.7469L97.9108 20.4803C101.734 18.9829 104.226 15.2706 104.164 11.1656C104.164 5.16906 99.0585 0.321782 92.6797 0.321782H83.7513C82.6928 0.319393 81.8334 1.17559 81.8311 2.23409V2.23807V8.10323C87.2175 16.0647 92.4965 23.8127 97.7667 31.6419C98.6516 32.9568 100.133 33.7461 101.719 33.7461L107.476 33.7469ZM88.593 6.95473H92.9314C95.2292 7.02004 97.0769 8.86703 97.1423 11.1656C97.1685 13.4642 95.3263 15.3494 93.0269 15.3765H92.9314H90.4201C89.411 15.3765 88.593 14.5578 88.593 13.5494V6.95473Z" fill="white"/>
<path d="M83.0663 27.114H87.3019C87.9837 27.114 88.5364 27.6668 88.5364 28.3485V32.5626C88.5364 33.2444 87.9837 33.7971 87.3019 33.7971H83.0663C82.3845 33.7971 81.8318 33.2444 81.8318 32.5626V28.3485C81.8318 27.6668 82.3845 27.114 83.0663 27.114Z" fill="white"/>
<path d="M11.966 33.8473C18.7607 33.723 23.4558 30.0155 23.4558 24.2109C23.4558 19.1446 20.1202 16.4294 14.6836 13.8338C10.9792 12.1046 8.50701 11.4882 8.50701 9.51056C8.50701 7.90569 10.3604 6.42188 12.8302 6.42188C14.0496 6.39878 15.2403 6.79542 16.2024 7.5441C17.1853 8.32065 18.5624 8.35649 19.5834 7.63091L22.2229 5.80383C20.7375 1.85018 17.155 0 12.7076 0C6.77868 0 1.96008 3.70355 1.96008 9.38552C1.96008 14.5753 6.03797 16.5505 9.62046 18.4047C13.0787 20.0135 16.9089 21.8629 16.9089 24.3343C16.9089 25.9392 14.9321 27.1761 11.966 27.2988V33.8473Z" fill="white"/>
<path d="M0 30.2697C0.000796463 32.6383 1.92107 34.5578 4.28895 34.5578C6.65763 34.557 8.57791 32.6368 8.57711 30.2681C8.57631 27.9002 6.65684 25.9807 4.28816 25.9807C1.92027 25.9799 0.000796463 27.8994 0 30.2673V30.2697Z" fill="white"/>
<path d="M236.556 27.2152V20.196H236.565V13.4237H236.556V6.90782H247.722C248.964 6.90782 249.971 5.90109 249.971 4.6602V0.266113H232.144C230.841 0.266113 229.784 1.32222 229.784 2.62603V33.8538H249.971V29.4629C249.971 28.222 248.964 27.2152 247.722 27.2152H236.556Z" fill="white"/>
<path d="M187.058 29.5943L188.821 25.9807H182.033L183.708 29.5943L185.381 33.2094L187.058 29.5943Z" fill="white"/>
<path d="M184.805 12.3539C184.391 12.749 184.371 13.4093 184.776 13.8274C185.188 14.2527 185.828 14.2551 186.249 13.8569C186.667 13.4602 186.679 12.8024 186.277 12.385C185.877 11.9677 185.225 11.9533 184.805 12.3539Z" fill="white"/>
<path d="M185.446 0.321777V0.359211L185.408 0.321777L168.67 33.7979H172.448C173.958 33.7979 175.338 32.9473 176.018 31.5989L179.834 24.0181C180.846 22.0087 182.67 20.8777 184.595 20.6236C184.536 20.3735 184.488 20.1203 184.464 19.8598C184.455 19.7682 184.456 19.6766 184.452 19.585C184.449 19.5014 184.491 19.4568 184.572 19.4472C184.601 19.4441 184.631 19.4401 184.66 19.4409C185.181 19.4472 185.701 19.4536 186.221 19.4632C186.281 19.464 186.34 19.4831 186.408 19.4958C186.415 19.5508 186.426 19.5914 186.425 19.6312C186.423 19.9737 186.355 20.3003 186.258 20.6212C188.193 20.8705 190.027 22.0055 191.041 24.0261L194.609 31.1369C195.428 32.7681 197.097 33.7979 198.921 33.7979H202.184L185.446 0.321777ZM188.858 20.1242C188.857 20.2182 188.847 20.3122 188.841 20.4062C188.818 20.4285 188.794 20.4516 188.771 20.4747C188.673 20.4962 188.601 20.4444 188.53 20.3911C188.096 20.0661 187.663 19.7395 187.229 19.4162C187.04 19.276 186.927 19.0928 186.899 18.8603C186.881 18.7193 186.857 18.6914 186.714 18.6898C185.853 18.6779 184.992 18.6659 184.131 18.6548C183.993 18.6532 183.968 18.6779 183.948 18.8133C183.916 19.0211 183.828 19.2019 183.655 19.3262C183.19 19.6591 182.721 19.9864 182.255 20.3178C182.183 20.3688 182.109 20.399 182.02 20.3823L181.979 20.3401C181.97 20.2827 181.95 20.2254 181.951 20.168C181.965 19.0482 181.978 17.9292 181.998 16.8094C182.002 16.5728 182.112 16.3832 182.316 16.2558C182.463 16.1642 182.607 16.0686 182.762 15.9914C182.944 15.9006 183.014 15.7644 183.026 15.5629C183.068 14.7473 183.193 13.9429 183.393 13.1504C183.574 12.432 183.808 11.7335 184.182 11.0892C184.373 10.7602 184.597 10.4568 184.908 10.2258C185.251 9.97172 185.675 9.94942 186.039 10.1724C186.415 10.4026 186.657 10.7515 186.869 11.121C187.165 11.6363 187.366 12.1923 187.526 12.7633C187.803 13.7541 187.941 14.7664 187.969 15.7939C187.972 15.9006 188.014 15.9707 188.104 16.0248C188.257 16.118 188.407 16.2168 188.559 16.3132C188.794 16.4621 188.907 16.6732 188.903 16.9527C188.887 18.0096 188.873 19.0673 188.858 20.1242Z" fill="white"/>
<path d="M33.9572 33.8497H39.4233C40.0573 33.8497 40.5718 33.3352 40.5718 32.7012V27.9551L33.9572 33.8497Z" fill="white"/>
<path d="M117.945 33.8497H123.411C124.045 33.8497 124.56 33.3352 124.56 32.7012V27.9551L117.945 33.8497Z" fill="white"/>
<path d="M205.702 0.410889C203.264 0.410889 201.288 3.22479 201.288 6.69578H210.318V32.8285L216.349 27.3735C216.736 27.0239 216.956 26.5261 216.956 26.0044V6.69578H222.105C224.543 6.69578 227.167 3.88187 227.167 0.410889H205.702Z" fill="white"/>
<path d="M113.299 0.410889C110.861 0.410889 108.885 3.22479 108.885 6.69578H117.916V32.8285L123.946 27.3735C124.333 27.0239 124.554 26.5261 124.554 26.0044V6.69578H129.702C132.14 6.69578 134.765 3.88187 134.765 0.410889H113.299Z" fill="white"/>
<path d="M29.2143 0.410889C26.7763 0.410889 24.8003 3.22479 24.8003 6.69578H33.8306V32.8285L39.8614 27.3735C40.2485 27.0239 40.4691 26.5261 40.4691 26.0044V6.69578H45.6174C48.0554 6.69578 50.6798 3.88187 50.6798 0.410889H29.2143Z" fill="white"/>
<path d="M210.349 33.8497H215.815C216.449 33.8497 216.964 33.3352 216.964 32.7012V27.9551L210.349 33.8497Z" fill="white"/>
<path d="M62.1494 30.1687L60.3796 33.7966H67.1934L65.512 30.1687L63.8331 26.54L62.1494 30.1687Z" fill="white"/>
<path d="M73.0317 31.1171L65.7018 16.5092C64.9181 14.9473 62.6888 14.9457 61.9035 16.506L54.3116 31.5814C53.6283 32.9394 52.2376 33.7964 50.7172 33.7964H46.9141L63.7672 0.0900879L63.8047 0.127522V0.0900879L80.6578 33.7964H77.3732C75.5358 33.7964 73.856 32.7594 73.0317 31.1171Z" fill="white"/>
<path d="M168.191 15.1717H153.067V18.6642C153.067 20.0628 154.201 21.1962 155.599 21.1962H161.428C161.183 25.1315 157.863 27.4667 153.314 27.4667C149.483 27.6069 145.889 25.6205 143.969 22.3032L142.124 23.4095L138.311 25.6213C141.358 30.8087 146.927 33.9921 152.943 33.985C161.427 33.985 168.314 28.0832 168.314 17.8781C168.332 16.9741 168.29 16.0693 168.191 15.1717ZM143.969 11.9755C145.82 8.90753 149.116 7.00398 152.699 6.9339C154.987 6.98487 157.198 7.7662 159.009 9.16479C160.06 9.96205 161.558 9.75576 162.356 8.70443C162.384 8.6678 162.411 8.62957 162.437 8.59134L164.501 5.45646C161.351 2.3383 157.131 0.536706 152.699 0.417236C146.752 0.424405 141.263 3.61424 138.313 8.77771L142.126 10.9903L143.969 11.9755Z" fill="white"/>
<path d="M134.772 17.1398C134.773 19.5164 136.699 21.4431 139.076 21.4423C141.453 21.4423 143.379 19.5148 143.379 17.1382C143.379 14.7615 141.452 12.8357 139.075 12.8357C136.699 12.8349 134.773 14.7607 134.772 17.1374V17.1398Z" fill="white"/>
</svg>
