<svg width="20" height="15" viewBox="0 0 20 15" fill="none" xmlns="http://www.w3.org/2000/svg">
<g clip-path="url(#clip0_384_365)">
<path d="M0 13.4036V4.21674C0.0292176 4.22928 0.061044 4.23763 0.0866095 4.25487C2.79237 6.06028 5.49761 7.86673 8.20285 9.67267C9.382 10.4597 10.6044 10.466 11.7778 9.68311C14.4518 7.90068 17.1242 6.11616 19.797 4.33268C19.8539 4.29456 19.9129 4.25905 19.9953 4.2063V4.36558C19.9953 7.2839 19.9963 10.2027 19.9927 13.1211C19.9927 13.2819 19.9734 13.4475 19.9343 13.6036C19.7183 14.4617 18.993 14.998 18.0529 14.9985C15.3909 15.0001 12.729 14.9985 10.0676 14.9985C7.40615 14.9985 4.65291 14.9975 1.94558 14.9996C1.41549 14.9996 0.949052 14.844 0.559831 14.4747C0.249915 14.1812 0.0960008 13.8078 0 13.4036Z" fill="white"/>
<path d="M0 1.59777C0.0323481 1.486 0.0600005 1.3732 0.0970443 1.26301C0.352177 0.504701 1.03723 0.0153553 1.86784 0.00334357C2.25185 -0.00240116 2.63585 0.00229907 3.01985 0.00229907C8.02494 0.00229907 13.03 0.00334357 18.0346 0.00125458C18.6169 0.00125458 19.1224 0.175163 19.5179 0.614896C20.264 1.44423 20.1304 2.68352 19.2085 3.31126C17.9934 4.1385 16.7647 4.94694 15.5417 5.76321C14.086 6.73459 12.6309 7.7065 11.1747 8.67736C10.3373 9.23564 9.66008 9.23564 8.82373 8.67736C6.25832 6.96595 3.69812 5.24671 1.12436 3.54836C0.575483 3.18592 0.135132 2.77439 0 2.10591C0 1.93618 0 1.76697 0 1.59777Z" fill="white"/>
</g>
<defs>
<clipPath id="clip0_384_365">
<rect width="20" height="15" fill="white"/>
</clipPath>
</defs>
</svg>
