<svg width="82" height="79" viewBox="0 0 82 79" fill="none" xmlns="http://www.w3.org/2000/svg" class="hizmet-icon"><path d="M81.0922 77.939C80.8955 78.2134 80.6308 78.4319 80.3241 78.5731C80.0175 78.7144 79.6794 78.7735 79.343 78.7447C53.5292 78.7281 27.7155 78.724 1.90178 78.7327C0.344681 78.7327 0 78.3828 0 76.8317C0 74.2185 0 71.6046 0 68.9902C0 67.7494 0.421373 67.3297 1.65792 67.3272C2.31626 67.3272 2.97374 67.3272 3.73203 67.3272C3.23163 66.4841 2.86534 65.5684 2.64629 64.6128C2.58368 64.224 2.54941 63.8312 2.54375 63.4374C2.54375 59.2145 2.54375 54.9922 2.54375 50.7704C2.56764 47.4209 3.79774 44.1921 6.00863 41.6758C8.21952 39.1595 11.2631 37.5241 14.5817 37.0693C16.3991 36.8255 18.2173 37.0047 20.0329 36.9185C20.3276 36.9048 20.7731 37.1727 20.9023 36.6678C20.9537 36.4636 20.9379 36.2482 20.8571 36.0537C20.7764 35.8592 20.6351 35.6959 20.4542 35.5881C18.3971 34.0286 16.9371 31.8106 16.3181 29.3045C16.282 28.9359 16.1156 28.5922 15.8489 28.3352C15.5821 28.0782 15.2324 27.9248 14.8626 27.9025C13.6792 27.704 12.6098 27.0778 11.8576 26.1428C11.1055 25.2078 10.7229 24.0291 10.7825 22.8306C10.7782 20.8771 10.7747 18.9245 10.7825 16.971C10.8572 12.8501 12.4178 8.89484 15.1771 5.83313C17.9363 2.77141 21.7085 0.80926 25.7994 0.307762C29.8904 -0.193736 34.0248 0.799167 37.4419 3.10375C40.859 5.40833 43.3287 8.86951 44.3966 12.8503C44.7698 14.1355 44.9658 15.4656 44.9791 16.8038C44.986 18.8363 44.986 20.8688 44.9791 22.9012C45.0056 24.1939 44.5335 25.4473 43.6607 26.4012C42.7879 27.3552 41.5815 27.9366 40.2915 28.0249C40.21 28.0193 40.1283 28.0301 40.0511 28.0567C39.9738 28.0833 39.9028 28.1251 39.842 28.1797C39.7813 28.2342 39.7321 28.3004 39.6974 28.3744C39.6627 28.4483 39.6432 28.5284 39.64 28.61C39.0748 31.4318 37.4955 33.9489 35.2005 35.6854C35.0397 35.7978 34.9201 35.9597 34.8599 36.1464C34.7997 36.3331 34.8022 36.5344 34.8671 36.7195C34.9662 37.1047 35.3617 36.9091 35.6202 36.9168C37.8062 36.8382 39.995 36.9411 42.164 37.2244C42.9498 37.3787 43.7305 36.9048 44.5647 36.9091C50.5561 36.9409 56.5475 36.9246 62.5389 36.9237C66.1288 36.9237 69.7192 36.9237 73.3102 36.9237C74.0043 36.8929 74.6972 37.0064 75.3452 37.2571C75.9932 37.5078 76.5822 37.8901 77.0749 38.38C77.5676 38.8698 77.9533 39.4566 78.2077 40.1031C78.4621 40.7496 78.5796 41.4419 78.5528 42.1361C78.5585 49.5003 78.5629 56.8644 78.5657 64.2285C78.6165 65.2787 78.3913 66.3239 77.9126 67.2599C79.0173 67.5107 80.3253 66.8868 81.094 68.1217L81.0922 77.939ZM57.9788 67.3289H73.0982C75.0267 67.3289 76.028 66.3353 76.028 64.4103C76.028 57.0749 76.028 49.7392 76.028 42.4033C76.028 40.4323 75.0388 39.4482 73.0603 39.4511H44.7965C42.762 39.4511 41.8132 40.4084 41.8132 42.467C41.8132 50.5153 41.8236 58.5636 41.7995 66.6111C41.7995 67.2272 41.9649 67.3435 42.5431 67.3409C47.6883 67.3177 52.8344 67.328 57.9797 67.328M16.1069 67.328C18.5352 67.328 20.9635 67.3099 23.3909 67.3409C23.9519 67.3478 24.107 67.1901 24.0941 66.6343C24.0573 64.9988 24.0573 63.3616 24.0941 61.7226C24.1078 61.1367 23.9579 60.9652 23.353 60.9704C19.8958 61.0023 16.4378 60.9885 12.9807 60.9867C11.9854 60.9867 11.4296 60.5335 11.415 59.7209C11.4003 58.9083 11.957 58.4551 12.966 58.4542C17.0568 58.4542 21.1476 58.4542 25.2384 58.4542C27.5229 58.4249 29.7477 59.1836 31.5383 60.6024C31.8848 60.882 32.3214 61.0257 32.7662 61.0066C34.6663 60.9859 36.5672 60.9678 38.4664 61.0135C39.1213 61.029 39.3014 60.8609 39.2988 60.1923C39.2712 54.2543 39.2902 48.3154 39.2747 42.3774C39.2456 41.588 39.3928 40.8021 39.7055 40.0767C39.9399 39.5743 39.8494 39.439 39.3109 39.4485C38.0967 39.4692 36.88 39.5045 35.6702 39.433C34.9868 39.3925 34.7878 39.6312 34.6801 40.2645C34.3539 41.8485 33.4847 43.2687 32.2227 44.2799C30.9606 45.291 29.385 45.8296 27.7681 45.8025C26.1511 45.7755 24.5944 45.1844 23.3669 44.1316C22.1395 43.0787 21.3183 41.6301 21.0454 40.0362C20.9781 39.726 20.9592 39.4218 20.4887 39.4442C18.6464 39.5304 16.7998 39.3373 14.9574 39.5855C12.2396 39.9453 9.74323 41.2747 7.92765 43.3288C6.11208 45.383 5.09951 48.0238 5.07629 50.7652C5.06164 54.9617 5.07026 59.1582 5.07629 63.3547C5.05298 63.8835 5.14011 64.4114 5.33213 64.9047C5.52416 65.398 5.81685 65.8459 6.19157 66.2198C6.56628 66.5937 7.01479 66.8854 7.5085 67.0764C8.00221 67.2673 8.53029 67.3533 9.05908 67.3289C11.4081 67.3349 13.7571 67.3289 16.1061 67.3289M40.5319 76.1967C52.9599 76.1967 65.388 76.201 77.816 76.2096C78.3899 76.2096 78.5916 76.0976 78.5743 75.4789C78.5267 73.8445 78.5267 72.209 78.5743 70.5723C78.5916 69.9536 78.3839 69.8425 77.8117 69.8433C69.4997 69.8634 61.1881 69.8689 52.8766 69.8597C36.359 69.8597 19.841 69.8545 3.32272 69.8442C2.71953 69.8442 2.4998 69.9674 2.52134 70.6128C2.57046 72.0889 2.53771 73.5676 2.53858 75.0454C2.53858 76.1906 2.53858 76.1924 3.645 76.1924H40.5319M42.3958 18.5565C42.6497 15.8244 42.1176 13.0767 40.8621 10.6369C39.6066 8.19713 37.6799 6.167 35.3091 4.78566C30.1208 1.80848 24.8472 1.90671 19.8519 5.17687C15.1212 8.27124 13.1513 12.8857 13.3107 18.5333C13.8277 18.3609 14.2646 18.1886 14.7179 18.0834C16.2059 17.8776 17.7113 17.8259 19.2099 17.9292C21.693 17.9266 24.1505 17.4269 26.4374 16.4597C28.7243 15.4924 30.7945 14.0771 32.5258 12.2971C33.5116 11.3062 34.1863 11.3329 35.0454 12.4453C36.3027 14.0739 37.553 15.7077 38.8162 17.332C39.0325 17.6104 39.1963 17.9628 39.6685 17.9292C40.6161 17.9088 41.5538 18.1262 42.3958 18.5617M37.3832 23.663C37.3832 22.3075 37.3781 21.2002 37.3832 20.0929C37.4025 19.8054 37.3161 19.5207 37.1402 19.2924C36.0803 17.9464 35.0273 16.5953 33.9993 15.2252C33.7176 14.8503 33.534 14.859 33.1962 15.1588C31.9946 16.2287 30.6717 17.1541 29.2548 17.9163C26.1452 19.6095 22.653 20.4761 19.1126 20.4333C18.5301 20.4273 18.3207 20.5634 18.3586 21.1675C18.4103 21.9818 18.3655 22.8047 18.3758 23.619C18.2917 25.1178 18.3613 26.6213 18.5835 28.1059C19.0995 30.4805 20.5001 32.5697 22.5006 33.9491C24.5012 35.3286 26.9518 35.8948 29.3548 35.5329C31.1893 35.2175 32.8944 34.3808 34.2664 33.1227C35.6383 31.8645 36.6192 30.2381 37.092 28.4377C37.349 26.8585 37.4454 25.2573 37.3798 23.6587M23.4469 37.3511C23.4469 37.9784 23.4254 38.5049 23.4469 39.028C23.478 39.6727 23.6498 40.3029 23.9504 40.8741C24.2509 41.4454 24.6729 41.9439 25.1866 42.3347C25.7004 42.7255 26.2934 42.9991 26.9242 43.1363C27.5549 43.2735 28.2081 43.271 28.8377 43.1288C31.1919 42.5963 32.581 40.5394 32.3138 37.7079C32.2699 37.2417 32.0183 37.4718 31.8287 37.5355C29.0991 38.4631 26.1298 38.3981 23.4435 37.352M29.6831 67.3315C30.581 67.3315 31.478 67.322 32.375 67.3358C32.7387 67.3418 32.8188 67.2186 32.7481 66.8627C32.4167 65.4997 31.7169 64.2541 30.7253 63.262C29.7337 62.2699 28.4884 61.5696 27.1255 61.2375C26.6214 61.1272 26.6085 61.2961 26.6085 61.6753C26.6137 63.3909 26.6214 65.1066 26.5939 66.8213C26.5861 67.2686 26.7662 67.3496 27.1514 67.3384C27.9959 67.3168 28.8403 67.3323 29.6848 67.3323M34.1536 63.5236C34.7385 64.6225 35.1413 65.8089 35.3462 67.0368C35.3875 67.3702 35.6684 67.328 35.9011 67.3297C36.849 67.334 37.7969 67.3185 38.7447 67.3427C39.1497 67.353 39.3048 67.2332 39.291 66.8067C39.2609 65.8855 39.26 64.9626 39.291 64.0415C39.3048 63.6029 39.1187 63.5141 38.7309 63.5184C37.2574 63.5331 35.7848 63.5245 34.1553 63.5245M39.9141 22.9383C39.9141 23.6225 39.9408 24.3084 39.9046 24.9909C39.8787 25.482 40.0476 25.5811 40.4983 25.4631C41.0638 25.3211 41.5647 24.9921 41.9196 24.5295C42.2745 24.067 42.4627 23.498 42.4535 22.915C42.4389 22.3447 42.2313 21.7962 41.8646 21.3592C41.4978 20.9221 40.9937 20.6225 40.4345 20.5091C40.0562 20.4187 39.9011 20.4669 39.9123 20.8857C39.9313 21.569 39.9175 22.2541 39.9175 22.9374M15.8476 23.0236C15.8476 22.3153 15.8312 21.6061 15.8536 20.8986C15.8665 20.485 15.6942 20.41 15.3305 20.4859C14.7629 20.616 14.2554 20.9331 13.8896 21.3863C13.5237 21.8395 13.3208 22.4025 13.3133 22.9848C13.3277 23.5647 13.5338 24.1236 13.8993 24.5739C14.2649 25.0243 14.7694 25.3409 15.334 25.4743C15.714 25.5604 15.8665 25.4846 15.851 25.0736C15.8312 24.392 15.8458 23.7095 15.8433 23.027" fill="#D9BB7E"></path><path d="M65.2532 53.4106C65.2498 54.6611 64.8762 55.8826 64.1796 56.9211C63.483 57.9596 62.4945 58.7686 61.3387 59.2461C60.183 59.7236 58.9118 59.8482 57.6853 59.6043C56.4588 59.3604 55.332 58.7588 54.4469 57.8754C53.5619 56.992 52.9581 55.8664 52.7119 54.6403C52.4656 53.4143 52.5879 52.1429 53.0632 50.9862C53.5385 49.8296 54.3456 48.8396 55.3828 48.141C56.42 47.4424 57.6407 47.0665 58.8912 47.0607C59.7274 47.0545 60.5565 47.2145 61.3303 47.5313C62.1042 47.848 62.8075 48.3153 63.3993 48.9061C63.9911 49.4968 64.4598 50.1991 64.778 50.9724C65.0962 51.7457 65.2578 52.5744 65.2532 53.4106ZM62.7232 53.3916C62.7232 52.6417 62.5012 51.9084 62.0854 51.2843C61.6695 50.6602 61.0783 50.173 60.3862 49.8841C59.6941 49.5953 58.932 49.5176 58.1958 49.661C57.4596 49.8043 56.7823 50.1622 56.2491 50.6897C55.716 51.2171 55.3507 51.8905 55.1994 52.6251C55.0481 53.3597 55.1175 54.1226 55.3989 54.8178C55.6802 55.513 56.161 56.1094 56.7806 56.532C57.4002 56.9546 58.1309 57.1845 58.8809 57.1926C59.8938 57.1961 60.8669 56.798 61.587 56.0856C62.3072 55.3733 62.7157 54.4046 62.7232 53.3916Z" fill="#D9BB7E"></path></svg>