<svg width="18" height="20" viewBox="0 0 18 20" fill="none" xmlns="http://www.w3.org/2000/svg">
<g clip-path="url(#clip0_384_429)">
<path d="M12.0904 20C11.8253 19.9558 11.5602 19.9168 11.2963 19.8647C10.2159 19.6526 9.22459 19.205 8.28985 18.6169C6.82618 17.6957 5.57735 16.5116 4.42903 15.2092C3.25684 13.8794 2.19144 12.4651 1.35344 10.8803C0.734047 9.70922 0.259139 8.48224 0.0794787 7.15116C-0.12154 5.66134 0.0493259 4.23138 0.7642 2.9003C1.14111 2.19898 1.63235 1.59654 2.24169 1.0969C2.53191 0.858791 2.80203 0.593356 3.09225 0.355245C3.70662 -0.146999 4.37124 -0.120976 4.92153 0.460638C5.23562 0.792432 5.5271 1.15806 5.77837 1.5432C6.24825 2.26403 6.73321 2.98097 7.00961 3.81631C7.29481 4.67897 7.18173 5.44795 6.50581 6.07381C6.16407 6.38999 5.82109 6.71007 5.44543 6.97941C4.64387 7.55321 4.52828 8.26104 4.83107 9.16924C5.10998 10.0046 5.5962 10.7189 6.11884 11.4033C6.80105 12.2985 7.52975 13.1521 8.38785 13.8755C8.8615 14.275 9.36028 14.6354 9.97213 14.7824C10.5061 14.9099 10.9609 14.7668 11.3566 14.3791C11.7486 13.9939 12.1356 13.6036 12.5477 13.2431C13.2211 12.655 13.9624 12.6368 14.7262 13.0389C14.9775 13.1716 15.2288 13.316 15.4474 13.4956C16.2351 14.1409 17.0455 14.7642 17.6523 15.6125C18.1536 16.3139 18.1147 16.9918 17.4928 17.5773C16.891 18.1446 16.3206 18.7561 15.5969 19.1764C14.8581 19.6058 14.0754 19.879 13.2311 19.9649C13.1759 19.9701 13.1218 19.9896 13.0678 20.0013H12.0866L12.0904 20Z" fill="white"/>
</g>
<defs>
<clipPath id="clip0_384_429">
<rect width="18" height="20" fill="white"/>
</clipPath>
</defs>
</svg>
