<svg width="76" height="69" viewBox="0 0 76 69" fill="none" xmlns="http://www.w3.org/2000/svg" class="hizmet-icon"><mask id="mask0_1108_683" style="mask-type:luminance" maskUnits="userSpaceOnUse" x="0" y="0" width="76" height="69"><path d="M75.6693 0.776855H0.701172V68.3182H75.6693V0.776855Z" fill="white"></path></mask><g mask="url(#mask0_1108_683)"><path d="M70.0488 52.6125C70.7724 54.9603 71.4698 57.225 72.1688 59.4889C72.7653 61.4226 73.3719 63.3531 73.9546 65.2914C74.0647 65.6571 74.1648 65.8818 74.6266 65.9326C74.7777 65.948 74.9242 65.993 75.0578 66.0651C75.1914 66.1372 75.3095 66.2349 75.4053 66.3527C75.5011 66.4704 75.5728 66.6059 75.6161 66.7514C75.6595 66.8969 75.6738 67.0495 75.6581 67.2005C75.626 67.5029 75.4831 67.7827 75.257 67.9861C75.0309 68.1895 74.7375 68.302 74.4334 68.302C74.2579 68.3136 74.0809 68.302 73.9046 68.302H2.72068C2.39388 68.3231 2.06591 68.3177 1.73999 68.2858C1.46049 68.2576 1.20124 68.1272 1.0119 67.9197C0.822557 67.7122 0.716442 67.4421 0.713883 67.1612C0.688629 67.0227 0.692192 66.8805 0.72435 66.7434C0.756509 66.6063 0.816573 66.4774 0.900793 66.3645C0.985014 66.2517 1.09158 66.1575 1.21385 66.0876C1.33612 66.0178 1.47147 65.974 1.61144 65.9588C2.24265 65.9149 2.30423 65.5701 2.44433 65.1282C3.70163 61.0443 4.96559 56.9622 6.23623 52.8819C6.24636 52.8053 6.24636 52.7276 6.23623 52.651C5.40556 52.6607 4.57557 52.5996 3.75525 52.4686C2.89398 52.2134 2.13546 51.6924 1.58822 50.9801C1.04098 50.2678 0.733054 49.4006 0.708495 48.5027C0.698745 43.902 0.698745 39.3014 0.708495 34.7007C0.708495 33.8432 1.09877 33.3513 1.85853 33.3151C5.64889 33.1427 9.34303 33.5137 12.7447 35.3765C15.2746 36.6927 17.457 38.5891 19.1132 40.9107C20.7695 43.2323 21.8525 45.9131 22.2737 48.7336C22.3944 49.5536 22.4548 50.3812 22.4546 51.21C22.4857 51.3983 22.472 51.5914 22.4147 51.7735C22.3574 51.9556 22.258 52.1216 22.1246 52.2582C21.9912 52.3947 21.8275 52.498 21.6468 52.5595C21.4661 52.6211 21.2734 52.6392 21.0844 52.6125C19.7026 52.6248 18.3217 52.6125 16.8591 52.6125C17.4849 54.6693 18.0838 56.65 18.6919 58.6283C19.3678 60.826 20.0698 63.016 20.7187 65.2206C20.7337 65.3287 20.7703 65.4327 20.8266 65.5263C20.8828 65.6198 20.9575 65.701 21.046 65.7649C21.1345 65.8287 21.235 65.874 21.3415 65.898C21.448 65.9219 21.5582 65.924 21.6655 65.9042C24.1334 65.8739 26.6018 65.8739 29.0708 65.9042C29.6258 65.9111 29.7682 65.7271 29.7266 65.2175C29.6881 64.7426 29.7189 64.263 29.7204 63.785C29.7243 62.6973 30.1369 62.2747 31.2084 62.2701C32.1152 62.2701 33.0235 62.2431 33.9288 62.2808C34.4245 62.3016 34.5677 62.1515 34.5662 61.6504C34.5487 57.2258 34.551 52.8014 34.5731 48.3772C34.5731 47.8214 34.3283 47.7799 33.8926 47.7814C31.0214 47.7922 28.1493 47.7883 25.2781 47.7853C24.0911 47.7853 23.6823 47.3819 23.6785 46.2219C23.6754 45.2165 23.6754 44.211 23.6785 43.2051C23.6823 42.1759 24.1049 41.7564 25.1495 41.7549C28.8021 41.7549 32.4547 41.7372 36.1065 41.7695C36.7754 41.7757 36.994 41.6386 36.9917 40.9228C36.9645 32.5764 36.9645 24.23 36.9917 15.8836C36.9917 15.1731 36.6538 15.2047 36.168 15.2054C26.4956 15.2111 16.8221 15.2136 7.14764 15.2131C6.91162 15.2513 6.66998 15.2341 6.44172 15.1631C6.21345 15.092 6.00477 14.969 5.8321 14.8036C5.69119 14.6488 5.59307 14.46 5.54743 14.2557C5.50179 14.0514 5.51019 13.8387 5.57182 13.6387C5.63345 13.4387 5.74617 13.2581 5.89887 13.115C6.05156 12.9718 6.23894 12.8709 6.44253 12.8222C9.38973 11.6824 12.3405 10.5499 15.2949 9.42445C22.6724 6.59682 30.0478 3.7638 37.4212 0.925394C37.6749 0.82337 37.9464 0.773126 38.2198 0.777621C38.4932 0.782116 38.7629 0.841258 39.0131 0.951566C45.1826 3.33119 51.3554 5.70337 57.5315 8.06811C61.578 9.62202 65.6236 11.1793 69.6685 12.7399C70.5853 13.0932 70.9518 13.5912 70.8117 14.2525C70.6716 14.9137 70.1658 15.2093 69.1559 15.2093C59.584 15.2093 50.0132 15.2111 40.4434 15.2147C39.1802 15.2147 39.398 15.1061 39.3972 16.2439C39.3903 24.4897 39.3972 32.7355 39.3788 40.9813C39.3788 41.5971 39.5189 41.7818 40.1562 41.7764C43.7834 41.7456 47.4106 41.7618 51.0377 41.7633C52.3048 41.7633 52.692 42.1544 52.6928 43.426C52.6928 44.4067 52.6989 45.3874 52.6928 46.3674C52.6866 47.3473 52.2424 47.7853 51.254 47.7876C48.3574 47.7953 45.4607 47.8045 42.5641 47.7814C41.996 47.7768 41.7943 47.9007 41.7943 48.5235C41.8246 52.8722 41.8259 57.2214 41.7982 61.5711C41.7982 62.1161 41.9067 62.3247 42.4963 62.2909C43.4255 62.237 44.36 62.2655 45.2914 62.2801C45.474 62.2595 45.659 62.2804 45.8324 62.341C46.0059 62.4017 46.1635 62.5007 46.2935 62.6306C46.4235 62.7606 46.5226 62.9181 46.5834 63.0915C46.6442 63.265 46.6651 63.4499 46.6446 63.6326C46.6539 64.2107 46.6608 64.7872 46.6446 65.3669C46.6323 65.7279 46.7039 65.9057 47.1335 65.9057C49.7507 65.8872 52.3725 65.8911 54.9921 65.9057C55.0587 65.9148 55.1264 65.9106 55.1914 65.8933C55.2564 65.876 55.3173 65.8461 55.3706 65.8051C55.4239 65.7642 55.4686 65.7131 55.5021 65.6548C55.5355 65.5965 55.5571 65.5321 55.5655 65.4654C56.8095 61.3989 58.0668 57.3363 59.3374 53.2776C59.4968 52.768 59.4544 52.5848 58.8555 52.6087C57.7009 52.6541 56.5385 52.6287 55.38 52.621C54.357 52.6148 53.9175 52.1676 53.9175 51.1515C53.8851 43.2452 59.5068 36.0747 67.3954 33.9147C69.7231 33.3778 72.1163 33.1813 74.5004 33.3313C74.6594 33.3281 74.8173 33.3581 74.9641 33.4192C75.1109 33.4804 75.2434 33.5714 75.3531 33.6865C75.4629 33.8016 75.5475 33.9383 75.6016 34.0878C75.6557 34.2374 75.6781 34.3965 75.6674 34.5552C75.6766 39.2816 75.702 44.008 75.6527 48.7336C75.5784 49.76 75.1287 50.7231 74.3893 51.4389C73.6499 52.1547 72.6728 52.573 71.6445 52.6141C71.1457 52.6318 70.6438 52.6141 70.0596 52.6141M62.6805 12.7853L62.7036 12.6475C62.1355 12.4312 61.5659 12.2164 60.9986 11.9986C53.5857 9.15298 46.1735 6.30431 38.7622 3.45256C38.567 3.37572 38.3583 3.33885 38.1486 3.34414C37.9389 3.34943 37.7324 3.39677 37.5413 3.48335C30.2162 6.30225 22.889 9.11731 15.5597 11.9285C14.8676 12.1183 14.2065 12.4068 13.5968 12.7853H62.6805ZM12.2204 50.2077C14.5883 50.2077 16.9553 50.2008 19.3231 50.2139C19.765 50.2139 19.9921 50.207 19.9235 49.6173C19.8281 48.7211 19.6508 47.8355 19.3939 46.9716C18.3973 43.6334 16.324 40.7188 13.4974 38.6823C10.6707 36.6459 7.24961 35.6021 3.76757 35.7137C3.22873 35.7237 3.10172 35.8908 3.10403 36.4065C3.12327 40.3023 3.11249 44.1989 3.1148 48.0955C3.1148 49.5011 3.83197 50.2049 5.26632 50.207C7.58333 50.2116 9.90034 50.2116 12.2174 50.207M64.1685 50.207C66.5086 50.207 68.8487 50.207 71.1888 50.207C71.459 50.2387 71.7328 50.2102 71.9906 50.1235C72.2484 50.0369 72.4838 49.8942 72.6798 49.7057C72.8759 49.5172 73.0278 49.2876 73.1246 49.0334C73.2213 48.7792 73.2606 48.5068 73.2395 48.2356C73.2503 44.2682 73.2395 40.3 73.2588 36.3326C73.2588 35.8099 73.0732 35.7214 72.606 35.7168C70.9488 35.7028 69.2972 35.9114 67.6956 36.3372C61.8038 37.8814 56.9519 43.6016 56.4246 49.5927C56.3761 50.1392 56.5154 50.2193 56.9981 50.2154C59.3882 50.1962 61.7784 50.207 64.1685 50.2085M64.7712 65.8965V65.8995C66.835 65.8995 68.8995 65.8872 70.9633 65.9088C71.4729 65.9142 71.603 65.8233 71.4344 65.2883C70.1725 61.2825 68.9329 57.2691 67.7156 53.2483C67.7023 53.1462 67.668 53.0479 67.615 52.9596C67.562 52.8712 67.4914 52.7947 67.4076 52.7349C67.3237 52.675 67.2285 52.6331 67.1277 52.6116C67.027 52.5902 66.9229 52.5897 66.8219 52.6102C65.4635 52.6405 64.1036 52.6405 62.7421 52.6102C62.6411 52.5898 62.5369 52.5903 62.436 52.6118C62.3352 52.6333 62.2398 52.6752 62.1558 52.7351C62.0718 52.7949 62.001 52.8713 61.9477 52.9596C61.8945 53.0479 61.8599 53.1462 61.8461 53.2483C60.6355 57.2691 59.3982 61.2809 58.1343 65.2837C57.9803 65.7779 58.0319 65.9157 58.5823 65.908C60.646 65.8788 62.7098 65.8965 64.7743 65.8965M4.7829 65.8526C4.89902 65.8736 5.0162 65.8882 5.13392 65.8965C9.3615 65.8965 13.5891 65.8895 17.8167 65.9119C18.3755 65.9119 18.3555 65.7248 18.2285 65.3053C16.9707 61.2717 15.7244 57.2345 14.4897 53.1937C14.4788 53.1032 14.4497 53.0159 14.404 52.9371C14.3583 52.8582 14.297 52.7895 14.224 52.735C14.1509 52.6806 14.0675 52.6416 13.9788 52.6204C13.8902 52.5992 13.7982 52.5963 13.7084 52.6117C12.2997 52.6379 10.8895 52.6402 9.48082 52.6117C8.99047 52.601 8.79572 52.7618 8.65485 53.2368C7.94512 55.6323 7.18536 58.0094 6.44869 60.4003C5.89137 62.2085 5.34252 64.0182 4.78213 65.8549M36.9717 54.9495C36.9717 56.8309 36.9717 58.7122 36.9717 60.5935C36.9717 62.2808 36.9717 62.247 38.6329 62.2962C39.2887 62.3155 39.4072 62.0899 39.4026 61.4941C39.3803 57.506 39.3957 53.5178 39.3949 49.5296C39.3949 47.7476 39.3911 47.7706 37.6145 47.7799C37.0648 47.7799 36.954 47.9785 36.9594 48.4788C36.9832 50.6342 36.9694 52.7896 36.9701 54.9503M38.1025 45.3813C41.9308 45.3813 45.7589 45.3813 49.5867 45.3813C49.9924 45.3813 50.2972 45.4105 50.2934 44.817C50.2934 44.2559 50.0863 44.1589 49.5906 44.1596C41.9847 44.172 34.3788 44.172 26.773 44.1596C26.2757 44.1596 26.0802 44.2597 26.0686 44.8163C26.0594 45.4121 26.3658 45.3782 26.7684 45.3774C30.5464 45.3713 34.3242 45.3713 38.1017 45.3774M38.1787 64.6848C36.3944 64.6848 34.61 64.6972 32.8265 64.6772C32.3507 64.6718 32.1044 64.7333 32.1106 65.313C32.116 65.8603 32.3477 65.9019 32.788 65.9003C36.3802 65.888 39.9725 65.888 43.5648 65.9003C44.0066 65.9003 44.2368 65.8611 44.2445 65.3091C44.2522 64.7226 43.9997 64.6687 43.5278 64.6741C41.7443 64.6933 39.9599 64.6818 38.1756 64.6825" fill="#D9BB7E"></path></g></svg>