<svg width="76" height="76" viewBox="0 0 76 76" fill="none" xmlns="http://www.w3.org/2000/svg" class="hizmet-icon"><mask id="mask0_1108_514" style="mask-type:luminance" maskUnits="userSpaceOnUse" x="0" y="0" width="76" height="76"><path d="M75.6226 0.776855H0.572266V75.8294H75.6226V0.776855Z" fill="white"></path></mask><g mask="url(#mask0_1108_514)"><path d="M0.572266 57.3612C0.789709 57.1361 1.05658 56.9647 1.35173 56.8606C1.64689 56.7565 1.96223 56.7225 2.27279 56.7614C4.39695 56.7929 6.52111 56.7659 8.64601 56.7794C9.03397 56.7954 9.41494 56.6726 9.72046 56.433C11.9581 54.7385 14.4087 53.3452 17.0092 52.2889C17.1488 52.2012 17.306 52.1453 17.4697 52.1251C17.6333 52.105 17.7994 52.121 17.9561 52.1722C18.1129 52.2233 18.2565 52.3083 18.3767 52.4211C18.497 52.5339 18.5909 52.6718 18.652 52.825C18.9084 53.4323 18.646 53.9782 17.8722 54.3021C15.2107 55.4053 12.7111 56.8645 10.4418 58.6396C10.107 58.8872 9.69496 59.0074 9.27959 58.9785C7.30164 58.9665 5.32369 58.9838 3.34574 58.9628C2.91086 58.9583 2.75641 59.0655 2.75866 59.5281C2.77665 63.2641 2.77665 67 2.75866 70.736C2.75866 71.2001 2.90861 71.3148 3.34424 71.3096C4.95554 71.2901 6.56834 71.3096 8.17889 71.2998C10.5257 71.2878 12.8448 71.6297 15.1752 71.8247C17.5055 72.0196 19.8351 72.2453 22.1655 72.4567C25.3693 72.7469 28.5919 72.9014 31.7726 73.3565C37.5122 74.176 42.8402 72.9816 47.9898 70.5313C51.7807 68.728 55.4037 66.6151 59.0919 64.6222C59.2884 64.4757 59.5231 64.3894 59.7677 64.374C60.0122 64.3586 60.256 64.4146 60.4693 64.5352C60.6493 64.6421 60.7925 64.8012 60.8801 64.9913C60.9677 65.1814 60.9954 65.3937 60.9597 65.5999C60.9421 65.7711 60.8813 65.9351 60.7831 66.0765C60.6849 66.2178 60.5524 66.332 60.3981 66.4082C55.2125 69.2004 50.1867 72.3173 44.585 74.2697C42.5525 75.0206 40.4306 75.5028 38.2732 75.7041C38.1588 75.7308 38.0489 75.7743 37.9471 75.8331H34.573C34.0894 75.6656 33.5756 75.6035 33.0659 75.6509C30.0121 75.3509 26.9559 75.0825 23.8998 74.8043C21.3505 74.5727 18.8072 74.3365 16.2601 74.1153C13.8826 73.9091 11.5065 73.6474 9.12438 73.5439C6.884 73.4465 4.63538 73.5042 2.39126 73.5342C2.05924 73.5815 1.72073 73.5484 1.40419 73.4376C1.08764 73.3268 0.802337 73.1416 0.572266 72.8976L0.572266 57.3612Z" fill="#D9BB7E"></path><path d="M54.1429 47.8717C54.6715 47.5898 55.1859 47.3221 55.6942 47.0469C58.335 45.6073 60.7928 46.672 61.5374 49.5962C61.6288 49.9583 61.7623 49.8886 61.9872 49.7731C62.6785 49.4117 63.3684 49.0473 64.0642 48.6942C64.5865 48.3872 65.1745 48.2091 65.7794 48.1747C66.3843 48.1404 66.9887 48.2507 67.5425 48.4967C68.0962 48.7426 68.5833 49.117 68.9634 49.5888C69.3435 50.0607 69.6057 50.6163 69.7281 51.2097C69.8225 51.5794 69.8615 51.6694 70.2717 51.5741C71.2856 51.2917 72.3687 51.3997 73.3069 51.8768C74.2451 52.3539 74.9704 53.1654 75.3395 54.1511C75.7087 55.1368 75.6948 56.2251 75.3007 57.2011C74.9066 58.1771 74.1609 58.9699 73.2109 59.4229C70.3232 61.004 67.4337 62.5816 64.5425 64.1556C64.3405 64.3163 64.0904 64.4047 63.8323 64.4069C63.5741 64.4091 63.3227 64.3249 63.1179 64.1676C62.9414 64.034 62.811 63.8486 62.745 63.6373C62.679 63.4259 62.6807 63.1993 62.7498 62.989C62.8592 62.5308 63.2589 62.3599 63.6218 62.1642C66.4915 60.6006 69.3609 59.0368 72.2301 57.4727C72.6336 57.287 72.9659 56.9754 73.1771 56.5846C73.3883 56.1939 73.467 55.7451 73.4013 55.3058C73.3314 54.867 73.118 54.4637 72.7944 54.1591C72.4708 53.8545 72.0553 53.6658 71.6131 53.6226C71.1006 53.588 70.5909 53.7217 70.1615 54.0035C66.2213 56.1479 62.3914 58.5022 58.35 60.4517C54.2734 62.3951 49.8636 63.5433 45.3569 63.8347C41.9933 63.9781 38.6239 63.7834 35.2992 63.2536C33.8746 63.0729 32.444 62.923 31.0156 62.7693C30.1804 62.6793 29.6615 62.2482 29.6585 61.6138C29.6555 60.9795 30.0904 60.5866 30.9332 60.4607C31.3658 60.3962 31.8022 60.3504 32.2363 60.2957C35.2305 59.9178 38.2244 59.5399 41.218 59.162C43.7043 58.8509 46.1891 58.5247 48.68 58.2488C50.1983 58.0801 50.9698 57.3603 50.8723 56.0744C50.8579 55.6425 50.6818 55.2318 50.379 54.9235C50.0761 54.6153 49.6686 54.432 49.237 54.4098C48.7272 54.3671 48.2121 54.3814 47.6992 54.3806C43.4504 54.3776 39.2016 54.3776 34.9528 54.3806C34.4172 54.3776 33.8865 54.2799 33.385 54.0919C29.8259 52.7785 25.9856 52.4166 22.2438 53.0422C21.9461 53.1142 21.6322 53.0695 21.3663 52.9174C21.1005 52.7653 20.9028 52.5173 20.814 52.2242C20.779 52.0692 20.7782 51.9085 20.8116 51.7531C20.8451 51.5978 20.912 51.4516 21.0077 51.3248C21.1034 51.198 21.2256 51.0936 21.3658 51.0188C21.506 50.944 21.6608 50.9007 21.8194 50.8918C25.7943 50.1842 29.8847 50.5201 33.6909 51.8666C33.8782 51.9373 34.0793 51.964 34.2786 51.9446C34.4779 51.9253 34.6701 51.8603 34.8403 51.7548C39.1539 49.4807 43.5259 47.3108 47.7697 44.9145C50.6347 43.2972 53.6271 44.6716 54.1474 47.8589M40.4263 61.4729C40.4881 61.5483 40.5681 61.6068 40.6587 61.643C40.7493 61.6792 40.8476 61.6918 40.9444 61.6798C46.0423 61.9635 51.139 61.0992 55.8585 59.1508C59.6719 57.5635 63.1419 55.3216 66.7589 53.3601C66.947 53.2589 67.1128 53.121 67.2465 52.9544C67.3802 52.7879 67.4791 52.5962 67.5373 52.3907C67.5955 52.1852 67.6118 51.9701 67.5852 51.7582C67.5587 51.5463 67.4898 51.3419 67.3827 51.1571C67.2756 50.9723 67.1325 50.811 66.9618 50.6826C66.7912 50.5542 66.5964 50.4614 66.3892 50.4097C66.182 50.358 65.9665 50.3485 65.7555 50.3818C65.5446 50.415 65.3424 50.4903 65.1611 50.6032C61.2517 52.6418 57.3535 54.703 53.4494 56.7514C53.3407 56.7989 53.2439 56.8699 53.1661 56.9594C53.0883 57.0489 53.0314 57.1546 52.9995 57.2688C52.3899 59.2932 50.9406 60.211 48.9011 60.4329C46.0977 60.7388 43.3025 61.1167 40.4285 61.4729M39.1051 52.003L39.1681 52.18C41.4512 52.18 43.7343 52.1845 46.0175 52.1717C46.2106 52.1528 46.3967 52.0891 46.561 51.9858C48.0194 51.1992 49.4717 50.403 50.9286 49.6134C51.2581 49.4499 51.5286 49.1879 51.7024 48.8636C51.8636 48.5461 51.9204 48.1857 51.8648 47.8339C51.8092 47.4821 51.644 47.1568 51.3927 46.9044C51.129 46.6281 50.7775 46.4519 50.3984 46.4058C50.0192 46.3597 49.6358 46.4466 49.3135 46.6518C46.825 47.9384 44.3462 49.2445 41.8651 50.5454C40.9436 51.029 40.0251 51.5201 39.1059 52.006M50.4352 52.3914C51.2996 52.728 52.0249 53.3468 52.4934 54.1474C52.7041 54.5471 52.8923 54.5883 53.2799 54.3784C54.9924 53.4501 56.7207 52.5519 58.4415 51.6409C58.6866 51.5298 58.8995 51.3581 59.0601 51.1421C59.2206 50.9261 59.3236 50.6728 59.3592 50.406C59.4131 50.1282 59.3857 49.8407 59.2804 49.5781C59.175 49.3155 58.9963 49.0888 58.7654 48.9251C58.5253 48.7344 58.2324 48.6218 57.9263 48.6026C57.6203 48.5835 57.3157 48.6586 57.0536 48.8179C54.8972 49.9906 52.7348 51.1513 50.4232 52.3989" fill="#D9BB7E"></path><path d="M59.7768 8.64054C58.1842 6.94676 56.6846 5.35271 55.1873 3.7564C55.0201 3.57795 54.8874 3.56071 54.7067 3.75265C53.2109 5.35346 51.7075 6.94826 50.2244 8.52657C50.3361 8.78075 50.5079 8.69003 50.6361 8.70802C50.809 8.70479 50.9806 8.73884 51.1392 8.80788C51.2978 8.87691 51.4396 8.9793 51.5551 9.10808C51.6706 9.23685 51.757 9.38899 51.8084 9.55414C51.8598 9.7193 51.875 9.89358 51.853 10.0651C51.862 14.264 51.862 18.465 51.853 22.6684C51.853 23.4669 51.4233 23.952 50.7673 23.9685C50.049 23.9865 49.6426 23.5434 49.6426 22.6669C49.6358 19.0521 49.6238 15.4366 49.6613 11.8227C49.6688 11.1066 49.4514 10.8479 48.7526 10.9229C48.338 10.9449 47.9225 10.9449 47.5079 10.9229C47.288 10.931 47.0707 10.8723 46.8847 10.7547C46.6987 10.637 46.5526 10.4659 46.4657 10.2636C46.3787 10.0615 46.355 9.83768 46.3975 9.62173C46.4401 9.40578 46.547 9.20776 46.7042 9.05367C47.5684 8.12443 48.4339 7.19644 49.3007 6.2697C50.8677 4.59867 52.4396 2.92888 54.0161 1.26035C54.1175 1.11206 54.2534 0.990566 54.412 0.906277C54.5706 0.821988 54.7473 0.777418 54.927 0.776386C55.1066 0.775354 55.2838 0.81789 55.4434 0.900351C55.603 0.982812 55.7403 1.10274 55.8434 1.24985C58.2787 3.82014 60.7075 6.39642 63.1298 8.9787C63.3071 9.13029 63.4329 9.33325 63.4897 9.55946C63.5465 9.78568 63.5316 10.024 63.447 10.2413C63.358 10.4714 63.1942 10.6649 62.9818 10.7904C62.7695 10.916 62.521 10.9663 62.2766 10.9334C61.8372 10.9244 61.3926 10.9656 60.9584 10.9139C60.3519 10.8389 60.2304 11.0984 60.2311 11.6577C60.2431 20.0354 60.2431 28.413 60.2311 36.7907C60.2311 37.7924 60.2371 38.7934 60.2266 39.7951C60.2176 40.6843 59.8278 41.0795 58.9243 41.0817C56.262 41.0887 53.5997 41.0862 50.9375 41.0742C50.0377 41.0697 49.6441 40.6798 49.6418 39.7711C49.6323 35.6922 49.6323 31.6134 49.6418 27.5345C49.6418 26.6648 50.0677 26.1849 50.75 26.2036C51.4098 26.2246 51.8492 26.7532 51.8515 27.5863C51.8597 31.0788 51.8747 34.5721 51.8432 38.0646C51.8372 38.7259 51.9932 38.9351 52.6792 38.9088C54.2163 38.8511 55.7571 38.8579 57.2942 38.9088C57.9263 38.9291 58.05 38.7124 58.0485 38.1313C58.0325 28.9234 58.029 19.7152 58.038 10.5068C58.038 9.11141 58.2749 8.83474 59.776 8.64054" fill="#D9BB7E"></path><path d="M32.7935 29.8434C32.7935 26.5721 32.7808 23.3007 32.8048 20.0302C32.8093 19.4348 32.651 19.1821 32.0272 19.2504C31.5931 19.2984 31.1485 19.2429 30.7098 19.2631C30.4903 19.2902 30.2677 19.2467 30.0746 19.1389C29.8814 19.031 29.7276 18.8644 29.6354 18.6633C29.525 18.4559 29.4859 18.218 29.5239 17.9862C29.562 17.7544 29.6752 17.5416 29.8461 17.3804C30.6079 16.5556 31.3817 15.7443 32.1509 14.9271C33.7725 13.2036 35.3943 11.4803 37.0163 9.75727C37.8254 8.89951 38.357 8.89576 39.1562 9.74377C41.4486 12.1781 43.7405 14.6129 46.0318 17.0482C46.4682 17.5101 46.8731 17.9682 46.5567 18.6535C46.2658 19.2759 45.6937 19.2661 45.1163 19.2639C43.3918 19.2564 43.3963 19.2639 43.3956 20.9621C43.3956 27.1604 43.3933 33.3609 43.3888 39.5637C43.3888 40.7634 43.0731 41.088 41.884 41.0895C39.3452 41.093 36.8064 41.093 34.2676 41.0895C33.1497 41.0895 32.8033 40.7259 32.8033 39.5899C32.8033 36.3408 32.8033 33.094 32.8033 29.8494L32.7935 29.8434ZM42.7935 16.9845C42.786 16.938 42.7935 16.8758 42.7695 16.8473C41.3089 15.2727 39.8378 13.7117 38.3877 12.1296C38.0555 11.7667 37.9078 12.0239 37.7054 12.2406C36.4882 13.5402 35.2696 14.8399 34.0494 16.1395C33.796 16.4094 33.5388 16.6771 33.2321 16.9995C34.7857 17.1772 34.9956 17.4164 34.9949 18.8582C34.9949 25.3012 35.0031 31.7434 34.9792 38.1863C34.9792 38.7749 35.1291 38.9234 35.7019 38.9091C37.263 38.8709 38.8263 38.8634 40.3866 38.9129C41.0255 38.9331 41.2062 38.7719 41.2039 38.1151C41.1762 31.7216 41.1859 25.3274 41.1837 18.934C41.1837 17.4344 41.3471 17.2289 42.7935 16.9845Z" fill="#D9BB7E"></path><path d="M15.9408 33.6153C15.9408 31.5653 15.9221 29.5147 15.9536 27.467C15.9611 26.9639 15.8036 26.8281 15.3342 26.8589C14.8484 26.8911 14.3595 26.8664 13.8706 26.8656C13.6371 26.884 13.4037 26.8276 13.2043 26.7045C13.005 26.5814 12.85 26.3981 12.7617 26.1811C12.6704 25.9784 12.6436 25.7525 12.6849 25.534C12.7262 25.3156 12.8336 25.1151 12.9926 24.9597C15.4669 22.3294 17.9315 19.6939 20.4156 17.0771C20.9442 16.5208 21.6032 16.5905 22.1978 17.2188C24.4632 19.6137 26.7226 22.0107 28.9759 24.4101C29.1431 24.5878 29.3253 24.7535 29.4768 24.9432C29.6369 25.0953 29.7476 25.292 29.7947 25.5077C29.8417 25.7235 29.8229 25.9484 29.7407 26.1533C29.6532 26.3699 29.5009 26.5542 29.3047 26.6811C29.1085 26.8079 28.878 26.871 28.6445 26.8619C28.2546 26.8694 27.864 26.8619 27.4733 26.8619C26.5421 26.8619 26.5451 26.8619 26.5459 27.8231C26.5459 31.7035 26.5459 35.584 26.5459 39.4644C26.5459 40.7885 26.2459 41.0839 24.9068 41.0839C22.466 41.0839 20.0254 41.0839 17.5851 41.0839C16.21 41.0839 15.9393 40.799 15.9393 39.3969C15.9393 37.4689 15.9393 35.541 15.9393 33.613L15.9408 33.6153ZM16.3569 24.5938C17.96 24.7677 18.1497 24.9882 18.1497 26.475C18.1497 30.3567 18.1699 34.2383 18.1325 38.1193C18.1257 38.7941 18.3281 38.9245 18.9512 38.9065C20.4878 38.861 22.0254 38.861 23.5639 38.9065C24.1638 38.923 24.3482 38.7798 24.3445 38.1567C24.3197 34.2511 24.34 30.3447 24.3445 26.439C24.3445 25.0189 24.5349 24.7992 25.9153 24.6335C25.9423 24.6335 25.961 24.5585 26.0083 24.4753C24.5492 22.9217 23.0841 21.3562 21.6077 19.7981C21.4578 19.6377 21.3011 19.3677 21.0199 19.6662C19.5031 21.2752 17.981 22.8805 16.3577 24.5968" fill="#D9BB7E"></path></g></svg>