<svg width="164" height="12" viewBox="0 0 164 12" fill="none" xmlns="http://www.w3.org/2000/svg">
<path d="M14.6719 3.04688L14.4922 3.35156C14.5599 3.42969 14.5938 3.48958 14.5938 3.53125C14.5938 3.54688 14.5885 3.56771 14.5781 3.59375C14.5677 3.61979 14.5495 3.65625 14.5234 3.70312C14.5026 3.74479 14.474 3.83854 14.4375 3.98438C14.4062 4.13021 14.3672 4.27083 14.3203 4.40625C14.2734 4.54167 14.2318 4.64583 14.1953 4.71875C14.1641 4.78646 14.1354 4.83854 14.1094 4.875C14.0885 4.91146 14.0781 4.93229 14.0781 4.9375L13.9141 5.32031L13.7266 5.65625V5.70312L13.0703 6.58594L12.9766 6.9375L12.6562 7.30469L12.4453 7.78125L12.2188 7.86719L12.125 8.07031C11.9844 8.17448 11.8984 8.29688 11.8672 8.4375L11.7734 8.66406L11.6172 8.80469L11.5156 9L11.1172 9.5625L11.0547 9.75C11.0339 9.82812 11 9.89323 10.9531 9.94531L10.7812 10.1484V10.4375L10.6406 10.7109L10.75 11.3672C10.6875 11.4297 10.5807 11.4792 10.4297 11.5156C10.3984 11.5469 10.3516 11.5625 10.2891 11.5625L10.0781 11.4609L9.86719 10.8594L9.51562 10.25L9.5 9.79688L9.17969 9.51562L9.00781 9.10938C8.9401 9.02083 8.88281 8.89583 8.83594 8.73438L8.72656 8.40625C8.6901 8.27083 8.63281 8.14844 8.55469 8.03906L8.44531 7.875C8.40365 7.8125 8.3776 7.7474 8.36719 7.67969L8.33594 7.41406L8.17188 7.30469L8.04688 6.67969L7.78906 6.10156L7.82031 5.99219C7.61719 5.6901 7.51562 5.4401 7.51562 5.24219V5.15625C7.44271 5.1875 7.36458 5.29427 7.28125 5.47656L7.10156 5.64062C7.00781 5.6875 6.83073 5.82031 6.57031 6.03906V6.05469C6.57031 6.14323 6.51562 6.21875 6.40625 6.28125C6.30208 6.33854 6.22917 6.38021 6.1875 6.40625C6.11979 6.40625 6.05469 6.42708 5.99219 6.46875C5.9349 6.51042 5.85938 6.59115 5.76562 6.71094C5.67188 6.82552 5.60156 6.90365 5.55469 6.94531L5.375 7.10938L5.00781 7.59375L4.625 8.20312C4.46875 8.32292 4.36979 8.39844 4.32812 8.42969C4.29167 8.46094 4.22917 8.5651 4.14062 8.74219C4.10938 8.89844 4.08333 8.97917 4.0625 8.98438L3.88281 9.04688V9.24219L3.74219 9.30469L3.63281 9.625C3.55469 9.73438 3.5 9.85677 3.46875 9.99219C3.38542 10.0339 3.34375 10.0859 3.34375 10.1484L3.375 10.2344V10.2812C3.375 10.375 3.40625 10.4557 3.46875 10.5234L3.35938 10.5391L3.42188 10.6953C3.39583 10.7891 3.34375 10.8594 3.26562 10.9062L3.29688 11.0156V11.0938C3.29688 11.2656 3.23177 11.3516 3.10156 11.3516C3.00781 11.3516 2.9375 11.3203 2.89062 11.2578L2.46094 10.6328L2.38281 10.4062L1.9375 9.60938L1.75781 8.95312L1.46875 8.375L1.42188 8.00781L1.22656 7.64062L1.07031 7.04688V6.84375L0.671875 5.53125L0.734375 5.32031L0.648438 5.22656C0.643229 5.21615 0.632812 5.19531 0.617188 5.16406C0.601562 5.1276 0.580729 5.08333 0.554688 5.03125C0.533854 4.97396 0.513021 4.91667 0.492188 4.85938V4.57031L0.414062 3.88281L0.304688 3.71875L0.398438 3.46094C0.460938 3.38281 0.492188 3.29948 0.492188 3.21094V3.14062C0.523438 2.97396 0.583333 2.89062 0.671875 2.89062C0.796875 2.89062 0.908854 2.95312 1.00781 3.07812C1.11198 3.19792 1.16406 3.35417 1.16406 3.54688V3.60938L1.11719 3.71875L1.17969 3.79688L1.11719 4.05469V4.3125L1.3125 5.67188L1.29688 5.8125L1.46875 6.17188L1.63281 7.19531L1.72656 7.39844L1.86719 8.07031L1.98438 8.11719V8.32812L2.0625 8.48438C2.08333 8.53125 2.10417 8.66667 2.125 8.89062L2.21875 8.92188L2.30469 9.35156L2.41406 9.39844C2.54948 9.71094 2.66667 9.8724 2.76562 9.88281C2.88021 9.61719 2.95052 9.46615 2.97656 9.42969H3.10156L3.375 9.09375L3.4375 8.89844C3.45833 8.83594 3.52344 8.7474 3.63281 8.63281V8.48438C3.63281 8.44792 3.74479 8.35938 3.96875 8.21875L4.03125 7.92969L4.38281 7.5625L4.49219 7.30469L4.71875 7.21094C4.72917 6.96615 4.83594 6.83073 5.03906 6.80469L5.08594 6.66406C5.23698 6.66406 5.3125 6.63802 5.3125 6.58594V6.53906L5.42188 6.39062C5.46875 6.28125 5.53385 6.21875 5.61719 6.20312C5.83073 6.08854 5.9375 5.97135 5.9375 5.85156V5.8125L6.10938 5.79688C6.20312 5.69271 6.26823 5.54948 6.30469 5.36719H6.41406L6.57031 5.07812H6.70312C6.76042 5.07812 6.82812 5.03125 6.90625 4.9375V4.63281L7.04688 4.44531C7.07292 4.40885 7.09375 4.34635 7.10938 4.25781L7.16406 3.92969C7.34635 3.8151 7.4375 3.72917 7.4375 3.67188C7.4375 3.65104 7.43229 3.63542 7.42188 3.625H7.67969C7.84115 3.81771 7.96354 3.92448 8.04688 3.94531L8.07812 4.17188L8.03125 4.58594L8.07812 5.07812L8.47656 6.07031L8.44531 6.29688L8.54688 6.46875C8.57812 6.52604 8.60938 6.65104 8.64062 6.84375L8.78125 6.9375L8.96094 7.82812L9.08594 8.09375C9.1276 8.17708 9.16406 8.3151 9.19531 8.50781L9.39062 8.67969L9.66406 9.36719C9.9974 9.97656 10.1875 10.2812 10.2344 10.2812V10.2656C10.2344 10.2552 10.2292 10.2396 10.2188 10.2188L10.2891 9.75L10.4922 9.60938L10.5234 9.42969C10.5599 9.38802 10.6615 9.32031 10.8281 9.22656L10.9766 8.92188L11.0078 8.76562C11.0182 8.71875 11.0859 8.61979 11.2109 8.46875C11.3411 8.42188 11.4062 8.32812 11.4062 8.1875V8.11719L11.6328 8.07031L11.8203 7.70312L12.2188 7.27344L12.5703 6.63281L12.8125 6.28125L13.0078 5.85156L13.2188 5.625C13.3021 5.53646 13.3854 5.38021 13.4688 5.15625L13.7109 4.53906L13.6172 4.42188L13.7734 4.08594L13.7266 3.94531L13.8516 3.88281V3.75L13.8672 3.60938L13.7266 3.46094C13.737 3.28906 13.7839 3.13542 13.8672 3L13.8203 2.89062H13.9375C13.9792 2.69792 14.0469 2.60156 14.1406 2.60156C14.2083 2.60156 14.2734 2.63281 14.3359 2.69531L14.6719 3.04688ZM21.6641 10.9062C21.6745 10.9583 21.6797 11.026 21.6797 11.1094C21.6797 11.3542 21.5625 11.4766 21.3281 11.4766C21.1719 11.4766 21.0651 11.3438 21.0078 11.0781L20.8984 10.5859V10.4375C20.9089 10.3646 20.9141 10.276 20.9141 10.1719C20.9141 10.0469 20.8594 9.90625 20.75 9.75L20.8594 9.49219L20.7969 9.10938L20.8594 8.92188V8.66406L20.8984 8.4375L20.8281 8.1875L20.8984 8.03906V7.44531L20.9141 6.67969L20.7969 6.17188L20.8594 5.96094L20.7188 5.35156V5.15625L20.4609 5.04688L20.1719 5.3125C20.1302 5.34896 20.0781 5.38281 20.0156 5.41406L19.7422 5.53125L19.2969 6.17188L19.1172 6.21875L18.7188 6.875V6.95312H18.6094L18.5625 7.09375L18.3906 7.25781C18.3281 7.32552 18.2786 7.42708 18.2422 7.5625L18.0781 8.11719L17.8359 8.42969C17.8047 8.46615 17.7682 8.55469 17.7266 8.69531L17.5703 8.84375L17.5 9.25781L17.1641 9.57812L17.1328 10.0234H17.0703L16.9609 10.3281L16.7031 10.7891C16.5 11.0182 16.3776 11.1745 16.3359 11.2578L16.2578 11.2266H16.1562L16.1094 11.1406L15.9688 10.6016L15.9375 9.71875L15.8906 9.46094L15.9375 9.14062L15.9219 8.58594L16 8.55469L16.1094 7.19531L16.1562 6.9375L16.1406 6.74219L16.2266 6.69531L16.1875 6.58594L16.2578 6.02344L16.3359 5.79688L16.2891 5.5625L16.3359 5.44531L16.2891 5.35156L16.3359 4.82031L16.2578 4.74219L16.3047 4.63281L16.2891 4.02344L16.1875 3.75H16.2891V3.60938L16.1406 2.95312V2.63281L16.0781 2.48438L16 1.97656C15.9375 1.74219 15.8516 1.52344 15.7422 1.32031L15.9219 1.0625L15.8906 1.01562C16.0156 1.01562 16.0781 1.08073 16.0781 1.21094L16.3047 1.41406L16.3672 1.60156C16.388 1.65885 16.4531 1.7474 16.5625 1.86719L16.5234 2.00781L16.625 2.29688L16.5234 2.4375L16.6719 2.55469L16.6562 2.96875L16.6719 3.76562L16.7656 4.17188L16.7031 4.34375L16.7188 4.64844L16.6562 4.90625L16.7031 5.30469L16.5938 5.70312L16.6562 5.8125L16.625 6.78906L16.6562 6.9375L16.5938 7.01562L16.5234 7.60938L16.4453 7.78125L16.5078 7.97656L16.4766 8.07031L16.4453 8.60156L16.2891 9.0625C16.4036 9.19792 16.4609 9.28906 16.4609 9.33594L16.3359 9.5625C16.388 9.66667 16.4141 9.79427 16.4141 9.94531L16.5625 9.82812L16.625 9.625L16.875 9.10938L16.9922 8.74219C17.1641 8.6901 17.25 8.57812 17.25 8.40625C17.2812 8.39062 17.3594 8.26302 17.4844 8.02344L17.5547 7.82031C17.5755 7.7526 17.6276 7.66667 17.7109 7.5625L17.7266 7.35156L17.6797 7.30469L17.7891 7.21094L17.8203 7.25781L18.0781 6.9375C18.1615 6.89583 18.2031 6.83073 18.2031 6.74219V6.67969C18.3438 6.65885 18.4141 6.5625 18.4141 6.39062L18.4609 6.35938V6.28125L18.5938 6.25L18.6094 6.03906H18.7188L18.7031 5.91406H18.8125V5.8125C18.8854 5.76042 18.9297 5.73438 18.9453 5.73438C18.9557 5.73438 18.9609 5.74479 18.9609 5.76562V5.79688L18.9766 5.65625H19.0234C19.1484 5.65625 19.2109 5.55469 19.2109 5.35156L19.4062 5.19531L19.4375 5.25781C19.5156 5.16927 19.5651 5.0625 19.5859 4.9375L19.6953 4.89062L19.7422 4.75781L19.8672 4.74219C19.9141 4.70052 19.974 4.67448 20.0469 4.66406C20.1198 4.64844 20.1615 4.63802 20.1719 4.63281L20.1406 4.57031C20.3594 4.45052 20.4922 4.39062 20.5391 4.39062C20.6068 4.39062 20.6927 4.46094 20.7969 4.60156C20.875 4.61198 20.9141 4.65885 20.9141 4.74219L21.0547 4.85938C21.0547 4.93229 21.1406 5.11198 21.3125 5.39844V6.64844L21.2812 7.30469L21.3438 7.46094V8.63281L21.3125 8.84375V9.24219L21.3438 9.57812L21.2812 9.97656C21.3229 10.0182 21.3542 10.1771 21.375 10.4531L21.5312 10.6484V10.8438L21.6641 10.9062ZM28.0547 9.5625C28.1328 9.68229 28.1719 9.77083 28.1719 9.82812C28.1719 9.86979 28.1224 9.95833 28.0234 10.0938C27.9297 10.2292 27.8568 10.3724 27.8047 10.5234L27.6875 10.5391L27.5156 10.875L27.3203 10.9062L26.8906 11.1953L26.8125 11.3672L26.6797 11.3516L26.5391 11.5156H26.3125L26.2656 11.5938L26.1562 11.5781C26.0417 11.5781 25.9401 11.6302 25.8516 11.7344L25.75 11.6562C25.6406 11.7083 25.5521 11.7344 25.4844 11.7344C25.3646 11.7344 25.2682 11.7083 25.1953 11.6562C25.1432 11.6667 25.0729 11.6719 24.9844 11.6719L24.8906 11.5938C24.6042 11.5781 24.4115 11.4974 24.3125 11.3516V11.1562L24.0547 11.0156L23.9922 10.8516C23.9714 10.7995 23.9141 10.7318 23.8203 10.6484V10.5234L23.6406 9.76562L23.6719 9.22656L23.7344 8.92188V8.58594L23.8203 8.29688L23.7891 8.08594C23.8464 8.03906 23.8828 7.98177 23.8984 7.91406C23.9141 7.84115 23.9453 7.76042 23.9922 7.67188C23.9714 7.57812 23.9505 7.44531 23.9297 7.27344L24.0703 7.15625L23.9297 7C24.0026 6.88021 24.0391 6.80469 24.0391 6.77344L23.9609 6.29688C23.9609 6.18229 23.9766 6.07031 24.0078 5.96094C24.0703 6.05469 24.1406 6.10156 24.2188 6.10156C24.2604 6.10156 24.362 6.08073 24.5234 6.03906C24.513 6.00781 24.5078 5.97135 24.5078 5.92969C24.5078 5.85677 24.5495 5.79167 24.6328 5.73438C24.7161 5.47396 24.8333 5.22917 24.9844 5C25.0833 4.92188 25.1328 4.8151 25.1328 4.67969H25.2109L25.2891 4.52344L25.3828 4.48438C25.4036 4.41667 25.4583 4.33854 25.5469 4.25C25.6667 4.21354 25.8099 4.09115 25.9766 3.88281C25.9974 3.89323 26.0417 3.89844 26.1094 3.89844C26.125 3.89844 26.1667 3.83854 26.2344 3.71875C26.4167 3.65625 26.513 3.625 26.5234 3.625C26.5703 3.625 26.6172 3.65625 26.6641 3.71875L26.8125 3.6875L26.8906 3.75H26.9844C27.0417 3.92188 27.1484 4.00781 27.3047 4.00781H27.3516C27.3672 4.08073 27.401 4.13542 27.4531 4.17188L27.3828 4.20312C27.5651 4.29167 27.6562 4.4974 27.6562 4.82031L27.6094 5L27.6562 5.44531L27.5781 5.51562L27.3984 5.99219L27.0781 6.39062L27.0625 6.61719C26.6823 6.92969 26.3698 7.14323 26.125 7.25781C26.1042 7.32031 26.0703 7.35156 26.0234 7.35156C26.0026 7.35156 25.9609 7.34115 25.8984 7.32031L25.5469 7.5625H25.3359L25.0312 7.70312L24.8984 7.625C24.862 7.60417 24.7526 7.58333 24.5703 7.5625C24.4089 7.71354 24.3281 7.90885 24.3281 8.14844L24.2188 8.28125C24.1979 8.47917 24.1719 8.61719 24.1406 8.69531L24.0547 8.74219L24.1406 9.32031L24.0547 9.39844L24.0703 9.57812L24.0547 9.79688C24.0547 9.83333 24.0677 9.93229 24.0938 10.0938C24.1198 10.2552 24.1615 10.349 24.2188 10.375C24.1927 10.4479 24.2422 10.5365 24.3672 10.6406C24.4974 10.7448 24.6354 10.8177 24.7812 10.8594V10.9531L25.1953 11.0156L25.7891 11.0469L26.1875 11C26.349 10.8854 26.4661 10.8151 26.5391 10.7891L26.6641 10.6016H26.8125L26.8281 10.5234C27.0573 10.4453 27.1823 10.3932 27.2031 10.3672C27.2292 10.3359 27.2422 10.3073 27.2422 10.2812C27.2734 10.2188 27.3203 10.1875 27.3828 10.1875L27.4297 10.0859C27.6641 10.0495 27.8099 9.89583 27.8672 9.625C27.9193 9.58333 27.9818 9.5625 28.0547 9.5625ZM26.7422 5.91406C26.7839 5.90885 26.8542 5.84375 26.9531 5.71875L27 5.53125C27.1302 5.3125 27.2057 5.17448 27.2266 5.11719C27.2474 5.05469 27.2578 4.97917 27.2578 4.89062C27.2578 4.80208 27.2214 4.64583 27.1484 4.42188L26.8281 4.3125C26.7448 4.33333 26.6901 4.34375 26.6641 4.34375L26.5703 4.3125C26.4922 4.3125 26.4375 4.35938 26.4062 4.45312C26.3125 4.45312 26.1693 4.49219 25.9766 4.57031L25.9297 4.67969C25.9089 4.66927 25.888 4.66406 25.8672 4.66406C25.8516 4.66406 25.8359 4.66667 25.8203 4.67188C25.8099 4.67708 25.7995 4.6849 25.7891 4.69531C25.7786 4.70573 25.7682 4.71875 25.7578 4.73438C25.7474 4.74479 25.737 4.76042 25.7266 4.78125C25.7214 4.80208 25.7135 4.82552 25.7031 4.85156C25.6979 4.8724 25.6901 4.89583 25.6797 4.92188C25.6745 4.94271 25.6432 4.98698 25.5859 5.05469L25.4688 5.19531L25.2422 5.625L25.125 5.72656C25.0885 5.75781 25.0599 5.82552 25.0391 5.92969C25.0182 6.03385 24.8776 6.28385 24.6172 6.67969L24.7266 6.74219L24.7812 6.875L25.0469 6.95312C25.1979 6.84896 25.3594 6.77865 25.5312 6.74219L25.5781 6.64844C25.6354 6.66927 25.6771 6.67969 25.7031 6.67969C25.7552 6.67969 25.8047 6.64844 25.8516 6.58594L26.0391 6.55469L26.1562 6.35938H26.2656L26.3438 6.1875C26.4844 6.1875 26.6172 6.1224 26.7422 5.99219V5.91406ZM34.9609 4.74219L34.9141 4.9375L34.4453 5L34.1406 5.22656L33.9375 5.25781L33.6797 5.41406L33.4219 5.53125C33.2969 5.64062 33.1953 5.70833 33.1172 5.73438V5.8125L32.8828 5.92969L32.7188 6.1875H32.5469L32.4609 6.4375L32.2812 6.55469C32.2083 6.59635 32.151 6.65365 32.1094 6.72656L31.9531 7.01562C31.8333 7.07812 31.763 7.22135 31.7422 7.44531L31.6641 7.41406L31.6328 7.51562L31.5156 7.59375L31.4062 7.86719C31.2917 8.02865 31.2344 8.15104 31.2344 8.23438L31.0859 8.29688V8.63281C31.0547 8.66927 31.0286 8.72656 31.0078 8.80469L31.0391 8.85938L30.8828 8.92188L30.9297 9.04688C30.9141 9.15104 30.8333 9.34375 30.6875 9.625L30.7656 9.82812L30.6094 10.0859C30.6302 10.1901 30.6406 10.2708 30.6406 10.3281L30.6094 10.5859L30.6797 10.8672C30.6849 10.8828 30.7083 10.9141 30.75 10.9609L30.8672 11.0781C30.7995 11.2083 30.7344 11.2995 30.6719 11.3516L30.4609 11.2734L30.4922 11.4141L30.1406 11.3516V11.1406L30.0938 11L30.1406 10.7422L30.0938 10.6328L30.125 10.0859L30.0938 9.71875C30.0208 9.69271 29.9844 9.66146 29.9844 9.625C29.9844 9.58333 30.0208 9.51823 30.0938 9.42969V9.19531C30.0938 9.07031 30.0885 8.97917 30.0781 8.92188L30.1406 8.84375L30.0781 8.53906L30.125 8.29688L30.0781 8.14844L30.125 7.71875L30.0469 7.59375L30.0938 7.44531L30 7.125L30.0312 6.875C30.0312 6.80729 30.0208 6.71094 30 6.58594L30.0469 6.50781L29.9531 5.96094L29.8359 5.88281L29.9531 5.60938C29.8438 5.45833 29.7891 5.28125 29.7891 5.07812V4.85938C29.7422 4.80729 29.7109 4.75781 29.6953 4.71094C29.7682 4.61198 29.901 4.52604 30.0938 4.45312L30.2109 4.48438C30.2318 4.61458 30.2891 4.73958 30.3828 4.85938L30.3516 5.25781L30.5078 6.46875C30.5078 6.54688 30.4766 6.61719 30.4141 6.67969L30.4922 7.01562L30.4453 7.25781L30.4922 7.51562L30.4609 7.71875L30.5781 7.96094L30.5078 8.00781L30.5625 8.375L30.6875 8.40625L30.7422 8.09375C30.7474 8.05729 30.8099 7.96354 30.9297 7.8125C31.0651 7.69271 31.1328 7.5599 31.1328 7.41406V7.32031L31.2344 7.27344C31.25 7.27344 31.263 7.25521 31.2734 7.21875C31.2839 7.17708 31.3021 7.15625 31.3281 7.15625H31.375L31.4688 6.84375L31.7109 6.67969L31.7266 6.58594H31.8359L31.7891 6.40625L32.0312 6.29688L32.0469 6.10156L32.2734 6.07031C32.388 5.97656 32.4661 5.875 32.5078 5.76562L32.6562 5.73438C32.6771 5.69271 32.7734 5.59635 32.9453 5.44531C32.9818 5.44531 33.0078 5.42969 33.0234 5.39844L33.2812 5.25781L33.3438 5.14062L33.4844 5.0625C33.7604 4.85938 33.9479 4.75781 34.0469 4.75781H34.1094C34.2031 4.75781 34.2786 4.73177 34.3359 4.67969L34.4766 4.72656C34.5495 4.67448 34.6094 4.64844 34.6562 4.64844C34.849 4.6901 34.9505 4.72135 34.9609 4.74219ZM39.7734 9.5625C39.8516 9.68229 39.8906 9.77083 39.8906 9.82812C39.8906 9.86979 39.8411 9.95833 39.7422 10.0938C39.6484 10.2292 39.5755 10.3724 39.5234 10.5234L39.4062 10.5391L39.2344 10.875L39.0391 10.9062L38.6094 11.1953L38.5312 11.3672L38.3984 11.3516L38.2578 11.5156H38.0312L37.9844 11.5938L37.875 11.5781C37.7604 11.5781 37.6589 11.6302 37.5703 11.7344L37.4688 11.6562C37.3594 11.7083 37.2708 11.7344 37.2031 11.7344C37.0833 11.7344 36.987 11.7083 36.9141 11.6562C36.862 11.6667 36.7917 11.6719 36.7031 11.6719L36.6094 11.5938C36.3229 11.5781 36.1302 11.4974 36.0312 11.3516V11.1562L35.7734 11.0156L35.7109 10.8516C35.6901 10.7995 35.6328 10.7318 35.5391 10.6484V10.5234L35.3594 9.76562L35.3906 9.22656L35.4531 8.92188V8.58594L35.5391 8.29688L35.5078 8.08594C35.5651 8.03906 35.6016 7.98177 35.6172 7.91406C35.6328 7.84115 35.6641 7.76042 35.7109 7.67188C35.6901 7.57812 35.6693 7.44531 35.6484 7.27344L35.7891 7.15625L35.6484 7C35.7214 6.88021 35.7578 6.80469 35.7578 6.77344L35.6797 6.29688C35.6797 6.18229 35.6953 6.07031 35.7266 5.96094C35.7891 6.05469 35.8594 6.10156 35.9375 6.10156C35.9792 6.10156 36.0807 6.08073 36.2422 6.03906C36.2318 6.00781 36.2266 5.97135 36.2266 5.92969C36.2266 5.85677 36.2682 5.79167 36.3516 5.73438C36.4349 5.47396 36.5521 5.22917 36.7031 5C36.8021 4.92188 36.8516 4.8151 36.8516 4.67969H36.9297L37.0078 4.52344L37.1016 4.48438C37.1224 4.41667 37.1771 4.33854 37.2656 4.25C37.3854 4.21354 37.5286 4.09115 37.6953 3.88281C37.7161 3.89323 37.7604 3.89844 37.8281 3.89844C37.8438 3.89844 37.8854 3.83854 37.9531 3.71875C38.1354 3.65625 38.2318 3.625 38.2422 3.625C38.2891 3.625 38.3359 3.65625 38.3828 3.71875L38.5312 3.6875L38.6094 3.75H38.7031C38.7604 3.92188 38.8672 4.00781 39.0234 4.00781H39.0703C39.0859 4.08073 39.1198 4.13542 39.1719 4.17188L39.1016 4.20312C39.2839 4.29167 39.375 4.4974 39.375 4.82031L39.3281 5L39.375 5.44531L39.2969 5.51562L39.1172 5.99219L38.7969 6.39062L38.7812 6.61719C38.401 6.92969 38.0885 7.14323 37.8438 7.25781C37.8229 7.32031 37.7891 7.35156 37.7422 7.35156C37.7214 7.35156 37.6797 7.34115 37.6172 7.32031L37.2656 7.5625H37.0547L36.75 7.70312L36.6172 7.625C36.5807 7.60417 36.4714 7.58333 36.2891 7.5625C36.1276 7.71354 36.0469 7.90885 36.0469 8.14844L35.9375 8.28125C35.9167 8.47917 35.8906 8.61719 35.8594 8.69531L35.7734 8.74219L35.8594 9.32031L35.7734 9.39844L35.7891 9.57812L35.7734 9.79688C35.7734 9.83333 35.7865 9.93229 35.8125 10.0938C35.8385 10.2552 35.8802 10.349 35.9375 10.375C35.9115 10.4479 35.9609 10.5365 36.0859 10.6406C36.2161 10.7448 36.3542 10.8177 36.5 10.8594V10.9531L36.9141 11.0156L37.5078 11.0469L37.9062 11C38.0677 10.8854 38.1849 10.8151 38.2578 10.7891L38.3828 10.6016H38.5312L38.5469 10.5234C38.776 10.4453 38.901 10.3932 38.9219 10.3672C38.9479 10.3359 38.9609 10.3073 38.9609 10.2812C38.9922 10.2188 39.0391 10.1875 39.1016 10.1875L39.1484 10.0859C39.3828 10.0495 39.5286 9.89583 39.5859 9.625C39.638 9.58333 39.7005 9.5625 39.7734 9.5625ZM38.4609 5.91406C38.5026 5.90885 38.5729 5.84375 38.6719 5.71875L38.7188 5.53125C38.849 5.3125 38.9245 5.17448 38.9453 5.11719C38.9661 5.05469 38.9766 4.97917 38.9766 4.89062C38.9766 4.80208 38.9401 4.64583 38.8672 4.42188L38.5469 4.3125C38.4635 4.33333 38.4089 4.34375 38.3828 4.34375L38.2891 4.3125C38.2109 4.3125 38.1562 4.35938 38.125 4.45312C38.0312 4.45312 37.888 4.49219 37.6953 4.57031L37.6484 4.67969C37.6276 4.66927 37.6068 4.66406 37.5859 4.66406C37.5703 4.66406 37.5547 4.66667 37.5391 4.67188C37.5286 4.67708 37.5182 4.6849 37.5078 4.69531C37.4974 4.70573 37.487 4.71875 37.4766 4.73438C37.4661 4.74479 37.4557 4.76042 37.4453 4.78125C37.4401 4.80208 37.4323 4.82552 37.4219 4.85156C37.4167 4.8724 37.4089 4.89583 37.3984 4.92188C37.3932 4.94271 37.362 4.98698 37.3047 5.05469L37.1875 5.19531L36.9609 5.625L36.8438 5.72656C36.8073 5.75781 36.7786 5.82552 36.7578 5.92969C36.737 6.03385 36.5964 6.28385 36.3359 6.67969L36.4453 6.74219L36.5 6.875L36.7656 6.95312C36.9167 6.84896 37.0781 6.77865 37.25 6.74219L37.2969 6.64844C37.3542 6.66927 37.3958 6.67969 37.4219 6.67969C37.474 6.67969 37.5234 6.64844 37.5703 6.58594L37.7578 6.55469L37.875 6.35938H37.9844L38.0625 6.1875C38.2031 6.1875 38.3359 6.1224 38.4609 5.99219V5.91406ZM52.0859 10.25C51.9714 10.6615 51.8281 10.9375 51.6562 11.0781C51.5312 11.0365 51.4453 10.9792 51.3984 10.9062L51.1094 10.4531L51 10.2031L50.7891 9.46094V8.74219L50.7422 8.11719L50.7891 7.76562L50.7422 7.46094V7.01562L50.5938 6.80469L50.5312 6.9375L50.4062 6.95312L50.1641 7.51562L49.875 7.92969H49.75L49.7109 8.09375C49.6953 8.15625 49.6641 8.22656 49.6172 8.30469C49.5755 8.38281 49.5234 8.47656 49.4609 8.58594L49.0312 9.0625L48.6953 9.5625L48.3281 9.94531C48.2448 10.0859 48.1484 10.2188 48.0391 10.3438L47.8203 10.5156C47.7526 10.5729 47.6641 10.6823 47.5547 10.8438L47.2812 10.9375C47.25 10.9479 47.1875 11.0052 47.0938 11.1094L46.9062 11.1484C46.849 11.1536 46.7396 11.2057 46.5781 11.3047L46.4375 11.2734L46.3906 11.3672L46.2109 11.3516L45.7031 10.9688C45.6198 10.8542 45.5573 10.7005 45.5156 10.5078C45.474 10.3099 45.4141 10.2083 45.3359 10.2031L45.25 10.2344L45.4141 9.97656L45.3359 9.71875L45.3984 9.51562L45.3672 9.21094L45.4766 8.72656V8.28125L45.5859 8.11719V7.71875C45.6641 7.56771 45.7031 7.44531 45.7031 7.35156L45.7656 7.30469V7.01562L45.9062 6.75781L45.9219 6.53906C45.9896 6.4401 46.0391 6.33333 46.0703 6.21875L46.1484 5.73438C46.1641 5.625 46.224 5.52865 46.3281 5.44531L46.3438 5.27344C46.3542 5.22135 46.388 5.15104 46.4453 5.0625C46.5026 4.97396 46.5312 4.89323 46.5312 4.82031C46.6875 4.65885 46.8203 4.54688 46.9297 4.48438L46.8984 4.42188C46.9661 4.40625 47.0052 4.38021 47.0156 4.34375C47.0312 4.35417 47.0625 4.35938 47.1094 4.35938C47.151 4.35938 47.1823 4.35417 47.2031 4.34375L47.125 4.3125L47.8125 4.11719C47.9115 4.10677 48.0026 4.09896 48.0859 4.09375C48.1693 4.08854 48.2109 4.07031 48.2109 4.03906V4.02344L48.4688 4.00781L48.6094 4.08594L48.6953 4.05469C48.7109 4.10677 48.7526 4.13281 48.8203 4.13281C48.8411 4.13281 48.862 4.1276 48.8828 4.11719L49.1406 4.13281V4.20312L49.2031 4.17188L49.4453 4.375L49.6875 4.3125L49.8281 4.57031L50.0859 4.78125C50.1172 4.80729 50.1641 4.88542 50.2266 5.01562L50.4844 5.15625C50.5677 5.24479 50.6328 5.28906 50.6797 5.28906C50.7109 5.28906 50.7318 5.26823 50.7422 5.22656L50.8516 4.67969L50.9766 4.39062L50.9297 3.97656L51 3.22656L50.9297 3.03125C51.0078 2.9375 51.0469 2.82552 51.0469 2.69531L50.9766 2.55469L51.0312 2.11719L50.9766 1.67188L51.0469 1.57812L50.9766 1.53125C51.0339 1.47917 51.0625 1.4349 51.0625 1.39844C51.0625 1.3776 51.0521 1.34635 51.0312 1.30469C51.0625 1.22656 51.0781 1.15104 51.0781 1.07812C51.0781 1 51.0625 0.921875 51.0312 0.84375H51.1094C51.0885 0.802083 51.0781 0.752604 51.0781 0.695312C51.0781 0.627604 51.1302 0.565104 51.2344 0.507812L51.1719 0.46875L51.25 0.453125C51.3073 0.453125 51.3464 0.497396 51.3672 0.585938C51.4453 0.601562 51.4922 0.669271 51.5078 0.789062H51.4297L51.4453 1.04688L51.4297 1.19531H51.3359L51.5078 1.38281L51.4453 1.60938L51.5547 1.86719L51.4766 1.97656C51.5286 2.10156 51.5547 2.19792 51.5547 2.26562C51.5547 2.32812 51.5391 2.39062 51.5078 2.45312L51.6328 2.55469C51.5807 2.58594 51.5547 2.61719 51.5547 2.64844C51.5547 2.70052 51.599 2.74219 51.6875 2.77344V2.82031C51.6875 2.88802 51.6432 2.94792 51.5547 3V3.14062C51.5547 3.40104 51.513 3.84896 51.4297 4.48438C51.4401 4.50521 51.4453 4.54427 51.4453 4.60156C51.4453 4.67969 51.4193 4.78125 51.3672 4.90625L51.4297 5.04688L51.3359 5.41406L51.2891 5.80469C51.2839 5.85677 51.25 5.94531 51.1875 6.07031L51.2344 6.25L51.1406 6.53906L51.2344 6.75781L51.1094 7.25781L51.1875 7.64062L51.1406 7.86719L51.1719 8.07031L51.0781 8.11719C51.1823 8.28906 51.2344 8.38021 51.2344 8.39062C51.2344 8.4375 51.2031 8.46875 51.1406 8.48438L51.1719 8.58594L51.1406 8.63281L51.25 8.74219L51.1719 9L51.2812 9.35156L51.2344 9.46094L51.2812 9.57812L51.1875 9.86719L51.2656 9.94531H51.3984L51.5078 10.0859L51.7344 10.0234L51.8125 10.1484L52.0859 10.25ZM50.5625 5.88281L50.4688 5.85156L50.3047 5.70312L50.1719 5.625C50.151 5.61458 50.1094 5.54688 50.0469 5.42188C49.9896 5.29167 49.9167 5.1875 49.8281 5.10938C49.7708 5.08854 49.724 5.05729 49.6875 5.01562V4.90625L49.4453 4.85938L49.2109 4.72656C49.1641 4.69531 49.099 4.66927 49.0156 4.64844C48.9375 4.6276 48.8307 4.60156 48.6953 4.57031L48.2109 4.63281L48.0703 4.71094L47.9219 4.60156L47.6719 4.67969H47.3516L47.2969 4.82031L47.2031 4.85938C47.2031 4.94792 47.224 5 47.2656 5.01562C47.2083 5.10938 47.0755 5.22656 46.8672 5.36719L46.7578 5.65625L46.6094 5.73438L46.4688 6.17188L46.4219 6.64844L46.2734 6.78906V7.0625C46.1589 7.16667 46.1016 7.2526 46.1016 7.32031L46.1328 7.70312L45.875 8.20312L45.8125 8.55469L45.7969 9.09375L45.8438 9.21094L45.7344 9.42969L45.8125 9.5625L45.6875 9.82812C45.776 9.99479 45.849 10.1875 45.9062 10.4062L46.0547 10.4844L46.0234 10.5859H46.1797C46.2891 10.6589 46.3542 10.6953 46.375 10.6953C46.3854 10.6953 46.4089 10.6693 46.4453 10.6172C46.487 10.5651 46.5703 10.5391 46.6953 10.5391V10.6016C46.763 10.5495 46.8047 10.5 46.8203 10.4531C46.9036 10.4531 46.9453 10.4167 46.9453 10.3438L47.0938 10.2812L47.1562 10.3281L47.2031 10.1484L47.5234 10.0234L47.5547 9.88281L47.7812 9.75V9.67188L47.9531 9.49219L48.0078 9.51562C48.0495 9.51562 48.0703 9.47656 48.0703 9.39844H48.1797V9.30469L48.4375 9.19531L48.375 8.95312L48.5469 8.84375L48.4375 8.72656C48.4583 8.73698 48.4896 8.74219 48.5312 8.74219C48.5885 8.74219 48.6536 8.71615 48.7266 8.66406L48.7422 8.60156L48.9141 8.58594L49.0938 8.11719L49.25 7.96094L49.3125 7.67188L49.5078 7.60938C49.6536 7.35938 49.7708 7.19792 49.8594 7.125V6.90625L50.0078 6.84375L50.4062 6.03906L50.5625 5.88281ZM59.5078 4.74219L59.4609 4.9375L58.9922 5L58.6875 5.22656L58.4844 5.25781L58.2266 5.41406L57.9688 5.53125C57.8438 5.64062 57.7422 5.70833 57.6641 5.73438V5.8125L57.4297 5.92969L57.2656 6.1875H57.0938L57.0078 6.4375L56.8281 6.55469C56.7552 6.59635 56.6979 6.65365 56.6562 6.72656L56.5 7.01562C56.3802 7.07812 56.3099 7.22135 56.2891 7.44531L56.2109 7.41406L56.1797 7.51562L56.0625 7.59375L55.9531 7.86719C55.8385 8.02865 55.7812 8.15104 55.7812 8.23438L55.6328 8.29688V8.63281C55.6016 8.66927 55.5755 8.72656 55.5547 8.80469L55.5859 8.85938L55.4297 8.92188L55.4766 9.04688C55.4609 9.15104 55.3802 9.34375 55.2344 9.625L55.3125 9.82812L55.1562 10.0859C55.1771 10.1901 55.1875 10.2708 55.1875 10.3281L55.1562 10.5859L55.2266 10.8672C55.2318 10.8828 55.2552 10.9141 55.2969 10.9609L55.4141 11.0781C55.3464 11.2083 55.2812 11.2995 55.2188 11.3516L55.0078 11.2734L55.0391 11.4141L54.6875 11.3516V11.1406L54.6406 11L54.6875 10.7422L54.6406 10.6328L54.6719 10.0859L54.6406 9.71875C54.5677 9.69271 54.5312 9.66146 54.5312 9.625C54.5312 9.58333 54.5677 9.51823 54.6406 9.42969V9.19531C54.6406 9.07031 54.6354 8.97917 54.625 8.92188L54.6875 8.84375L54.625 8.53906L54.6719 8.29688L54.625 8.14844L54.6719 7.71875L54.5938 7.59375L54.6406 7.44531L54.5469 7.125L54.5781 6.875C54.5781 6.80729 54.5677 6.71094 54.5469 6.58594L54.5938 6.50781L54.5 5.96094L54.3828 5.88281L54.5 5.60938C54.3906 5.45833 54.3359 5.28125 54.3359 5.07812V4.85938C54.2891 4.80729 54.2578 4.75781 54.2422 4.71094C54.3151 4.61198 54.4479 4.52604 54.6406 4.45312L54.7578 4.48438C54.7786 4.61458 54.8359 4.73958 54.9297 4.85938L54.8984 5.25781L55.0547 6.46875C55.0547 6.54688 55.0234 6.61719 54.9609 6.67969L55.0391 7.01562L54.9922 7.25781L55.0391 7.51562L55.0078 7.71875L55.125 7.96094L55.0547 8.00781L55.1094 8.375L55.2344 8.40625L55.2891 8.09375C55.2943 8.05729 55.3568 7.96354 55.4766 7.8125C55.612 7.69271 55.6797 7.5599 55.6797 7.41406V7.32031L55.7812 7.27344C55.7969 7.27344 55.8099 7.25521 55.8203 7.21875C55.8307 7.17708 55.849 7.15625 55.875 7.15625H55.9219L56.0156 6.84375L56.2578 6.67969L56.2734 6.58594H56.3828L56.3359 6.40625L56.5781 6.29688L56.5938 6.10156L56.8203 6.07031C56.9349 5.97656 57.013 5.875 57.0547 5.76562L57.2031 5.73438C57.224 5.69271 57.3203 5.59635 57.4922 5.44531C57.5286 5.44531 57.5547 5.42969 57.5703 5.39844L57.8281 5.25781L57.8906 5.14062L58.0312 5.0625C58.3073 4.85938 58.4948 4.75781 58.5938 4.75781H58.6562C58.75 4.75781 58.8255 4.73177 58.8828 4.67969L59.0234 4.72656C59.0964 4.67448 59.1562 4.64844 59.2031 4.64844C59.3958 4.6901 59.4974 4.72135 59.5078 4.74219ZM64.3203 9.5625C64.3984 9.68229 64.4375 9.77083 64.4375 9.82812C64.4375 9.86979 64.388 9.95833 64.2891 10.0938C64.1953 10.2292 64.1224 10.3724 64.0703 10.5234L63.9531 10.5391L63.7812 10.875L63.5859 10.9062L63.1562 11.1953L63.0781 11.3672L62.9453 11.3516L62.8047 11.5156H62.5781L62.5312 11.5938L62.4219 11.5781C62.3073 11.5781 62.2057 11.6302 62.1172 11.7344L62.0156 11.6562C61.9062 11.7083 61.8177 11.7344 61.75 11.7344C61.6302 11.7344 61.5339 11.7083 61.4609 11.6562C61.4089 11.6667 61.3385 11.6719 61.25 11.6719L61.1562 11.5938C60.8698 11.5781 60.6771 11.4974 60.5781 11.3516V11.1562L60.3203 11.0156L60.2578 10.8516C60.237 10.7995 60.1797 10.7318 60.0859 10.6484V10.5234L59.9062 9.76562L59.9375 9.22656L60 8.92188V8.58594L60.0859 8.29688L60.0547 8.08594C60.112 8.03906 60.1484 7.98177 60.1641 7.91406C60.1797 7.84115 60.2109 7.76042 60.2578 7.67188C60.237 7.57812 60.2161 7.44531 60.1953 7.27344L60.3359 7.15625L60.1953 7C60.2682 6.88021 60.3047 6.80469 60.3047 6.77344L60.2266 6.29688C60.2266 6.18229 60.2422 6.07031 60.2734 5.96094C60.3359 6.05469 60.4062 6.10156 60.4844 6.10156C60.526 6.10156 60.6276 6.08073 60.7891 6.03906C60.7786 6.00781 60.7734 5.97135 60.7734 5.92969C60.7734 5.85677 60.8151 5.79167 60.8984 5.73438C60.9818 5.47396 61.099 5.22917 61.25 5C61.349 4.92188 61.3984 4.8151 61.3984 4.67969H61.4766L61.5547 4.52344L61.6484 4.48438C61.6693 4.41667 61.724 4.33854 61.8125 4.25C61.9323 4.21354 62.0755 4.09115 62.2422 3.88281C62.263 3.89323 62.3073 3.89844 62.375 3.89844C62.3906 3.89844 62.4323 3.83854 62.5 3.71875C62.6823 3.65625 62.7786 3.625 62.7891 3.625C62.8359 3.625 62.8828 3.65625 62.9297 3.71875L63.0781 3.6875L63.1562 3.75H63.25C63.3073 3.92188 63.4141 4.00781 63.5703 4.00781H63.6172C63.6328 4.08073 63.6667 4.13542 63.7188 4.17188L63.6484 4.20312C63.8307 4.29167 63.9219 4.4974 63.9219 4.82031L63.875 5L63.9219 5.44531L63.8438 5.51562L63.6641 5.99219L63.3438 6.39062L63.3281 6.61719C62.9479 6.92969 62.6354 7.14323 62.3906 7.25781C62.3698 7.32031 62.3359 7.35156 62.2891 7.35156C62.2682 7.35156 62.2266 7.34115 62.1641 7.32031L61.8125 7.5625H61.6016L61.2969 7.70312L61.1641 7.625C61.1276 7.60417 61.0182 7.58333 60.8359 7.5625C60.6745 7.71354 60.5938 7.90885 60.5938 8.14844L60.4844 8.28125C60.4635 8.47917 60.4375 8.61719 60.4062 8.69531L60.3203 8.74219L60.4062 9.32031L60.3203 9.39844L60.3359 9.57812L60.3203 9.79688C60.3203 9.83333 60.3333 9.93229 60.3594 10.0938C60.3854 10.2552 60.4271 10.349 60.4844 10.375C60.4583 10.4479 60.5078 10.5365 60.6328 10.6406C60.763 10.7448 60.901 10.8177 61.0469 10.8594V10.9531L61.4609 11.0156L62.0547 11.0469L62.4531 11C62.6146 10.8854 62.7318 10.8151 62.8047 10.7891L62.9297 10.6016H63.0781L63.0938 10.5234C63.3229 10.4453 63.4479 10.3932 63.4688 10.3672C63.4948 10.3359 63.5078 10.3073 63.5078 10.2812C63.5391 10.2188 63.5859 10.1875 63.6484 10.1875L63.6953 10.0859C63.9297 10.0495 64.0755 9.89583 64.1328 9.625C64.1849 9.58333 64.2474 9.5625 64.3203 9.5625ZM63.0078 5.91406C63.0495 5.90885 63.1198 5.84375 63.2188 5.71875L63.2656 5.53125C63.3958 5.3125 63.4714 5.17448 63.4922 5.11719C63.513 5.05469 63.5234 4.97917 63.5234 4.89062C63.5234 4.80208 63.487 4.64583 63.4141 4.42188L63.0938 4.3125C63.0104 4.33333 62.9557 4.34375 62.9297 4.34375L62.8359 4.3125C62.7578 4.3125 62.7031 4.35938 62.6719 4.45312C62.5781 4.45312 62.4349 4.49219 62.2422 4.57031L62.1953 4.67969C62.1745 4.66927 62.1536 4.66406 62.1328 4.66406C62.1172 4.66406 62.1016 4.66667 62.0859 4.67188C62.0755 4.67708 62.0651 4.6849 62.0547 4.69531C62.0443 4.70573 62.0339 4.71875 62.0234 4.73438C62.013 4.74479 62.0026 4.76042 61.9922 4.78125C61.987 4.80208 61.9792 4.82552 61.9688 4.85156C61.9635 4.8724 61.9557 4.89583 61.9453 4.92188C61.9401 4.94271 61.9089 4.98698 61.8516 5.05469L61.7344 5.19531L61.5078 5.625L61.3906 5.72656C61.3542 5.75781 61.3255 5.82552 61.3047 5.92969C61.2839 6.03385 61.1432 6.28385 60.8828 6.67969L60.9922 6.74219L61.0469 6.875L61.3125 6.95312C61.4635 6.84896 61.625 6.77865 61.7969 6.74219L61.8438 6.64844C61.901 6.66927 61.9427 6.67969 61.9688 6.67969C62.0208 6.67969 62.0703 6.64844 62.1172 6.58594L62.3047 6.55469L62.4219 6.35938H62.5312L62.6094 6.1875C62.75 6.1875 62.8828 6.1224 63.0078 5.99219V5.91406ZM71.4688 10.8594L71.2422 10.9688L71.1953 11.1094C71.1068 11.1302 71.026 11.1589 70.9531 11.1953L70.875 11.1406L70.7578 11.1953L70.5078 10.8906V10.5391L70.3906 10.4375L70.4219 9.94531L70.3281 8.92188L70.3906 8.58594L70.2812 8.40625L70.4219 8.32812L70.3281 8.1875L70.3594 8.03906L70.4375 7.97656L70.4219 7.78125H70.5078V7.46094L70.5391 7.30469C70.4974 7.29427 70.4479 7.24479 70.3906 7.15625L70.1406 7.27344C70.0729 7.40365 70.0026 7.48958 69.9297 7.53125L69.9141 7.70312L69.7344 7.78125L69.7031 8.00781L69.5938 8.08594V8.20312C69.4896 8.28125 69.4141 8.375 69.3672 8.48438L69.2578 8.55469L69.0156 8.98438L68.6328 9.36719L68.5078 9.57812L68.1719 9.92969L68.0859 10.1172L67.625 10.4375L67.1094 11.0469L66.9375 11.0938C66.8854 11.1042 66.8047 11.1589 66.6953 11.2578H66.6484C66.5599 11.2578 66.4896 11.1719 66.4375 11C66.0365 10.8438 65.8255 10.6198 65.8047 10.3281L65.9297 10.25C65.8568 10.0469 65.8151 9.83854 65.8047 9.625L65.7188 9.5625L65.7734 9.47656C65.7943 9.44531 65.8099 9.39323 65.8203 9.32031C65.8307 9.24219 65.8464 9.13542 65.8672 9L65.9766 8.40625C65.9661 8.38542 65.9609 8.34896 65.9609 8.29688C65.9609 8.23958 65.9766 8.17969 66.0078 8.11719C65.987 8.03906 65.9766 7.98177 65.9766 7.94531C65.9766 7.90365 65.987 7.84896 66.0078 7.78125L66.0703 7.76562C66.1589 7.64583 66.2031 7.54427 66.2031 7.46094C66.2031 7.40885 66.1849 7.36719 66.1484 7.33594C66.1172 7.30469 66.1016 7.28385 66.1016 7.27344C66.1016 7.23698 66.1302 7.21094 66.1875 7.19531C66.1094 7.17969 66.0703 7.14583 66.0703 7.09375C66.0703 7.04167 66.125 7.01562 66.2344 7.01562V6.98438C66.2344 6.86979 66.2656 6.76562 66.3281 6.67188C66.3958 6.57292 66.4323 6.50521 66.4375 6.46875L66.3281 6.4375L66.5391 6.10156V6.02344C66.5391 5.79948 66.612 5.60677 66.7578 5.44531L66.7422 5.15625L66.8125 5.10938C66.776 5.0625 66.7578 5.01042 66.7578 4.95312C66.7578 4.92188 66.7917 4.90625 66.8594 4.90625V4.64844C66.9115 4.63281 66.9375 4.60677 66.9375 4.57031C66.9375 4.53385 66.9323 4.50521 66.9219 4.48438C66.9531 4.4375 67.026 4.35156 67.1406 4.22656C67.2552 4.10156 67.3307 3.9974 67.3672 3.91406H67.4141C67.5339 3.91406 67.5938 3.88542 67.5938 3.82812C67.5938 3.80729 67.5781 3.78125 67.5469 3.75C67.7604 3.75 67.8724 3.70833 67.8828 3.625L68.1719 3.47656L69 3.54688V3.60938L69.6719 3.75H69.7344C69.8333 3.75 69.8828 3.79427 69.8828 3.88281L69.9609 3.85156C69.987 3.94531 70.0469 3.99219 70.1406 3.99219L70.2188 3.97656L70.3594 4.11719L70.6953 4.20312V4.34375C70.8464 4.24479 71.0391 4.15885 71.2734 4.08594V4.34375H71.1953L71.3516 4.42188L71.3203 4.45312L71.4453 4.85938L71.3047 5.01562L71.2422 5.28125C71.2214 5.36979 71.1719 5.47917 71.0938 5.60938L71.1953 5.8125C71.1849 5.82812 71.1536 5.86979 71.1016 5.9375C71.0547 6.00521 71.0312 6.125 71.0312 6.29688C71.0625 6.3125 71.0781 6.33854 71.0781 6.375L71.0469 6.50781L71.0625 6.61719L71.0156 6.78906L71.0469 6.9375L70.9531 7.04688L70.9844 7.39844L70.9375 7.44531L70.9844 7.51562L70.9375 7.5625C70.9479 7.57292 70.9531 7.59375 70.9531 7.625C70.9531 7.67188 70.9375 7.71875 70.9062 7.76562L70.9531 7.86719L70.875 8.00781C70.8333 8.03385 70.8125 8.10938 70.8125 8.23438L70.875 8.4375L70.7266 8.63281C70.7786 8.74219 70.8281 8.8125 70.875 8.84375C70.7969 8.95312 70.7318 9.15885 70.6797 9.46094L70.8125 9.49219L70.7969 9.57812C70.8073 9.59375 70.8125 9.63021 70.8125 9.6875C70.8125 9.77083 70.7734 9.8776 70.6953 10.0078H70.7969L70.8438 10.25L71.1641 10.2812L71.2734 10.4844C71.2422 10.5052 71.2266 10.5234 71.2266 10.5391C71.2266 10.5807 71.2786 10.6328 71.3828 10.6953H71.3672C71.3464 10.6953 71.3359 10.7005 71.3359 10.7109C71.3359 10.737 71.3802 10.7865 71.4688 10.8594ZM70.6484 5.10938L70.5547 4.82031L70.2969 4.74219L69.8516 4.34375C69.7839 4.30208 69.7292 4.28125 69.6875 4.28125C69.6615 4.28125 69.6198 4.29167 69.5625 4.3125L69.4844 4.23438H69.2266L69.1484 4.13281L68.9688 4.20312L68.8906 4.13281L68.7578 4.17188L68.5078 4.13281C68.388 4.13281 68.2005 4.19271 67.9453 4.3125L67.9766 4.375L67.8359 4.42188L67.8047 4.48438L67.625 4.50781V4.60156C67.5208 4.66406 67.3984 4.83333 67.2578 5.10938C67.1693 5.43229 67.0729 5.70573 66.9688 5.92969L67.0938 5.99219L66.8906 6.17188L66.9531 6.29688C66.8594 6.4375 66.8125 6.60156 66.8125 6.78906V6.875L66.6953 7.04688V7.32031C66.612 7.41406 66.5651 7.51042 66.5547 7.60938L66.4922 7.67188V7.96094L66.4375 8.03906C66.4375 8.14323 66.4167 8.28646 66.375 8.46875L66.4609 8.66406C66.3932 8.6901 66.3177 8.75521 66.2344 8.85938L66.2969 8.98438L66.2031 9.10938L66.3281 9.42969L66.1875 9.625L66.2031 10.0078L66.1562 10.1875L66.2344 10.2344L66.2656 10.3438C66.3542 10.3802 66.4297 10.4401 66.4922 10.5234L66.8594 10.4375C66.9271 10.2812 67.0443 10.1979 67.2109 10.1875L67.1797 10.0703C67.3411 10.0286 67.4245 10.0078 67.4297 10.0078C67.4401 10.0026 67.4531 9.97135 67.4688 9.91406C67.4844 9.85677 67.5312 9.80208 67.6094 9.75H67.6406C67.6719 9.75 67.6875 9.72917 67.6875 9.6875L67.9766 9.35156H67.9141L68.0859 9.19531C68.1432 9.13802 68.2292 9.08854 68.3438 9.04688L68.4609 8.74219C68.6589 8.65885 68.7708 8.54688 68.7969 8.40625H68.8906L69.0469 8.20312L69.0156 8.07031L69.1641 8.03906C69.1432 8.0026 69.1328 7.97656 69.1328 7.96094C69.1328 7.94531 69.1693 7.88802 69.2422 7.78906C69.3151 7.6849 69.3724 7.59896 69.4141 7.53125L69.4844 7.5625C69.5 7.4375 69.5573 7.34115 69.6562 7.27344C69.6771 7.1901 69.7188 7.125 69.7812 7.07812C69.8438 7.02604 69.888 7 69.9141 7H70.0234L70.0391 6.80469C70.0599 6.78385 70.0703 6.76302 70.0703 6.74219C70.0703 6.71094 70.0547 6.67969 70.0234 6.64844C70.1172 6.49219 70.1927 6.39583 70.25 6.35938L70.2812 6.1875L70.3906 6.10156L70.3594 5.96094C70.4219 5.86198 70.4609 5.76562 70.4766 5.67188L70.6172 5.53125L70.6484 5.10938ZM86.3828 9.64062L86.2969 9.76562L86.1875 9.79688C86.1875 9.90104 86.151 9.98177 86.0781 10.0391C86.0104 10.0964 85.9766 10.1406 85.9766 10.1719V10.2031L85.9297 10.2344C85.8984 10.3073 85.8411 10.3724 85.7578 10.4297C85.6797 10.4818 85.6302 10.5078 85.6094 10.5078L85.4688 10.4844L85.4531 10.6484C85.3646 10.7318 85.3151 10.7734 85.3047 10.7734C85.2943 10.7734 85.2266 10.763 85.1016 10.7422C84.987 10.8099 84.8698 10.8438 84.75 10.8438C84.6667 10.8438 84.4896 10.8203 84.2188 10.7734C84.1823 10.7214 84.1458 10.6953 84.1094 10.6953C84.0729 10.6953 84.0286 10.7109 83.9766 10.7422C83.9505 10.6693 83.8672 10.5964 83.7266 10.5234L83.7578 10.4062C83.638 10.3542 83.5781 10.2474 83.5781 10.0859L83.5938 9.94531L83.4062 9.79688L83.3047 9.32031L83.1641 9.0625V8.95312L83.0547 8.4375L83.0703 8.23438L82.9531 7.67188L82.9375 7.42969L82.9688 6.9375L82.9062 6.3125L82.6953 6.53906L82.3594 7.125L82.2188 7.46094C82.0104 7.60677 81.8776 7.77865 81.8203 7.97656C81.7109 7.97656 81.6562 8.09375 81.6562 8.32812C81.5938 8.39583 81.5391 8.47135 81.4922 8.55469C81.4453 8.63281 81.4062 8.69531 81.375 8.74219C81.349 8.78906 81.3359 8.8151 81.3359 8.82031V8.85938C81.1589 9.02083 81.0469 9.20052 81 9.39844C80.974 9.41927 80.9219 9.5 80.8438 9.64062C80.7656 9.78125 80.6276 9.96354 80.4297 10.1875C80.3307 10.2292 80.25 10.3255 80.1875 10.4766C80.1458 10.5755 80.0885 10.6354 80.0156 10.6562C79.9479 10.6771 79.9141 10.7318 79.9141 10.8203V10.8906C79.8307 10.8906 79.6719 10.9427 79.4375 11.0469C79.3438 11.0365 79.2786 10.974 79.2422 10.8594L79.2109 10.6328L79.1172 10.4375V10.25L78.9844 9.71875C78.9948 9.6875 79 9.65104 79 9.60938C79 9.55729 78.974 9.48698 78.9219 9.39844L78.9844 8.85938L78.9219 8.74219L78.9844 8.48438L78.9531 8.34375V8.23438L78.8906 8.08594L79 7.85156L78.9219 7.35156L78.9531 7.21094L79 6.61719L78.8906 6.25L78.9219 5.96094L78.8438 5.73438C78.7448 5.48958 78.6823 5.33073 78.6562 5.25781C78.6354 5.17969 78.6016 5.14062 78.5547 5.14062C78.5443 5.13021 78.5234 5.125 78.4922 5.125C78.4557 5.125 78.3229 5.20052 78.0938 5.35156L77.8672 5.65625L77.6719 5.85156L77.2422 6.4375L77.2109 6.61719L76.9531 6.90625L76.8438 7.21094C76.7812 7.26823 76.7292 7.35938 76.6875 7.48438C76.651 7.60938 76.6068 7.67969 76.5547 7.69531C76.5078 7.71094 76.4427 7.75 76.3594 7.8125L76.3438 8.10156C76.2969 8.16927 76.25 8.2526 76.2031 8.35156C76.1562 8.45052 76.099 8.53125 76.0312 8.59375C75.9635 8.65625 75.9141 8.76562 75.8828 8.92188C75.763 8.92188 75.7031 8.99479 75.7031 9.14062C75.6719 9.25 75.6146 9.30469 75.5312 9.30469C75.4896 9.40885 75.4688 9.48438 75.4688 9.53125V9.57812C75.3385 9.6875 75.2734 9.75521 75.2734 9.78125C75.2734 9.8125 75.2891 9.84635 75.3203 9.88281C75.2005 9.9401 75.1068 10.0391 75.0391 10.1797C74.9714 10.3203 74.9167 10.4062 74.875 10.4375V10.5078C74.875 10.5807 74.8542 10.6328 74.8125 10.6641C74.7708 10.6953 74.6979 10.763 74.5938 10.8672C74.4948 10.9661 74.4115 11.0156 74.3438 11.0156C74.2656 11.0156 74.2083 10.8932 74.1719 10.6484C74.1823 10.6276 74.1875 10.5964 74.1875 10.5547C74.1875 10.4714 74.151 10.401 74.0781 10.3438V10.1172C74.0781 10.0339 74.099 9.95052 74.1406 9.86719L74.0625 9.51562L74.0781 9.25781L74.0625 8.98438V8.92188C74.0625 8.80729 74.0885 8.72135 74.1406 8.66406L74.1719 8.53906C74.1719 8.4974 74.1641 8.41667 74.1484 8.29688C74.1328 8.17708 74.125 8.10677 74.125 8.08594V7.82812C74.1562 7.72396 74.2031 7.64062 74.2656 7.57812L74.1406 7.41406C74.1823 7.3776 74.1953 7.34115 74.1797 7.30469C74.1641 7.26302 74.1562 7.23177 74.1562 7.21094C74.1562 7.17448 74.1823 7.11198 74.2344 7.02344C74.2917 6.92969 74.3281 6.83594 74.3438 6.74219L74.2344 6.4375L74.2812 6.28125L74.1875 5.73438L74.2344 5.51562L74.1406 5.07812L74.1719 4.78906L74.0625 4.53906C74.1719 4.28906 74.2786 4.16667 74.3828 4.17188L74.4453 4.20312L74.4922 4.42188C74.6276 4.45312 74.6953 4.53906 74.6953 4.67969L74.6641 5.01562C74.6641 5.08333 74.7083 5.125 74.7969 5.14062C74.6979 5.29167 74.6484 5.40365 74.6484 5.47656V5.53125L74.7344 6.34375L74.6953 6.95312L74.6328 7.125L74.6953 7.32031L74.6484 7.39844L74.7188 7.51562C74.6406 7.57292 74.6016 7.64062 74.6016 7.71875L74.6328 7.85156C74.6328 7.92969 74.6016 7.99219 74.5391 8.03906L74.6016 8.48438L74.5391 8.64844C74.4922 8.76302 74.4766 8.85938 74.4922 8.9375C74.513 9.01562 74.5234 9.07292 74.5234 9.10938C74.5234 9.17708 74.513 9.22135 74.4922 9.24219C74.5443 9.34635 74.5703 9.40365 74.5703 9.41406C74.5703 9.45573 74.5443 9.51042 74.4922 9.57812L74.6484 9.6875L74.9531 9.28906L75.0156 9.0625C75.0729 9.03125 75.1198 8.98698 75.1562 8.92969C75.1927 8.86719 75.2188 8.80208 75.2344 8.73438C75.25 8.66667 75.3125 8.55729 75.4219 8.40625C75.4427 8.40625 75.474 8.38021 75.5156 8.32812C75.5625 8.27604 75.6172 8.20052 75.6797 8.10156C75.7474 8.0026 75.8255 7.90625 75.9141 7.8125C75.9297 7.76042 75.9531 7.70833 75.9844 7.65625C76.0208 7.59896 76.0547 7.55208 76.0859 7.51562C76.1224 7.47917 76.1667 7.3724 76.2188 7.19531L76.3984 6.875L76.4219 6.75781C76.4375 6.71615 76.4896 6.64583 76.5781 6.54688L76.875 6.23438C76.9115 6.23438 76.974 6.14062 77.0625 5.95312C77.151 5.76562 77.25 5.6224 77.3594 5.52344C77.4688 5.41927 77.526 5.33073 77.5312 5.25781C77.625 5.24219 77.6719 5.19271 77.6719 5.10938C77.7865 5.0625 77.8516 4.98958 77.8672 4.89062L77.9141 4.90625C77.9661 4.90625 78.026 4.80469 78.0938 4.60156C78.25 4.46094 78.362 4.39062 78.4297 4.39062C78.4349 4.39062 78.5625 4.42188 78.8125 4.48438C78.8333 4.52604 78.8438 4.5599 78.8438 4.58594C78.8438 4.60677 78.8333 4.63802 78.8125 4.67969L78.9219 4.71094C78.9219 4.76302 78.9974 4.89583 79.1484 5.10938V5.36719L79.2891 5.53125V5.73438C79.4089 5.98958 79.4688 6.19792 79.4688 6.35938L79.4062 6.61719L79.4688 6.84375L79.3203 7.01562L79.4062 7.51562C79.3698 7.625 79.3516 7.7526 79.3516 7.89844L79.4062 8.32812L79.3672 8.46875L79.4062 8.63281L79.3516 8.69531C79.4297 9.03385 79.4688 9.32292 79.4688 9.5625L79.4375 9.6875L79.3672 9.75C79.4453 9.86458 79.4844 9.98698 79.4844 10.1172L79.7578 10.2031L80.4922 9.30469C80.5234 9.27344 80.5703 9.1849 80.6328 9.03906C80.7005 8.88802 80.7604 8.76823 80.8125 8.67969C80.8698 8.67969 80.9089 8.60417 80.9297 8.45312C80.9557 8.29688 81.0182 8.20833 81.1172 8.1875C81.1172 8.10938 81.1276 8.05469 81.1484 8.02344C81.1693 7.98698 81.2604 7.91667 81.4219 7.8125V7.78125C81.4219 7.63542 81.5234 7.48177 81.7266 7.32031C81.7734 7.15885 81.8411 7.01042 81.9297 6.875C82.0755 6.72917 82.1693 6.61458 82.2109 6.53125L82.375 6.21875C82.4427 6.09896 82.4922 5.97656 82.5234 5.85156C82.6953 5.78906 82.8385 5.58073 82.9531 5.22656C83.0729 5.19531 83.1536 5.08333 83.1953 4.89062L83.4531 4.77344L83.6719 4.89062L83.5938 4.96875L83.7031 5.07812C83.6198 5.10938 83.5781 5.14844 83.5781 5.19531C83.5781 5.24219 83.6042 5.27865 83.6562 5.30469L83.5469 5.51562L83.4531 6.25C83.5 6.27604 83.5365 6.3125 83.5625 6.35938C83.4792 6.48438 83.4375 6.66667 83.4375 6.90625L83.4531 7.19531L83.4219 7.30469L83.4688 7.51562C83.4583 7.53125 83.4375 7.55469 83.4062 7.58594C83.3802 7.61198 83.3672 7.64062 83.3672 7.67188C83.3672 7.70312 83.3854 7.75 83.4219 7.8125C83.4844 7.83333 83.5156 7.90365 83.5156 8.02344C83.5156 8.05469 83.5 8.08594 83.4688 8.11719C83.4896 8.14323 83.5 8.17188 83.5 8.20312C83.5 8.21875 83.4844 8.25 83.4531 8.29688C83.4531 8.5 83.5026 8.71615 83.6016 8.94531C83.6432 9.04427 83.6849 9.23438 83.7266 9.51562L83.9297 9.625L84.0078 9.97656C84.1276 10.0391 84.2031 10.1094 84.2344 10.1875L84.4297 10.2656L84.6641 10.3125C84.7474 10.3333 84.8073 10.3438 84.8438 10.3438C84.901 10.3438 84.9766 10.3255 85.0703 10.2891C85.1641 10.2526 85.2396 10.2161 85.2969 10.1797C85.3542 10.138 85.4531 10.0859 85.5938 10.0234C85.6823 9.90885 85.763 9.78125 85.8359 9.64062L86.0469 9.54688L86.1406 9.38281L86.3594 9.39844C86.3594 9.54427 86.3672 9.625 86.3828 9.64062ZM92.8359 9.76562L92.7266 9.89062C92.7005 9.92708 92.6302 10.0885 92.5156 10.375L92.2891 10.5391L92.3047 10.6328H92.0938L91.8906 10.8594H91.6172L91.4375 10.9531C91.3854 10.9531 91.3281 10.9844 91.2656 11.0469C91.1979 11.0156 91.1276 11 91.0547 11C90.9974 11 90.9297 11.0156 90.8516 11.0469V11.1406L90.5625 11.1094L90.3359 11.1406L90.125 11.1094L90.0938 11.1562L90.0156 11.1094L89.875 11.1562H89.7734C89.7005 11.1562 89.6224 11.1693 89.5391 11.1953L89.375 11.1406L89.25 11.2266L89.1875 11.1562L89.0703 11.2266C88.9349 11.1484 88.8229 11.1094 88.7344 11.1094C88.7031 11.1094 88.6562 11.125 88.5938 11.1562C88.526 11.1198 88.4349 11.0964 88.3203 11.0859L87.9688 11.0469C87.8594 11.0469 87.7734 11.0573 87.7109 11.0781L87.6797 11.0156L87.5391 11.1094C87.5078 11.0677 87.4688 11.0469 87.4219 11.0469L87.375 10.9531C87.0469 10.9375 86.8828 10.7031 86.8828 10.25L87.2188 10.2031L87.2031 10.0859L87.2812 9.97656L87.3281 10.0703H87.4219V10.1484L87.5703 10.0703C87.6536 10.0859 87.6953 10.125 87.6953 10.1875C87.6953 10.2188 87.6797 10.2656 87.6484 10.3281L87.7891 10.3438V10.5859L88.1953 10.6484L88.3516 10.7891L88.3984 10.7109L90.4453 10.5859L91.1484 10.4531L91.1875 10.375L91.3594 10.3438L91.4062 10.2812C91.651 10.2344 91.8646 10.1484 92.0469 10.0234L92.0938 10.0703L92.125 9.97656L92.2422 9.88281L92.2578 9.82812L92.1797 9.71875L92.2109 9.57812L92.0312 9.42969L92 9.30469C91.9167 9.27344 91.8646 9.24219 91.8438 9.21094L91.7734 9.24219L91.6172 9.09375H91.5547L91.4844 9H91.3281C91.2969 8.91667 91.237 8.875 91.1484 8.875L91.0391 8.89062C90.862 8.89062 90.7031 8.83594 90.5625 8.72656H90.3984L90.1953 8.60156L90.0938 8.66406L90.0469 8.58594H89.9375L89.7578 8.4375L89.2812 8.23438L89.1016 8.07031L88.5625 7.97656L88.5469 7.92969L88.0938 7.60938L87.8906 7.09375L87.7266 6.84375L87.6797 6.10156L87.7266 6.02344C87.7266 5.8151 87.7812 5.63281 87.8906 5.47656C88.0885 5.36198 88.1901 5.25 88.1953 5.14062L88.3047 5.15625C88.3464 5.02604 88.4453 4.89844 88.6016 4.77344L88.7969 4.60156L89.7266 4.20312L90.1953 4.11719L90.6562 3.97656L91.375 4.02344L91.4062 4.11719H91.4531C91.5417 4.11719 91.612 4.14583 91.6641 4.20312V4.34375L91.8594 4.48438C91.8021 4.73438 91.7734 4.875 91.7734 4.90625C91.7734 5 91.7266 5.04688 91.6328 5.04688C91.5911 5.04688 91.5156 4.9349 91.4062 4.71094L90.9766 4.67969L90.8672 4.71094C90.7005 4.58594 90.6042 4.52344 90.5781 4.52344C90.5469 4.52344 90.5312 4.53906 90.5312 4.57031L90.3828 4.67969C90.2057 4.67969 90.0625 4.72656 89.9531 4.82031C89.7552 4.85677 89.6172 4.92188 89.5391 5.01562H89.3594L89.2266 5.11719C89.1901 5.14323 89.0859 5.17969 88.9141 5.22656L88.8516 5.30469L88.7656 5.35156L88.5469 5.5625L88.3984 5.79688C88.2474 5.89583 88.1693 5.96094 88.1641 5.99219L88 6.64844L88.0781 6.69531V6.74219C88.0781 6.91927 88.1641 7.07031 88.3359 7.19531V7.27344L88.7656 7.53125H88.8672L89.1016 7.76562H89.4219L89.6172 7.92969L89.9844 7.97656L90.0938 8.07031L90.7812 8.28125C90.7812 8.34375 90.8203 8.375 90.8984 8.375C91.0286 8.375 91.1484 8.40625 91.2578 8.46875C91.3672 8.53125 91.4714 8.57031 91.5703 8.58594L91.5859 8.66406L91.7266 8.74219H92.0312L92.3047 8.92188C92.3359 9.03646 92.4062 9.13281 92.5156 9.21094L92.5 9.25781L92.5781 9.36719L92.7188 9.39844L92.6562 9.51562C92.7552 9.59896 92.8151 9.68229 92.8359 9.76562ZM103.812 8.45312L103.562 8.72656C103.557 8.8151 103.547 8.88802 103.531 8.94531C103.521 9.00781 103.503 9.0651 103.477 9.11719C103.445 9.16927 103.406 9.21875 103.359 9.26562C103.333 9.29167 103.281 9.38281 103.203 9.53906C103.146 9.64844 103.083 9.7474 103.016 9.83594C102.948 9.92969 102.875 10.013 102.797 10.0859C102.714 10.1589 102.622 10.2266 102.523 10.2891C102.378 10.3672 102.247 10.4609 102.133 10.5703L102 10.5938C101.964 10.599 101.865 10.6641 101.703 10.7891L101.523 10.8047L101.156 11.0781L101.031 11L100.695 11.1562L100.375 11.0781L100.281 11.1953L100.086 11.1562L99.8984 11.1953L99.8438 11.1406L99.625 11.1016C99.5365 11.0859 99.4609 11.0521 99.3984 11L99.1406 10.7891L98.9062 10.4375C98.7969 10.3177 98.7422 10.1745 98.7422 10.0078V9.94531L98.5703 9.67188V9.42969L98.5 9.33594L98.5312 9.01562L98.4688 8.75781L98.5703 8.50781L98.5 8.39062L98.6641 8.13281L98.6172 7.79688L98.6562 7.65625C98.6771 7.53125 98.7266 7.42448 98.8047 7.33594L98.8203 6.96875L98.9375 6.875L98.8906 6.77344L99 6.61719C99.0312 6.41927 99.1432 6.08333 99.3359 5.60938L99.6094 5.33594L99.6875 5.14062L99.8125 4.92188C99.8385 4.79688 99.8932 4.67969 99.9766 4.57031C100.086 4.57031 100.193 4.52604 100.297 4.4375C100.286 4.26042 100.445 4.17188 100.773 4.17188C100.82 4.17188 100.922 4.19792 101.078 4.25C101.234 4.30208 101.336 4.38802 101.383 4.50781C101.544 4.50781 101.625 4.5651 101.625 4.67969L102.086 4.69531L102.102 4.84375L102.195 4.95312L102.18 5.14062L102.297 5.28906L102.281 5.49219L102.312 5.60938L102.281 5.92969L102.359 6.03906V6.20312L102.406 6.53906L102.086 6.71094L101.75 6.3125L101.719 5.79688L101.656 5.60938V5.41406L101.469 5.1875C101.411 5.11458 101.292 5.02083 101.109 4.90625L100.891 5H100.695C100.576 5.01562 100.461 5.0599 100.352 5.13281C100.247 5.20573 100.128 5.36198 99.9922 5.60156C99.8568 5.83594 99.7448 5.98177 99.6562 6.03906L99.6406 6.26562L99.5078 6.375V6.69531L99.3516 6.90625L99.2891 7.125C99.2318 7.23958 99.1875 7.36458 99.1562 7.5C99.1302 7.63542 99.1042 7.70833 99.0781 7.71875L99.0938 7.97656L98.9531 8.3125L98.9844 8.55469L98.9219 8.57031L98.9062 9.17969L98.875 9.19531L98.9062 9.33594L98.8359 9.39844L99.0703 9.67188C99.0964 9.70312 99.125 9.78906 99.1562 9.92969L99.1094 9.97656L99.2734 10.2031L99.3984 10.25L99.4141 10.4062L100.266 10.6016C100.339 10.5234 100.406 10.4844 100.469 10.4844C100.495 10.4844 100.549 10.4974 100.633 10.5234C100.727 10.4557 100.799 10.4219 100.852 10.4219L100.969 10.4375C100.974 10.4375 101.01 10.4167 101.078 10.375C101.146 10.3281 101.247 10.3021 101.383 10.2969C101.471 10.1146 101.583 10.0234 101.719 10.0234C101.771 10.0234 101.812 10.0286 101.844 10.0391C102.115 9.92448 102.25 9.82292 102.25 9.73438C102.307 9.61979 102.419 9.5625 102.586 9.5625H102.648C103.086 9.07812 103.294 8.8151 103.273 8.77344C103.393 8.66927 103.484 8.52083 103.547 8.32812L103.688 8.23438L103.703 8.02344C103.776 8.08073 103.812 8.22396 103.812 8.45312ZM110.117 7.19531L110.008 7.53125L110.07 7.67188L110.016 8.04688C110.01 8.09375 109.971 8.17708 109.898 8.29688V8.48438L109.781 8.80469L109.688 8.94531C109.656 8.98177 109.604 9.11719 109.531 9.35156L109.414 9.39844L109.352 9.60938L109.18 9.71875L109.047 10.0078L108.812 10.1172L108.789 10.3281L108.586 10.4062C108.487 10.5365 108.422 10.6198 108.391 10.6562C108.365 10.6927 108.294 10.7292 108.18 10.7656C108.07 10.8021 107.997 10.8333 107.961 10.8594C107.935 11.026 107.786 11.1198 107.516 11.1406C107.453 11.2188 107.378 11.2578 107.289 11.2578C107.263 11.2578 107.221 11.2474 107.164 11.2266C107.018 11.3568 106.883 11.4349 106.758 11.4609L106.633 11.6562L106.422 11.5312L106.375 11.625L106.141 11.5312L105.578 11.4766C105.484 11.2891 105.346 11.099 105.164 10.9062L105.227 10.6953L105 10.1172L105.094 9.92969L105 9.49219L105.094 9.24219C105.094 9.21615 105.086 9.14844 105.07 9.03906C105.055 8.92448 105.047 8.85156 105.047 8.82031C105.047 8.71094 105.102 8.6224 105.211 8.55469V8.46875C105.211 8.34896 105.242 8.23177 105.305 8.11719H105.398C105.477 8.02865 105.516 7.92708 105.516 7.8125L105.469 7.70312L105.516 7.46094V7.30469C105.609 7.1901 105.656 7.07292 105.656 6.95312L105.609 6.69531C105.609 6.61719 105.625 6.55469 105.656 6.50781C105.818 6.42448 105.898 6.34375 105.898 6.26562C105.898 6.21354 105.878 6.15885 105.836 6.10156L105.992 5.82812C106.013 5.78646 106.044 5.7526 106.086 5.72656C106.133 5.70052 106.161 5.68229 106.172 5.67188L106.141 5.51562C106.307 5.5 106.391 5.41406 106.391 5.25781C106.391 5.16406 106.375 5.06771 106.344 4.96875C106.698 4.96875 106.932 4.78646 107.047 4.42188H107.148C107.221 4.34896 107.273 4.3125 107.305 4.3125C107.315 4.3125 107.359 4.32552 107.438 4.35156C107.521 4.3776 107.648 4.39062 107.82 4.39062L108.07 4.28125V4.39062C108.18 4.40104 108.315 4.46094 108.477 4.57031H108.695C108.747 4.67448 108.797 4.72656 108.844 4.72656L108.875 4.71094C108.995 4.89844 109.117 5.03125 109.242 5.10938L109.32 5.30469L109.469 5.36719L109.719 5.73438L109.977 6.46875V6.61719L110.117 7.19531ZM109.609 7.64062C109.672 7.5625 109.703 7.4974 109.703 7.44531C109.703 7.40885 109.685 7.3724 109.648 7.33594C109.612 7.29427 109.594 7.26823 109.594 7.25781H109.688C109.672 7.19531 109.635 7.14062 109.578 7.09375L109.609 7.04688L109.5 6.78906L109.531 6.4375L109.383 6.1875C109.268 6.11458 109.211 6.0599 109.211 6.02344V5.97656C109.211 5.9349 109.19 5.90885 109.148 5.89844C109.112 5.88281 109.094 5.85938 109.094 5.82812V5.8125C109.094 5.79688 109.117 5.72917 109.164 5.60938L109.062 5.53125L108.906 5.51562L108.844 5.39844L108.906 5.30469L108.695 5.19531L108.539 5.04688L108.086 4.85938L107.898 4.82031C107.591 4.82031 107.44 4.90625 107.445 5.07812L107.469 5.60938L107.148 5.625L106.648 5.92969L106.602 6.10156L106.422 6.21875L106.344 6.67969L106.188 6.78906C106.156 6.80469 106.141 6.88021 106.141 7.01562C106.141 7.13542 106.151 7.23177 106.172 7.30469L105.977 7.41406C105.935 7.4349 105.914 7.53646 105.914 7.71875C105.914 7.80208 105.865 7.88281 105.766 7.96094V8.11719L105.625 8.34375V8.48438L105.578 8.58594L105.609 8.80469L105.398 9.32031L105.469 9.49219V9.86719L105.398 10.1328L105.414 10.5234L105.648 10.8281C105.674 10.8698 105.768 10.9271 105.93 11L105.977 11.0781L106.086 11.0469L106.188 11.0781L106.375 11L106.758 11.0156L106.938 10.9688L106.984 10.8594L107.148 10.875C107.315 10.875 107.398 10.8203 107.398 10.7109L107.625 10.7734L107.672 10.6484L107.82 10.6328L107.898 10.4531C108.013 10.3646 108.076 10.2917 108.086 10.2344H108.344L108.422 10.0703L108.695 9.82812L108.797 9.67969C108.839 9.6224 108.885 9.57812 108.938 9.54688L109.164 9.42969C109.19 9.28385 109.237 9.13542 109.305 8.98438L109.273 8.84375L109.5 8.74219L109.469 8.66406C109.531 8.57552 109.589 8.5 109.641 8.4375H109.562C109.604 8.38021 109.625 8.33333 109.625 8.29688C109.625 8.26562 109.617 8.22656 109.602 8.17969C109.586 8.13281 109.578 8.10156 109.578 8.08594C109.578 8.01823 109.594 7.94531 109.625 7.86719C109.656 7.78906 109.672 7.73958 109.672 7.71875C109.672 7.68229 109.651 7.65625 109.609 7.64062ZM124.336 9.64062L124.25 9.76562L124.141 9.79688C124.141 9.90104 124.104 9.98177 124.031 10.0391C123.964 10.0964 123.93 10.1406 123.93 10.1719V10.2031L123.883 10.2344C123.852 10.3073 123.794 10.3724 123.711 10.4297C123.633 10.4818 123.583 10.5078 123.562 10.5078L123.422 10.4844L123.406 10.6484C123.318 10.7318 123.268 10.7734 123.258 10.7734C123.247 10.7734 123.18 10.763 123.055 10.7422C122.94 10.8099 122.823 10.8438 122.703 10.8438C122.62 10.8438 122.443 10.8203 122.172 10.7734C122.135 10.7214 122.099 10.6953 122.062 10.6953C122.026 10.6953 121.982 10.7109 121.93 10.7422C121.904 10.6693 121.82 10.5964 121.68 10.5234L121.711 10.4062C121.591 10.3542 121.531 10.2474 121.531 10.0859L121.547 9.94531L121.359 9.79688L121.258 9.32031L121.117 9.0625V8.95312L121.008 8.4375L121.023 8.23438L120.906 7.67188L120.891 7.42969L120.922 6.9375L120.859 6.3125L120.648 6.53906L120.312 7.125L120.172 7.46094C119.964 7.60677 119.831 7.77865 119.773 7.97656C119.664 7.97656 119.609 8.09375 119.609 8.32812C119.547 8.39583 119.492 8.47135 119.445 8.55469C119.398 8.63281 119.359 8.69531 119.328 8.74219C119.302 8.78906 119.289 8.8151 119.289 8.82031V8.85938C119.112 9.02083 119 9.20052 118.953 9.39844C118.927 9.41927 118.875 9.5 118.797 9.64062C118.719 9.78125 118.581 9.96354 118.383 10.1875C118.284 10.2292 118.203 10.3255 118.141 10.4766C118.099 10.5755 118.042 10.6354 117.969 10.6562C117.901 10.6771 117.867 10.7318 117.867 10.8203V10.8906C117.784 10.8906 117.625 10.9427 117.391 11.0469C117.297 11.0365 117.232 10.974 117.195 10.8594L117.164 10.6328L117.07 10.4375V10.25L116.938 9.71875C116.948 9.6875 116.953 9.65104 116.953 9.60938C116.953 9.55729 116.927 9.48698 116.875 9.39844L116.938 8.85938L116.875 8.74219L116.938 8.48438L116.906 8.34375V8.23438L116.844 8.08594L116.953 7.85156L116.875 7.35156L116.906 7.21094L116.953 6.61719L116.844 6.25L116.875 5.96094L116.797 5.73438C116.698 5.48958 116.635 5.33073 116.609 5.25781C116.589 5.17969 116.555 5.14062 116.508 5.14062C116.497 5.13021 116.477 5.125 116.445 5.125C116.409 5.125 116.276 5.20052 116.047 5.35156L115.82 5.65625L115.625 5.85156L115.195 6.4375L115.164 6.61719L114.906 6.90625L114.797 7.21094C114.734 7.26823 114.682 7.35938 114.641 7.48438C114.604 7.60938 114.56 7.67969 114.508 7.69531C114.461 7.71094 114.396 7.75 114.312 7.8125L114.297 8.10156C114.25 8.16927 114.203 8.2526 114.156 8.35156C114.109 8.45052 114.052 8.53125 113.984 8.59375C113.917 8.65625 113.867 8.76562 113.836 8.92188C113.716 8.92188 113.656 8.99479 113.656 9.14062C113.625 9.25 113.568 9.30469 113.484 9.30469C113.443 9.40885 113.422 9.48438 113.422 9.53125V9.57812C113.292 9.6875 113.227 9.75521 113.227 9.78125C113.227 9.8125 113.242 9.84635 113.273 9.88281C113.154 9.9401 113.06 10.0391 112.992 10.1797C112.924 10.3203 112.87 10.4062 112.828 10.4375V10.5078C112.828 10.5807 112.807 10.6328 112.766 10.6641C112.724 10.6953 112.651 10.763 112.547 10.8672C112.448 10.9661 112.365 11.0156 112.297 11.0156C112.219 11.0156 112.161 10.8932 112.125 10.6484C112.135 10.6276 112.141 10.5964 112.141 10.5547C112.141 10.4714 112.104 10.401 112.031 10.3438V10.1172C112.031 10.0339 112.052 9.95052 112.094 9.86719L112.016 9.51562L112.031 9.25781L112.016 8.98438V8.92188C112.016 8.80729 112.042 8.72135 112.094 8.66406L112.125 8.53906C112.125 8.4974 112.117 8.41667 112.102 8.29688C112.086 8.17708 112.078 8.10677 112.078 8.08594V7.82812C112.109 7.72396 112.156 7.64062 112.219 7.57812L112.094 7.41406C112.135 7.3776 112.148 7.34115 112.133 7.30469C112.117 7.26302 112.109 7.23177 112.109 7.21094C112.109 7.17448 112.135 7.11198 112.188 7.02344C112.245 6.92969 112.281 6.83594 112.297 6.74219L112.188 6.4375L112.234 6.28125L112.141 5.73438L112.188 5.51562L112.094 5.07812L112.125 4.78906L112.016 4.53906C112.125 4.28906 112.232 4.16667 112.336 4.17188L112.398 4.20312L112.445 4.42188C112.581 4.45312 112.648 4.53906 112.648 4.67969L112.617 5.01562C112.617 5.08333 112.661 5.125 112.75 5.14062C112.651 5.29167 112.602 5.40365 112.602 5.47656V5.53125L112.688 6.34375L112.648 6.95312L112.586 7.125L112.648 7.32031L112.602 7.39844L112.672 7.51562C112.594 7.57292 112.555 7.64062 112.555 7.71875L112.586 7.85156C112.586 7.92969 112.555 7.99219 112.492 8.03906L112.555 8.48438L112.492 8.64844C112.445 8.76302 112.43 8.85938 112.445 8.9375C112.466 9.01562 112.477 9.07292 112.477 9.10938C112.477 9.17708 112.466 9.22135 112.445 9.24219C112.497 9.34635 112.523 9.40365 112.523 9.41406C112.523 9.45573 112.497 9.51042 112.445 9.57812L112.602 9.6875L112.906 9.28906L112.969 9.0625C113.026 9.03125 113.073 8.98698 113.109 8.92969C113.146 8.86719 113.172 8.80208 113.188 8.73438C113.203 8.66667 113.266 8.55729 113.375 8.40625C113.396 8.40625 113.427 8.38021 113.469 8.32812C113.516 8.27604 113.57 8.20052 113.633 8.10156C113.701 8.0026 113.779 7.90625 113.867 7.8125C113.883 7.76042 113.906 7.70833 113.938 7.65625C113.974 7.59896 114.008 7.55208 114.039 7.51562C114.076 7.47917 114.12 7.3724 114.172 7.19531L114.352 6.875L114.375 6.75781C114.391 6.71615 114.443 6.64583 114.531 6.54688L114.828 6.23438C114.865 6.23438 114.927 6.14062 115.016 5.95312C115.104 5.76562 115.203 5.6224 115.312 5.52344C115.422 5.41927 115.479 5.33073 115.484 5.25781C115.578 5.24219 115.625 5.19271 115.625 5.10938C115.74 5.0625 115.805 4.98958 115.82 4.89062L115.867 4.90625C115.919 4.90625 115.979 4.80469 116.047 4.60156C116.203 4.46094 116.315 4.39062 116.383 4.39062C116.388 4.39062 116.516 4.42188 116.766 4.48438C116.786 4.52604 116.797 4.5599 116.797 4.58594C116.797 4.60677 116.786 4.63802 116.766 4.67969L116.875 4.71094C116.875 4.76302 116.951 4.89583 117.102 5.10938V5.36719L117.242 5.53125V5.73438C117.362 5.98958 117.422 6.19792 117.422 6.35938L117.359 6.61719L117.422 6.84375L117.273 7.01562L117.359 7.51562C117.323 7.625 117.305 7.7526 117.305 7.89844L117.359 8.32812L117.32 8.46875L117.359 8.63281L117.305 8.69531C117.383 9.03385 117.422 9.32292 117.422 9.5625L117.391 9.6875L117.32 9.75C117.398 9.86458 117.438 9.98698 117.438 10.1172L117.711 10.2031L118.445 9.30469C118.477 9.27344 118.523 9.1849 118.586 9.03906C118.654 8.88802 118.714 8.76823 118.766 8.67969C118.823 8.67969 118.862 8.60417 118.883 8.45312C118.909 8.29688 118.971 8.20833 119.07 8.1875C119.07 8.10938 119.081 8.05469 119.102 8.02344C119.122 7.98698 119.214 7.91667 119.375 7.8125V7.78125C119.375 7.63542 119.477 7.48177 119.68 7.32031C119.727 7.15885 119.794 7.01042 119.883 6.875C120.029 6.72917 120.122 6.61458 120.164 6.53125L120.328 6.21875C120.396 6.09896 120.445 5.97656 120.477 5.85156C120.648 5.78906 120.792 5.58073 120.906 5.22656C121.026 5.19531 121.107 5.08333 121.148 4.89062L121.406 4.77344L121.625 4.89062L121.547 4.96875L121.656 5.07812C121.573 5.10938 121.531 5.14844 121.531 5.19531C121.531 5.24219 121.557 5.27865 121.609 5.30469L121.5 5.51562L121.406 6.25C121.453 6.27604 121.49 6.3125 121.516 6.35938C121.432 6.48438 121.391 6.66667 121.391 6.90625L121.406 7.19531L121.375 7.30469L121.422 7.51562C121.411 7.53125 121.391 7.55469 121.359 7.58594C121.333 7.61198 121.32 7.64062 121.32 7.67188C121.32 7.70312 121.339 7.75 121.375 7.8125C121.438 7.83333 121.469 7.90365 121.469 8.02344C121.469 8.05469 121.453 8.08594 121.422 8.11719C121.443 8.14323 121.453 8.17188 121.453 8.20312C121.453 8.21875 121.438 8.25 121.406 8.29688C121.406 8.5 121.456 8.71615 121.555 8.94531C121.596 9.04427 121.638 9.23438 121.68 9.51562L121.883 9.625L121.961 9.97656C122.081 10.0391 122.156 10.1094 122.188 10.1875L122.383 10.2656L122.617 10.3125C122.701 10.3333 122.76 10.3438 122.797 10.3438C122.854 10.3438 122.93 10.3255 123.023 10.2891C123.117 10.2526 123.193 10.2161 123.25 10.1797C123.307 10.138 123.406 10.0859 123.547 10.0234C123.635 9.90885 123.716 9.78125 123.789 9.64062L124 9.54688L124.094 9.38281L124.312 9.39844C124.312 9.54427 124.32 9.625 124.336 9.64062ZM129.727 9.5625C129.805 9.68229 129.844 9.77083 129.844 9.82812C129.844 9.86979 129.794 9.95833 129.695 10.0938C129.602 10.2292 129.529 10.3724 129.477 10.5234L129.359 10.5391L129.188 10.875L128.992 10.9062L128.562 11.1953L128.484 11.3672L128.352 11.3516L128.211 11.5156H127.984L127.938 11.5938L127.828 11.5781C127.714 11.5781 127.612 11.6302 127.523 11.7344L127.422 11.6562C127.312 11.7083 127.224 11.7344 127.156 11.7344C127.036 11.7344 126.94 11.7083 126.867 11.6562C126.815 11.6667 126.745 11.6719 126.656 11.6719L126.562 11.5938C126.276 11.5781 126.083 11.4974 125.984 11.3516V11.1562L125.727 11.0156L125.664 10.8516C125.643 10.7995 125.586 10.7318 125.492 10.6484V10.5234L125.312 9.76562L125.344 9.22656L125.406 8.92188V8.58594L125.492 8.29688L125.461 8.08594C125.518 8.03906 125.555 7.98177 125.57 7.91406C125.586 7.84115 125.617 7.76042 125.664 7.67188C125.643 7.57812 125.622 7.44531 125.602 7.27344L125.742 7.15625L125.602 7C125.674 6.88021 125.711 6.80469 125.711 6.77344L125.633 6.29688C125.633 6.18229 125.648 6.07031 125.68 5.96094C125.742 6.05469 125.812 6.10156 125.891 6.10156C125.932 6.10156 126.034 6.08073 126.195 6.03906C126.185 6.00781 126.18 5.97135 126.18 5.92969C126.18 5.85677 126.221 5.79167 126.305 5.73438C126.388 5.47396 126.505 5.22917 126.656 5C126.755 4.92188 126.805 4.8151 126.805 4.67969H126.883L126.961 4.52344L127.055 4.48438C127.076 4.41667 127.13 4.33854 127.219 4.25C127.339 4.21354 127.482 4.09115 127.648 3.88281C127.669 3.89323 127.714 3.89844 127.781 3.89844C127.797 3.89844 127.839 3.83854 127.906 3.71875C128.089 3.65625 128.185 3.625 128.195 3.625C128.242 3.625 128.289 3.65625 128.336 3.71875L128.484 3.6875L128.562 3.75H128.656C128.714 3.92188 128.82 4.00781 128.977 4.00781H129.023C129.039 4.08073 129.073 4.13542 129.125 4.17188L129.055 4.20312C129.237 4.29167 129.328 4.4974 129.328 4.82031L129.281 5L129.328 5.44531L129.25 5.51562L129.07 5.99219L128.75 6.39062L128.734 6.61719C128.354 6.92969 128.042 7.14323 127.797 7.25781C127.776 7.32031 127.742 7.35156 127.695 7.35156C127.674 7.35156 127.633 7.34115 127.57 7.32031L127.219 7.5625H127.008L126.703 7.70312L126.57 7.625C126.534 7.60417 126.424 7.58333 126.242 7.5625C126.081 7.71354 126 7.90885 126 8.14844L125.891 8.28125C125.87 8.47917 125.844 8.61719 125.812 8.69531L125.727 8.74219L125.812 9.32031L125.727 9.39844L125.742 9.57812L125.727 9.79688C125.727 9.83333 125.74 9.93229 125.766 10.0938C125.792 10.2552 125.833 10.349 125.891 10.375C125.865 10.4479 125.914 10.5365 126.039 10.6406C126.169 10.7448 126.307 10.8177 126.453 10.8594V10.9531L126.867 11.0156L127.461 11.0469L127.859 11C128.021 10.8854 128.138 10.8151 128.211 10.7891L128.336 10.6016H128.484L128.5 10.5234C128.729 10.4453 128.854 10.3932 128.875 10.3672C128.901 10.3359 128.914 10.3073 128.914 10.2812C128.945 10.2188 128.992 10.1875 129.055 10.1875L129.102 10.0859C129.336 10.0495 129.482 9.89583 129.539 9.625C129.591 9.58333 129.654 9.5625 129.727 9.5625ZM128.414 5.91406C128.456 5.90885 128.526 5.84375 128.625 5.71875L128.672 5.53125C128.802 5.3125 128.878 5.17448 128.898 5.11719C128.919 5.05469 128.93 4.97917 128.93 4.89062C128.93 4.80208 128.893 4.64583 128.82 4.42188L128.5 4.3125C128.417 4.33333 128.362 4.34375 128.336 4.34375L128.242 4.3125C128.164 4.3125 128.109 4.35938 128.078 4.45312C127.984 4.45312 127.841 4.49219 127.648 4.57031L127.602 4.67969C127.581 4.66927 127.56 4.66406 127.539 4.66406C127.523 4.66406 127.508 4.66667 127.492 4.67188C127.482 4.67708 127.471 4.6849 127.461 4.69531C127.451 4.70573 127.44 4.71875 127.43 4.73438C127.419 4.74479 127.409 4.76042 127.398 4.78125C127.393 4.80208 127.385 4.82552 127.375 4.85156C127.37 4.8724 127.362 4.89583 127.352 4.92188C127.346 4.94271 127.315 4.98698 127.258 5.05469L127.141 5.19531L126.914 5.625L126.797 5.72656C126.76 5.75781 126.732 5.82552 126.711 5.92969C126.69 6.03385 126.549 6.28385 126.289 6.67969L126.398 6.74219L126.453 6.875L126.719 6.95312C126.87 6.84896 127.031 6.77865 127.203 6.74219L127.25 6.64844C127.307 6.66927 127.349 6.67969 127.375 6.67969C127.427 6.67969 127.477 6.64844 127.523 6.58594L127.711 6.55469L127.828 6.35938H127.938L128.016 6.1875C128.156 6.1875 128.289 6.1224 128.414 5.99219V5.91406ZM136.68 5L137.781 5.04688L138.836 5L139.094 5.01562L139.203 5H139.781C139.891 5 139.945 5.04688 139.945 5.14062C139.945 5.25 139.859 5.32031 139.688 5.35156C139.656 5.33073 139.612 5.32031 139.555 5.32031C139.482 5.32031 139.414 5.34635 139.352 5.39844L139.125 5.35156L138.695 5.36719C138.497 5.47656 138.299 5.53125 138.102 5.53125L137.797 5.47656L137.641 5.625H137.492V5.53125L137.219 5.65625H137.078L137.031 5.79688C136.943 5.77083 136.786 5.75 136.562 5.73438C136.547 5.79688 136.521 5.82812 136.484 5.82812C136.464 5.82812 136.432 5.80729 136.391 5.76562L136.164 5.79688L136.008 5.96094L135.961 6.74219L135.992 7.21094L135.945 7.8125L135.961 8.48438L136.008 8.80469V9.09375L136.195 9.49219V9.5625C136.195 9.74479 136.302 9.91927 136.516 10.0859L136.562 10.2188L136.852 10.2812L137.062 10.5078L137.656 10.6172L138.438 10.4375L138.664 10.5078L139.219 10.25L139.43 10.2812C139.503 10.3542 139.539 10.4219 139.539 10.4844C139.539 10.5625 139.471 10.6484 139.336 10.7422L139.219 10.6953L138.969 10.9062L138.438 10.9688L138.258 11.0781L138.07 10.9688C137.893 11.0625 137.706 11.1094 137.508 11.1094L137.188 11.0469H137.016L136.438 10.7109L136.164 10.3281L135.977 10.1172L135.688 9.35156L135.555 8.63281L135.625 8.34375L135.492 8.1875L135.555 8.00781L135.492 7.71875L135.656 7.59375L135.586 7.44531L135.625 7.25781L135.555 7.04688L135.586 6.74219L135.555 6.58594L135.625 6.53906V5.96094C135.594 5.82031 135.549 5.75 135.492 5.75C135.456 5.75 135.424 5.77083 135.398 5.8125L135.219 5.73438L134.969 5.79688L134.711 5.60938H134.578C134.453 5.60938 134.391 5.53906 134.391 5.39844L134.406 5.15625L134.297 5.07812L134.359 4.9375L134.594 4.96875L134.773 4.9375L135.031 5.01562H135.703L135.734 4.64844V4.28125L135.625 4.00781L135.75 3.91406C135.771 3.85156 135.781 3.8125 135.781 3.79688C135.781 3.72917 135.74 3.67188 135.656 3.625L135.688 3L135.555 2.80469L135.586 2.66406C135.482 2.64323 135.43 2.60156 135.43 2.53906L135.539 2.11719C135.628 2.0026 135.677 1.92969 135.688 1.89844C136.005 2.05469 136.164 2.14583 136.164 2.17188V2.1875L136.102 2.34375C136.174 2.49479 136.211 2.61198 136.211 2.69531V2.74219C136.18 2.82552 136.164 2.90104 136.164 2.96875C136.164 3.02083 136.18 3.0625 136.211 3.09375L136.195 3.22656L136.211 3.39844L136.07 3.625L136.164 4.02344L136.102 4.50781L136.164 4.60156L136.07 4.74219L136.195 5.14062H136.484L136.68 5ZM146.289 4.74219L146.242 4.9375L145.773 5L145.469 5.22656L145.266 5.25781L145.008 5.41406L144.75 5.53125C144.625 5.64062 144.523 5.70833 144.445 5.73438V5.8125L144.211 5.92969L144.047 6.1875H143.875L143.789 6.4375L143.609 6.55469C143.536 6.59635 143.479 6.65365 143.438 6.72656L143.281 7.01562C143.161 7.07812 143.091 7.22135 143.07 7.44531L142.992 7.41406L142.961 7.51562L142.844 7.59375L142.734 7.86719C142.62 8.02865 142.562 8.15104 142.562 8.23438L142.414 8.29688V8.63281C142.383 8.66927 142.357 8.72656 142.336 8.80469L142.367 8.85938L142.211 8.92188L142.258 9.04688C142.242 9.15104 142.161 9.34375 142.016 9.625L142.094 9.82812L141.938 10.0859C141.958 10.1901 141.969 10.2708 141.969 10.3281L141.938 10.5859L142.008 10.8672C142.013 10.8828 142.036 10.9141 142.078 10.9609L142.195 11.0781C142.128 11.2083 142.062 11.2995 142 11.3516L141.789 11.2734L141.82 11.4141L141.469 11.3516V11.1406L141.422 11L141.469 10.7422L141.422 10.6328L141.453 10.0859L141.422 9.71875C141.349 9.69271 141.312 9.66146 141.312 9.625C141.312 9.58333 141.349 9.51823 141.422 9.42969V9.19531C141.422 9.07031 141.417 8.97917 141.406 8.92188L141.469 8.84375L141.406 8.53906L141.453 8.29688L141.406 8.14844L141.453 7.71875L141.375 7.59375L141.422 7.44531L141.328 7.125L141.359 6.875C141.359 6.80729 141.349 6.71094 141.328 6.58594L141.375 6.50781L141.281 5.96094L141.164 5.88281L141.281 5.60938C141.172 5.45833 141.117 5.28125 141.117 5.07812V4.85938C141.07 4.80729 141.039 4.75781 141.023 4.71094C141.096 4.61198 141.229 4.52604 141.422 4.45312L141.539 4.48438C141.56 4.61458 141.617 4.73958 141.711 4.85938L141.68 5.25781L141.836 6.46875C141.836 6.54688 141.805 6.61719 141.742 6.67969L141.82 7.01562L141.773 7.25781L141.82 7.51562L141.789 7.71875L141.906 7.96094L141.836 8.00781L141.891 8.375L142.016 8.40625L142.07 8.09375C142.076 8.05729 142.138 7.96354 142.258 7.8125C142.393 7.69271 142.461 7.5599 142.461 7.41406V7.32031L142.562 7.27344C142.578 7.27344 142.591 7.25521 142.602 7.21875C142.612 7.17708 142.63 7.15625 142.656 7.15625H142.703L142.797 6.84375L143.039 6.67969L143.055 6.58594H143.164L143.117 6.40625L143.359 6.29688L143.375 6.10156L143.602 6.07031C143.716 5.97656 143.794 5.875 143.836 5.76562L143.984 5.73438C144.005 5.69271 144.102 5.59635 144.273 5.44531C144.31 5.44531 144.336 5.42969 144.352 5.39844L144.609 5.25781L144.672 5.14062L144.812 5.0625C145.089 4.85938 145.276 4.75781 145.375 4.75781H145.438C145.531 4.75781 145.607 4.73177 145.664 4.67969L145.805 4.72656C145.878 4.67448 145.938 4.64844 145.984 4.64844C146.177 4.6901 146.279 4.72135 146.289 4.74219ZM154.242 10.2344C154.315 10.224 154.401 10.2188 154.5 10.2188C154.615 10.2188 154.672 10.2604 154.672 10.3438C154.672 10.4167 154.615 10.4974 154.5 10.5859L154.383 10.6484L154.305 10.7344C154.284 10.7604 154.193 10.8177 154.031 10.9062L153.773 10.9844C153.711 11.0469 153.536 11.0781 153.25 11.0781C153.224 11.0781 153.146 11.0573 153.016 11.0156C152.885 10.974 152.802 10.9375 152.766 10.9062L152.242 10.4375L152.125 9.94531L151.969 9.79688V9.71875C151.969 9.5625 151.932 9.42448 151.859 9.30469L151.875 8.92188C151.917 8.73438 151.938 8.6224 151.938 8.58594C151.938 8.46615 151.906 8.34896 151.844 8.23438L151.891 7.51562L151.711 7.60938L151.602 7.78125L151.453 7.88281C151.401 7.91406 151.349 7.97656 151.297 8.07031L151.156 8.08594C151.036 8.1901 150.977 8.29688 150.977 8.40625C150.82 8.47396 150.721 8.56771 150.68 8.6875C150.638 8.80208 150.557 8.92448 150.438 9.05469C150.318 9.17969 150.227 9.2526 150.164 9.27344C150.102 9.29427 150.052 9.32552 150.016 9.36719L149.555 9.92969H149.508L149.133 10.375L148.836 10.5391L148.703 10.7422C148.521 10.7995 148.302 10.8906 148.047 11.0156L147.805 10.8594C147.779 10.8698 147.742 10.875 147.695 10.875C147.633 10.875 147.602 10.8464 147.602 10.7891C147.602 10.7474 147.607 10.7161 147.617 10.6953L147.453 10.6016C147.453 10.5547 147.471 10.5 147.508 10.4375L147.297 10.2344L147.422 10.0703H147.25L147.133 9.76562L147.25 9.67188L147.102 9.46094C147.102 9.20052 147.12 9.0625 147.156 9.04688L147.164 8.77344C147.169 8.67969 147.198 8.56771 147.25 8.4375L147.117 8.34375C147.206 8.22396 147.25 8.1224 147.25 8.03906C147.25 7.97656 147.224 7.89062 147.172 7.78125C147.234 7.75 147.266 7.66667 147.266 7.53125C147.266 7.47917 147.26 7.40885 147.25 7.32031L147.188 6.78906L147.375 5.67188C147.365 5.47917 147.339 5.27604 147.297 5.0625L147.234 4.78906C147.234 4.6224 147.326 4.53906 147.508 4.53906L147.742 4.60156L147.859 4.74219L147.789 5.07812L147.758 5.88281L147.789 6.39062L147.68 6.64844L147.742 6.80469L147.68 7.04688V7.25781C147.638 7.27344 147.625 7.30729 147.641 7.35938C147.656 7.40625 147.664 7.4401 147.664 7.46094C147.664 7.52344 147.643 7.58333 147.602 7.64062L147.711 7.78125L147.555 7.97656L147.648 8.11719L147.602 8.32812L147.648 8.58594V8.89062L147.742 9L147.664 9.38281C147.664 9.44531 147.695 9.52604 147.758 9.625L147.711 9.79688L147.789 10.0234C147.878 10.0755 147.99 10.1771 148.125 10.3281C148.24 10.3125 148.341 10.2604 148.43 10.1719C148.518 10.0833 148.63 9.99219 148.766 9.89844C148.766 9.88802 148.745 9.88281 148.703 9.88281C148.875 9.80469 148.961 9.71875 148.961 9.625C149.081 9.60938 149.167 9.58854 149.219 9.5625L149.25 9.36719L149.406 9.30469C149.526 9.15365 149.703 9.05208 149.938 9L149.953 8.84375L150.242 8.60156C150.268 8.39844 150.38 8.29167 150.578 8.28125L150.641 8.07031L150.781 8.00781L150.992 7.70312H151.086V7.60938L151.234 7.53125L151.328 7.30469C151.458 7.23698 151.586 7.17708 151.711 7.125L151.773 6.95312L151.891 6.90625V6.80469L151.953 6.78906C151.979 6.53385 152.07 6.40625 152.227 6.40625L152.18 6.35938L152.477 5.47656H152.547V5.25781H152.562C152.599 5.25781 152.69 5.0651 152.836 4.67969L153.117 4.64844L153.086 4.71094L153.25 5.01562L153.117 5.60938L152.883 5.96094L152.719 6.55469L152.516 6.69531V7.04688L152.398 7.27344L152.43 7.53125L152.32 7.64062L152.352 8.34375L152.289 9.21094L152.336 9.30469L152.32 9.42969H152.367V9.67188C152.539 9.92188 152.625 10.0807 152.625 10.1484L152.852 10.2031L152.898 10.3438C153.044 10.4062 153.172 10.4661 153.281 10.5234L153.492 10.5078L153.664 10.5547L153.914 10.4531C153.992 10.4219 154.102 10.349 154.242 10.2344ZM160.227 9.5625C160.305 9.68229 160.344 9.77083 160.344 9.82812C160.344 9.86979 160.294 9.95833 160.195 10.0938C160.102 10.2292 160.029 10.3724 159.977 10.5234L159.859 10.5391L159.688 10.875L159.492 10.9062L159.062 11.1953L158.984 11.3672L158.852 11.3516L158.711 11.5156H158.484L158.438 11.5938L158.328 11.5781C158.214 11.5781 158.112 11.6302 158.023 11.7344L157.922 11.6562C157.812 11.7083 157.724 11.7344 157.656 11.7344C157.536 11.7344 157.44 11.7083 157.367 11.6562C157.315 11.6667 157.245 11.6719 157.156 11.6719L157.062 11.5938C156.776 11.5781 156.583 11.4974 156.484 11.3516V11.1562L156.227 11.0156L156.164 10.8516C156.143 10.7995 156.086 10.7318 155.992 10.6484V10.5234L155.812 9.76562L155.844 9.22656L155.906 8.92188V8.58594L155.992 8.29688L155.961 8.08594C156.018 8.03906 156.055 7.98177 156.07 7.91406C156.086 7.84115 156.117 7.76042 156.164 7.67188C156.143 7.57812 156.122 7.44531 156.102 7.27344L156.242 7.15625L156.102 7C156.174 6.88021 156.211 6.80469 156.211 6.77344L156.133 6.29688C156.133 6.18229 156.148 6.07031 156.18 5.96094C156.242 6.05469 156.312 6.10156 156.391 6.10156C156.432 6.10156 156.534 6.08073 156.695 6.03906C156.685 6.00781 156.68 5.97135 156.68 5.92969C156.68 5.85677 156.721 5.79167 156.805 5.73438C156.888 5.47396 157.005 5.22917 157.156 5C157.255 4.92188 157.305 4.8151 157.305 4.67969H157.383L157.461 4.52344L157.555 4.48438C157.576 4.41667 157.63 4.33854 157.719 4.25C157.839 4.21354 157.982 4.09115 158.148 3.88281C158.169 3.89323 158.214 3.89844 158.281 3.89844C158.297 3.89844 158.339 3.83854 158.406 3.71875C158.589 3.65625 158.685 3.625 158.695 3.625C158.742 3.625 158.789 3.65625 158.836 3.71875L158.984 3.6875L159.062 3.75H159.156C159.214 3.92188 159.32 4.00781 159.477 4.00781H159.523C159.539 4.08073 159.573 4.13542 159.625 4.17188L159.555 4.20312C159.737 4.29167 159.828 4.4974 159.828 4.82031L159.781 5L159.828 5.44531L159.75 5.51562L159.57 5.99219L159.25 6.39062L159.234 6.61719C158.854 6.92969 158.542 7.14323 158.297 7.25781C158.276 7.32031 158.242 7.35156 158.195 7.35156C158.174 7.35156 158.133 7.34115 158.07 7.32031L157.719 7.5625H157.508L157.203 7.70312L157.07 7.625C157.034 7.60417 156.924 7.58333 156.742 7.5625C156.581 7.71354 156.5 7.90885 156.5 8.14844L156.391 8.28125C156.37 8.47917 156.344 8.61719 156.312 8.69531L156.227 8.74219L156.312 9.32031L156.227 9.39844L156.242 9.57812L156.227 9.79688C156.227 9.83333 156.24 9.93229 156.266 10.0938C156.292 10.2552 156.333 10.349 156.391 10.375C156.365 10.4479 156.414 10.5365 156.539 10.6406C156.669 10.7448 156.807 10.8177 156.953 10.8594V10.9531L157.367 11.0156L157.961 11.0469L158.359 11C158.521 10.8854 158.638 10.8151 158.711 10.7891L158.836 10.6016H158.984L159 10.5234C159.229 10.4453 159.354 10.3932 159.375 10.3672C159.401 10.3359 159.414 10.3073 159.414 10.2812C159.445 10.2188 159.492 10.1875 159.555 10.1875L159.602 10.0859C159.836 10.0495 159.982 9.89583 160.039 9.625C160.091 9.58333 160.154 9.5625 160.227 9.5625ZM158.914 5.91406C158.956 5.90885 159.026 5.84375 159.125 5.71875L159.172 5.53125C159.302 5.3125 159.378 5.17448 159.398 5.11719C159.419 5.05469 159.43 4.97917 159.43 4.89062C159.43 4.80208 159.393 4.64583 159.32 4.42188L159 4.3125C158.917 4.33333 158.862 4.34375 158.836 4.34375L158.742 4.3125C158.664 4.3125 158.609 4.35938 158.578 4.45312C158.484 4.45312 158.341 4.49219 158.148 4.57031L158.102 4.67969C158.081 4.66927 158.06 4.66406 158.039 4.66406C158.023 4.66406 158.008 4.66667 157.992 4.67188C157.982 4.67708 157.971 4.6849 157.961 4.69531C157.951 4.70573 157.94 4.71875 157.93 4.73438C157.919 4.74479 157.909 4.76042 157.898 4.78125C157.893 4.80208 157.885 4.82552 157.875 4.85156C157.87 4.8724 157.862 4.89583 157.852 4.92188C157.846 4.94271 157.815 4.98698 157.758 5.05469L157.641 5.19531L157.414 5.625L157.297 5.72656C157.26 5.75781 157.232 5.82552 157.211 5.92969C157.19 6.03385 157.049 6.28385 156.789 6.67969L156.898 6.74219L156.953 6.875L157.219 6.95312C157.37 6.84896 157.531 6.77865 157.703 6.74219L157.75 6.64844C157.807 6.66927 157.849 6.67969 157.875 6.67969C157.927 6.67969 157.977 6.64844 158.023 6.58594L158.211 6.55469L158.328 6.35938H158.438L158.516 6.1875C158.656 6.1875 158.789 6.1224 158.914 5.99219V5.91406ZM163.594 2.57031L163.531 2.67969C163.521 2.7526 163.484 2.82812 163.422 2.90625L163.531 3.33594L163.453 3.47656L163.516 3.54688L163.484 3.67188L163.531 3.76562C163.438 3.78125 163.391 3.83073 163.391 3.91406C163.391 3.9349 163.411 4.03646 163.453 4.21875L163.375 4.4375L163.484 4.58594C163.417 4.70573 163.38 4.82812 163.375 4.95312L163.305 6.4375L163.391 6.58594L163.305 6.95312L163.391 7.28906L163.305 7.49219L163.391 7.65625L163.375 7.82812L163.391 7.94531L163.305 7.97656C163.352 8.07552 163.375 8.17188 163.375 8.26562C163.375 8.34896 163.326 8.39583 163.227 8.40625C163.299 8.48438 163.336 8.54948 163.336 8.60156C163.336 8.69531 163.289 8.74219 163.195 8.74219C163.102 8.74219 163.055 8.63021 163.055 8.40625V8.05469C163.013 7.72656 162.974 7.5026 162.938 7.38281L163.016 7.17969L162.938 6.95312L163.016 6.375L162.875 6.29688L162.938 6.10156L162.906 5.89844V5.75L162.969 5.71875L162.875 5.49219L162.906 5.38281V5.35156C162.906 5.28385 162.938 5.19792 163 5.09375L162.938 4.95312V4.72656L162.875 4.69531L163 4.57031L162.906 4.3125L162.969 4.07031L162.859 3.92969L162.969 3.79688L162.938 3.5625L162.969 3.39844C162.938 3.35156 162.922 3.3099 162.922 3.27344C162.922 3.24219 162.938 3.1875 162.969 3.10938L162.875 3.07812V2.74219L162.75 2.60156L162.766 2.28125L162.938 2.3125L163.164 2.25L163.516 2.375L163.594 2.57031ZM163.836 10.9062L163.641 11.0625L163.422 11L163.227 11.0781L163.07 11H162.906L162.812 10.6484L162.875 10.4062L163 10.2812H163.039C163.055 10.2812 163.076 10.2656 163.102 10.2344C163.133 10.1979 163.159 10.1693 163.18 10.1484C163.341 10.2161 163.438 10.25 163.469 10.25H163.484C163.484 10.2396 163.469 10.2188 163.438 10.1875H163.469C163.49 10.1875 163.552 10.2135 163.656 10.2656C163.74 10.3906 163.799 10.5182 163.836 10.6484C163.805 10.6641 163.789 10.6901 163.789 10.7266C163.789 10.7682 163.805 10.8281 163.836 10.9062Z" fill="white"/>
</svg>
