<svg width="592" height="265" viewBox="0 0 592 265" fill="none" xmlns="http://www.w3.org/2000/svg">
<g filter="url(#filter0_d_69_451)">
<g clip-path="url(#clip0_69_451)">
<path d="M426.876 180.985C424.353 181.83 421.689 182.535 419.166 183.239L419.447 182.958L418.325 192.82V193.384L417.624 193.243L407.812 190.848L408.653 190.284C408.653 196.202 408.373 202.12 408.233 208.037C406.13 208.037 404.028 207.897 401.925 207.756L402.346 207.333C402.205 211.842 401.925 216.351 401.505 220.859C401.364 216.21 401.364 211.56 401.364 206.769C403.467 206.769 405.57 206.769 407.532 206.769L406.971 207.333C406.971 201.274 406.971 195.357 407.392 189.298H408.233L418.045 192.116L417.344 192.539L418.886 182.676V182.394C421.549 181.83 424.353 181.267 427.016 180.703L426.876 180.985Z" fill="white"/>
<path d="M428.418 180.421C429.399 182.394 430.24 184.507 431.221 186.48C429.259 188.453 427.296 190.425 425.334 192.257V191.271C427.436 193.666 429.399 196.061 431.361 198.456L431.642 198.879V199.302C430.52 201.979 429.539 204.515 428.418 207.192V206.629C429.96 210.01 431.501 213.533 432.903 217.055V217.337C432.202 218.182 431.361 218.887 430.52 219.732C431.221 218.887 431.782 217.9 432.483 217.055V217.337C431.501 215.646 430.66 214.096 429.679 212.405C428.698 210.574 427.717 208.883 426.876 207.051V206.769C427.857 204.092 428.838 201.415 429.819 198.879V199.725C427.857 197.047 425.754 194.511 423.792 191.834C425.895 189.862 428.137 188.03 430.38 186.198V186.621C429.679 184.648 428.978 182.535 428.418 180.562V180.421Z" fill="white"/>
<path d="M428.698 180.703C432.623 180.703 436.548 180.703 440.472 180.985C440.613 182.957 440.753 184.93 441.173 186.903C441.173 187.184 441.173 187.466 441.314 187.466C441.314 187.466 441.314 187.466 441.314 187.325C441.314 187.325 441.314 187.325 441.033 187.325C441.033 187.325 440.893 187.325 440.753 187.325C441.033 187.325 441.314 187.325 441.594 187.325C442.996 187.325 445.659 187.325 447.201 187.325H447.621L447.902 187.748L451.546 194.652L450.705 194.229L458.975 192.961H459.256H459.536C461.218 194.089 462.76 195.216 464.442 196.343H464.021H471.03H471.31C472.712 199.302 474.114 202.12 475.516 205.079C473.834 202.402 472.151 199.724 470.61 197.047L471.03 197.329L464.021 197.611H463.881C462.199 196.484 460.377 195.357 458.695 194.37H459.256L450.985 195.92H450.425L450.144 195.497L446.64 188.593L447.341 189.016C445.799 189.016 443.136 188.875 441.454 189.016C440.192 189.298 440.192 187.607 440.052 186.762C440.052 185.212 439.912 183.521 439.912 181.971L440.332 182.535C436.548 182.112 432.903 181.689 429.119 181.267L428.698 180.703Z" fill="white"/>
<path d="M431.361 180.139C434.585 179.294 437.949 178.308 441.314 177.744L447.902 180.28H447.621L453.649 179.012H453.929C455.892 180.844 457.994 182.816 459.956 184.789L465.704 190.425H465.003C467.105 188.452 469.348 186.762 471.451 184.789C474.955 186.057 478.459 187.325 481.823 188.734C478.319 187.748 474.815 186.762 471.31 185.634H471.731C469.628 187.607 467.526 189.58 465.283 191.552C461.779 188.171 456.873 183.521 453.368 179.999H453.929L447.902 181.267H447.761L441.314 178.449C439.211 179.012 434.585 179.576 431.782 180.139H431.361Z" fill="white"/>
<path d="M376.974 195.497C379.778 193.243 382.721 190.989 385.665 188.734C387.908 188.593 390.291 188.312 392.533 188.171H392.253L397.72 184.366H398C402.626 185.916 407.111 187.889 411.597 189.861L410.896 190.143C412.438 187.466 414.12 184.648 415.802 181.971H415.942C419.447 181.548 422.951 181.267 426.595 180.985C423.091 181.548 419.587 182.253 416.082 182.676H416.363C414.821 185.353 413.279 188.171 411.597 190.989C406.971 189.157 402.346 187.325 397.86 185.353H398.421L392.954 189.016C391.272 189.298 388.048 189.298 385.805 189.439C383.843 190.989 379.638 193.525 376.974 195.357V195.497Z" fill="white"/>
<path d="M326.653 118.708V119.835L326.372 122.089L326.092 124.485L325.812 126.316C325.812 127.302 325.671 127.725 325.391 127.725H325.251L324.971 127.302L324.55 126.457C324.27 124.203 323.569 122.653 322.447 121.948C321.326 121.244 320.205 120.821 319.083 120.821H307.028L306.608 121.103C306.608 121.103 306.468 121.385 306.328 121.807V143.083L306.187 143.365C306.187 143.506 306.328 143.647 306.748 143.788H315.999C318.242 143.788 319.924 143.788 321.046 143.506C322.307 143.224 323.148 142.801 323.569 142.238C323.989 141.674 324.27 141.251 324.55 141.111C324.69 141.111 324.83 141.533 324.83 142.379C324.83 142.801 324.55 143.647 324.41 145.197V145.76C324.129 147.592 323.989 149.705 323.989 151.96C323.989 152.805 323.989 153.228 323.569 153.369L323.148 152.946L322.868 152.101C322.447 149.846 321.747 148.437 320.765 147.733C319.644 147.028 318.242 146.606 316.841 146.606H306.748V169.009C306.748 172.249 308.57 174.222 312.075 174.785C313.056 175.067 313.476 175.349 313.476 175.49H311.934L308.29 175.349H304.225C302.122 175.208 300.44 175.349 298.898 175.349L296.095 175.631H294.974L294.413 175.49L294.974 175.067L296.095 174.645C296.095 174.645 297.357 173.94 298.198 173.236C298.758 172.672 299.039 172.108 299.319 171.545C299.599 170.84 299.739 169.995 299.739 169.009V123.78C299.88 121.948 299.319 120.821 298.057 120.117C296.796 119.553 295.674 119.13 294.693 118.989C293.572 118.708 293.151 118.426 293.151 118.285H293.292C293.292 118.285 293.292 118.003 293.572 118.003H293.712L294.693 117.862L298.898 118.144H308.01H315.018H322.728L323.989 117.862C324.83 117.862 325.531 117.862 325.812 117.58L326.232 117.158L326.793 116.876C326.793 116.876 327.073 116.876 327.073 117.299C327.073 117.44 327.073 118.003 326.653 118.708Z" fill="white"/>
<path d="M390.992 158.018C390.571 160.414 389.59 162.95 388.188 165.627C386.646 168.445 384.263 170.84 380.899 172.954C379.217 173.94 377.255 174.785 375.012 175.49C373.891 175.772 372.769 176.054 371.648 176.194C370.667 176.335 369.405 176.476 368.003 176.476C362.537 176.476 358.191 175.631 354.687 173.799C351.463 172.108 348.94 169.854 347.118 167.177C345.436 164.5 344.454 161.964 343.894 159.568C343.754 158.441 343.613 157.314 343.333 156.046C343.333 154.778 343.193 153.651 343.193 152.664C343.193 150.692 343.333 148.578 343.754 146.324C344.174 143.929 345.155 141.252 346.697 138.574C348.099 135.897 350.482 133.502 353.706 131.529C355.388 130.543 357.21 129.698 359.173 129.134C359.873 128.993 360.995 128.712 362.396 128.43C363.518 128.43 364.639 128.289 365.901 128.289H366.321H367.303C368.003 128.289 368.844 128.289 370.106 128.289C371.087 128.289 371.788 128.571 372.489 128.712H372.629C372.629 128.712 373.47 128.852 373.891 128.993C376.274 129.416 378.797 130.402 381.46 132.093C384.123 133.643 386.366 136.179 388.328 139.561C389.169 141.252 390.01 143.083 390.571 145.338C391.132 147.592 391.412 149.987 391.412 152.523C391.412 154.073 391.272 155.905 390.852 158.018H390.992ZM385.104 146.183C384.684 144.069 383.983 142.238 383.142 140.688C381.46 137.447 379.498 135.193 377.255 133.643C375.012 132.234 372.909 131.248 370.807 130.825L368.284 130.261C368.284 130.261 367.723 130.261 367.583 130.261C367.162 130.261 367.022 130.261 366.882 130.261H366.181C364.359 130.261 362.677 130.543 361.135 130.966C359.593 131.389 358.332 132.093 357.07 132.938C354.687 134.77 352.865 136.884 351.884 139.42C350.762 141.956 350.061 144.351 349.781 146.887C349.36 149.424 349.22 151.537 349.22 153.228C349.22 154.919 349.641 157.314 350.342 160.414C351.043 163.514 352.725 166.472 355.668 169.572C357.21 171.122 358.892 172.249 360.995 173.095C363.097 173.94 365.48 174.363 368.144 174.363C370.246 174.363 371.928 174.081 373.61 173.517C375.292 172.954 376.694 172.249 377.956 171.263C380.339 169.431 382.161 167.177 383.422 164.641C384.544 162.105 385.385 159.85 385.665 157.878C385.945 156.046 386.086 154.496 386.086 153.228C386.086 150.551 385.945 148.296 385.525 146.324L385.104 146.183Z" fill="white"/>
<path d="M466.404 170.136C466.404 170.136 466.404 170.136 466.124 170.418C466.124 170.418 465.984 170.418 465.844 170.699L464.302 171.404L462.48 171.967C459.396 172.954 456.873 173.095 454.77 172.672C452.668 172.249 451.266 171.827 450.565 171.263L434.025 159.85L426.736 162.104L430.941 175.772C431.782 178.449 433.604 179.435 436.688 178.871C436.688 178.871 436.828 178.871 436.968 179.012H437.249V179.153H436.828L433.884 179.999L430.52 180.844C428.838 181.408 427.577 181.83 426.595 182.253L424.633 183.098C423.932 183.38 423.512 183.38 423.512 183.239H423.652L423.792 182.817L424.353 182.253C426.035 181.408 426.595 179.576 425.754 177.04L414.961 141.251C414.681 140.265 413.98 139.702 412.718 139.561H411.177C411.177 139.561 410.335 139.561 410.055 139.561C409.354 139.561 408.934 139.561 408.794 139.279C408.794 139.138 408.934 138.997 409.074 138.997L409.635 138.715L412.018 138.152L416.223 137.024L419.587 135.897L422.951 134.77L423.512 134.488L424.773 134.066L426.876 133.502C426.876 133.502 427.577 133.361 427.997 133.22C427.997 133.22 428.137 133.22 428.278 133.22C428.558 133.22 428.838 133.22 428.978 133.22C430.52 133.079 432.062 133.22 433.604 133.361C435.146 133.784 436.688 134.488 438.09 135.756C438.65 136.32 439.351 137.024 440.052 138.011C440.613 138.997 441.173 139.983 441.454 141.111C442.295 143.788 442.435 146.183 442.014 148.578C441.594 150.973 440.893 152.664 440.192 153.932C439.491 155.06 438.931 155.905 438.37 156.609L456.733 168.868C458.555 169.713 460.377 170.136 462.059 170.136C463.601 170.136 464.722 169.995 465.423 169.713C466.124 169.572 466.404 169.431 466.545 169.713C466.545 169.713 466.545 169.854 466.404 169.854V170.136ZM436.688 143.788L436.408 143.083C435.006 139.561 433.043 137.447 430.52 136.743C428.137 136.179 425.754 136.179 423.512 136.743L422.39 137.024C422.39 137.024 421.83 137.306 421.409 137.447L420.568 137.87C419.867 138.152 419.447 138.293 419.447 138.433C419.447 138.574 419.307 138.715 419.447 138.856L425.334 158.3C425.334 158.3 425.754 158.864 426.035 159.005C426.315 159.287 426.595 159.287 427.016 159.146H427.156C427.156 159.146 427.857 159.146 428.278 159.146C428.978 159.146 429.96 159.005 430.941 158.582L432.623 157.878C432.623 157.878 434.025 157.173 435.146 156.469C436.127 155.764 436.968 154.355 437.529 152.242C438.09 150.269 437.949 147.592 436.968 144.351L436.688 143.506V143.788Z" fill="white"/>
<path d="M513.783 153.087L512.942 153.51C511.68 153.791 510.839 154.355 510.419 155.341C509.998 156.328 509.858 157.173 509.858 157.596V170.84C509.858 172.39 509.297 173.517 508.316 174.081C507.195 174.785 506.354 175.067 505.793 175.067C503.971 175.631 502.289 175.912 500.606 176.053C498.504 176.194 497.102 176.335 496.261 176.335C488.271 176.335 482.244 174.785 478.179 171.686C473.974 168.586 471.31 165.345 470.189 161.682C469.068 158.018 468.367 154.778 468.367 152.241C468.367 150.551 468.367 148.86 468.647 147.169C468.928 145.76 469.208 144.351 469.769 142.801C470.61 140.124 472.151 137.87 473.974 136.038C477.618 132.516 481.263 130.261 484.767 129.275C488.271 128.43 491.075 127.866 492.897 127.866H493.458H495C500.046 127.866 504.812 128.43 509.157 129.416C509.157 129.416 509.437 129.416 509.718 129.839C509.998 129.979 510.138 130.261 510.138 130.684C510.138 131.107 510.138 131.388 509.858 131.529L509.578 138.715C509.578 138.715 509.297 139.701 509.157 139.701C509.157 139.701 508.877 139.561 508.736 139.279L508.456 138.574C507.755 135.334 506.073 133.079 503.41 131.811C500.747 130.543 497.943 129.979 494.859 129.979H493.458C493.458 129.979 492.757 129.979 492.617 129.979C491.495 129.979 490.094 130.12 488.131 130.543C486.169 130.966 484.066 131.811 481.964 133.079C479.721 134.488 477.758 136.743 475.936 139.842C474.254 142.942 473.413 147.028 473.413 151.96C473.413 153.087 473.553 154.637 473.974 156.891C474.254 159.005 475.095 161.4 476.497 163.936C477.758 166.472 480.001 168.727 482.945 170.699C485.888 172.672 489.813 173.658 494.579 173.658H495.981C498.644 173.658 500.326 173.517 501.027 173.094C501.448 173.094 502.008 172.954 502.569 172.531C503.27 172.108 503.83 171.404 504.111 170.277V158.018C504.111 156.187 503.55 154.919 502.429 154.214C502.289 154.214 502.148 154.073 501.868 153.791C501.448 153.65 501.167 153.51 501.027 153.369C500.606 153.228 500.186 153.087 499.765 153.087C499.065 153.087 498.644 153.087 498.504 152.805C498.504 152.805 498.644 152.523 498.924 152.523L499.625 152.241H502.148L506.354 152.523C509.017 152.523 510.979 152.523 512.241 152.241C512.942 152.241 513.362 152.241 513.362 152.523H513.082L513.783 153.087Z" fill="white"/>
<path d="M551.209 170.699C551.209 170.699 551.068 172.249 550.648 173.517C550.648 174.926 549.807 175.631 547.985 175.631H526.258C526.258 175.631 525.697 175.631 525.557 175.49C525.557 175.349 525.837 175.067 526.258 174.926C526.678 174.926 527.239 174.785 527.94 174.363C528.641 173.94 528.921 173.094 528.921 172.108V132.938C529.061 131.811 528.641 131.107 527.8 130.684C527.519 130.684 527.239 130.402 526.678 130.261C526.398 130.261 526.118 130.12 525.697 130.12H525.557C524.716 129.698 524.436 129.557 524.296 129.416H524.996H544.901C545.742 129.416 546.723 129.416 547.704 129.416L548.265 129.134C548.265 129.134 548.826 128.993 549.106 128.993C549.386 128.993 549.527 129.134 549.667 129.557C549.667 129.979 549.527 130.402 549.106 131.107L548.826 132.938C548.826 133.784 548.686 134.77 548.686 135.897C548.686 136.602 548.545 137.024 548.265 137.024L547.985 136.602L547.704 135.897C547.424 134.488 546.863 133.502 545.742 132.938C544.901 132.516 544.06 132.234 543.219 132.093H536.07C534.808 132.093 534.248 132.657 534.248 133.643V148.578C534.248 148.578 534.248 149.142 534.528 149.705C534.668 150.128 535.089 150.41 535.65 150.41H544.2C545.181 150.41 545.742 150.41 546.162 150.128C546.583 149.987 546.863 149.705 547.003 149.564L547.704 148.86C547.704 148.86 548.265 148.296 548.545 148.296C548.545 148.296 548.686 148.296 548.686 148.578C548.686 148.719 548.686 149.142 548.265 149.987C548.265 150.41 548.125 150.692 548.125 150.832C548.125 150.832 548.125 151.114 548.125 151.396C548.125 151.678 548.125 151.96 548.125 152.101C548.125 152.382 548.125 152.523 548.125 152.664C548.125 153.228 548.125 153.51 548.125 153.65V156.468C548.125 157.314 548.125 157.737 547.844 157.737L547.564 157.314L547.284 156.468C547.144 154.919 546.583 153.932 545.742 153.369C544.901 152.805 544.06 152.523 543.359 152.523H536.35C535.509 152.523 535.089 153.087 535.089 154.073V170.699C535.089 172.813 536.631 173.94 539.855 173.94H540.976L542.238 174.081C544.2 174.081 545.882 173.799 547.424 173.094C549.106 172.39 550.087 171.122 550.508 169.29L550.788 168.586C550.788 168.586 551.068 168.163 551.209 168.022C551.349 168.022 551.489 168.445 551.629 169.149V171.122L551.209 170.699Z" fill="white"/>
<path d="M416.924 100.813C416.924 100.813 414.4 98.9818 413.7 97.5728L420.007 87.9917C421.549 88.1326 424.213 89.6825 424.213 89.6825L416.924 100.813Z" fill="white"/>
<path d="M413.84 96.023L402.486 88.5554C404.308 86.4419 406.831 85.3147 409.915 85.1738C411.317 85.1738 412.718 85.3147 413.559 85.4556L418.465 88.6963L413.7 95.8821L413.84 96.023Z" fill="white"/>
<path d="M401.785 87.9917L393.094 82.2148C394.916 80.1013 397.44 78.9742 400.523 78.8333C401.925 78.8333 403.327 78.9742 404.168 79.115L411.737 84.1874C411.737 84.1874 410.616 84.1874 409.915 84.1874C406.411 84.1874 403.607 85.5964 401.645 87.9917H401.785Z" fill="white"/>
<path d="M392.253 81.6513L383.562 75.8745C385.385 73.761 387.908 72.6338 390.992 72.4929C392.393 72.4929 393.795 72.6338 394.636 72.7747L402.205 77.8471C402.205 77.8471 401.084 77.8471 400.383 77.8471C396.879 77.8471 394.075 79.2561 392.113 81.6513H392.253Z" fill="white"/>
<path d="M382.862 75.3108L374.171 69.5339C375.993 67.4204 378.516 66.2932 381.6 66.1523C383.002 66.1523 384.404 66.2932 385.245 66.4341L392.814 71.5065C392.814 71.5065 391.693 71.5065 390.992 71.5065C387.487 71.5065 384.684 72.9155 382.722 75.3108H382.862Z" fill="white"/>
<path d="M373.33 69.1113L364.639 63.3345C366.462 61.221 368.985 60.0938 372.068 59.9529C373.47 59.9529 374.872 60.0938 375.713 60.2347L383.282 65.307C383.282 65.307 382.161 65.307 381.46 65.307C377.956 65.307 375.152 66.716 373.19 69.1113H373.33Z" fill="white"/>
<path d="M363.798 62.771L355.108 56.9941C356.93 54.8806 359.453 53.7534 362.537 53.6125C363.938 53.6125 365.34 53.7534 366.181 53.8943L373.75 58.9667C373.75 58.9667 372.629 58.9667 371.928 58.9667C368.424 58.9667 365.62 60.3757 363.658 62.771H363.798Z" fill="white"/>
<path d="M354.267 56.4304L345.576 50.6535C347.398 48.5401 349.921 47.4129 353.005 47.272C354.407 47.272 355.808 47.4129 356.649 47.5538L364.219 52.6261C364.219 52.6261 363.097 52.6261 362.396 52.6261C358.892 52.6261 356.089 54.0351 354.126 56.4304H354.267Z" fill="white"/>
<path d="M344.875 50.2308L342.913 48.8218L347.678 41.636L354.967 46.4265C354.967 46.4265 353.846 46.4265 353.145 46.4265C349.641 46.4265 346.837 47.8355 344.875 50.2308Z" fill="white"/>
<path d="M342.098 48.2356L346.889 40.9468L342.328 37.9179L337.537 45.2067L342.098 48.2356Z" fill="white"/>
<path d="M337.718 45.5915L342.585 38.1851C343.012 37.5359 342.834 36.6618 342.188 36.2329C341.542 35.8039 340.673 35.9826 340.246 36.6318L335.379 44.0382C334.952 44.6875 335.129 45.5615 335.775 45.9905C336.421 46.4194 337.291 46.2408 337.718 45.5915Z" fill="white"/>
<path d="M447.038 119.77L453.573 109.254L451.671 108.06L445.136 118.576L447.038 119.77Z" fill="white"/>
<path d="M96.91 134.347C96.91 134.347 96.069 133.925 95.6485 132.938C93.1254 127.443 89.9014 123.357 85.8364 120.398C81.7714 117.439 77.4261 116.03 72.9405 116.03C69.1559 116.03 65.5114 117.158 62.0071 119.412C58.5028 121.666 55.5592 125.189 53.4566 129.979C51.2138 134.77 50.0924 139.842 50.0924 145.196C50.0924 152.805 52.3352 159.568 56.9609 165.063C61.5866 170.699 67.1935 173.517 74.0619 173.517C76.4449 173.517 78.5474 173.094 80.2295 172.39C81.9116 171.685 83.5936 170.558 85.1355 169.149C86.6774 167.74 87.5185 166.613 87.939 165.909C88.2193 165.204 88.3595 163.372 88.3595 160.414C88.3595 155.482 87.6586 152.241 86.3971 150.551C85.1355 149.001 83.033 148.155 80.0893 148.155H78.6876C77.8466 148.155 77.4261 147.874 77.4261 147.31C77.4261 146.605 77.8466 146.324 78.8278 146.324H81.2107H91.4433L103.919 146.042C103.919 146.042 104.9 146.324 104.9 147.028C104.9 147.733 104.479 148.014 103.778 148.014C101.956 148.155 100.414 148.578 99.1528 149.283C98.0314 149.987 97.1904 150.692 97.0502 151.396C96.7699 152.241 96.6297 153.65 96.6297 155.482C96.6297 162.527 96.4895 166.472 96.069 167.177C95.6485 167.881 92.9852 169.431 87.6586 171.967C82.3321 174.503 77.1457 175.631 71.8192 175.631C62.9883 175.631 55.419 172.813 49.2514 167.177C42.9437 161.541 39.8599 154.355 39.8599 145.619C39.8599 139.701 41.4018 134.206 44.3454 129.416C47.289 124.625 51.354 120.821 56.5404 118.144C61.7268 115.467 66.9131 114.199 72.2397 114.199C77.2859 114.199 82.6124 115.608 88.3595 118.567C90.0416 119.412 91.163 119.835 91.7236 119.835C92.7049 119.835 93.4057 119.412 93.8262 118.567C94.2467 117.862 94.6673 117.58 95.0878 117.58C95.7886 117.58 96.2092 118.426 96.3493 120.257C96.4895 123.075 96.91 127.161 97.6109 132.797C97.6109 133.079 97.6109 133.361 97.6109 133.643C97.6109 134.347 97.3305 134.77 96.6297 134.77L96.91 134.347Z" fill="white"/>
<path d="M127.748 128.148H129.43C132.093 133.502 135.598 142.66 140.223 155.623C143.167 163.936 145.129 169.008 146.251 170.84C147.372 172.672 149.054 173.799 151.577 173.94C152.278 173.94 152.699 174.222 152.699 174.644C152.699 174.926 152.558 175.067 152.138 175.067H151.717C149.615 174.785 146.811 174.785 143.587 174.785C138.541 174.785 135.317 174.785 133.775 175.067C133.075 175.067 132.654 174.926 132.654 174.503C132.654 174.222 132.934 174.081 133.495 173.94C135.457 173.799 136.859 173.376 137.56 172.954C138.261 172.531 138.681 171.685 138.681 170.699C138.681 169.713 137.981 167.177 136.579 163.091L134.476 157.032C133.215 157.032 127.888 157.032 118.216 157.173C115.833 163.654 114.572 167.74 114.572 169.431C114.572 170.84 115.132 171.967 116.394 172.672C117.656 173.376 118.777 173.799 119.898 173.799C120.739 173.799 121.16 174.081 121.16 174.644C121.16 174.785 121.02 175.067 120.739 175.208C116.955 175.067 114.712 174.926 114.011 174.926C110.086 174.926 107.423 174.926 106.161 174.926C105.461 174.926 105.04 174.785 105.04 174.363C105.04 173.94 105.32 173.799 106.021 173.658C108.685 173.376 110.787 171.545 112.189 168.163C113.591 164.781 115.833 158.864 118.777 150.41C121.58 142.66 124.524 135.193 127.748 128.007V128.148ZM126.346 135.756C124.244 140.265 121.58 146.605 118.777 155.059C121.16 155.059 122.842 154.919 123.963 154.919H133.775C132.934 152.664 131.673 149.423 130.131 145.478C128.168 140.688 126.907 137.447 126.346 135.756Z" fill="white"/>
<path d="M170.641 129.134C173.024 134.206 175.126 138.856 177.229 142.66C179.612 147.31 181.574 151.255 182.976 154.355C184.378 157.455 185.92 160.554 187.742 163.654C192.508 155.623 198.115 144.069 204.562 129.134H218.44C218.44 129.134 219.14 129.416 219.14 129.839C219.14 130.261 218.86 130.402 218.299 130.402C215.776 130.543 214.234 131.107 213.393 131.952C212.552 132.797 211.992 134.065 211.851 135.897C211.711 137.729 211.431 141.251 211.291 146.183C211.151 151.255 211.01 155.341 211.01 158.723C211.01 165.204 211.01 168.868 211.01 169.995C211.01 171.122 211.431 171.967 212.132 172.531C212.833 173.094 214.234 173.658 216.197 173.94C216.757 173.94 217.038 174.222 217.038 174.644C217.038 175.067 216.617 175.208 215.916 175.208H202.32H198.815C197.974 175.208 197.694 175.067 197.694 174.644C197.694 174.363 197.974 174.081 198.535 174.081C200.497 173.799 201.759 173.517 202.46 172.954C203.161 172.39 203.581 171.685 203.862 170.417C204.142 169.149 204.282 166.19 204.282 161.4L204.983 144.492L205.263 136.179C205.263 136.179 205.263 135.193 204.983 135.193C204.703 135.193 204.422 135.334 204.282 135.756L197.414 149.423C192.928 158.159 190.265 163.795 189.284 166.331L187.181 171.685C186.48 173.235 186.06 174.222 185.92 174.363C185.92 174.503 185.639 174.644 185.499 174.644C185.219 174.644 184.938 174.363 184.798 173.799C184.378 172.39 182.275 167.74 178.35 159.991C176.388 155.623 173.865 150.551 171.061 145.056C168.258 139.42 166.716 136.461 166.436 136.32C166.155 136.038 166.015 135.897 165.875 135.897C165.595 135.897 165.595 136.179 165.595 136.743L165.174 158.018V165.063C165.174 168.727 165.595 171.263 166.576 172.39C167.557 173.517 169.099 174.081 170.921 174.081C172.183 174.081 172.743 174.363 172.743 174.785C172.743 175.208 172.463 175.349 171.902 175.349H171.201H168.959H164.053C161.95 175.349 159.147 175.349 155.782 175.631C155.502 175.49 155.362 175.208 155.362 175.067C155.362 174.644 155.782 174.363 156.623 174.363C159.006 174.363 160.688 173.517 161.81 172.108C162.931 170.699 163.492 167.318 163.492 162.245V156.046L163.912 140.406C163.912 136.743 163.352 134.206 162.371 132.938C161.249 131.529 159.707 130.825 157.605 130.543C156.764 130.543 156.343 130.12 156.343 129.839C156.343 129.416 156.623 129.275 157.324 129.275C157.605 129.275 158.025 129.275 158.586 129.275L170.921 129.557L170.641 129.134Z" fill="white"/>
<path d="M260.211 129.557C260.912 132.234 261.613 135.897 262.173 140.547C262.173 140.688 261.893 140.829 261.753 140.829C261.613 140.829 261.472 140.829 261.192 140.547C259.65 138.011 258.108 136.038 256.566 134.629C255.165 133.22 253.623 132.375 252.081 131.67C250.539 131.107 248.016 130.825 244.512 130.825C241.147 130.825 238.484 130.966 236.382 131.388C236.241 131.67 236.101 132.093 236.101 132.657C236.101 132.797 236.101 133.079 236.101 133.502C235.821 135.334 235.821 140.406 235.821 148.719C235.821 149.001 235.821 149.564 235.821 150.128C237.643 150.128 238.764 150.128 239.465 150.128C242.409 150.128 244.512 149.705 245.773 148.86C247.035 148.015 248.296 146.042 249.277 143.224C249.418 142.801 249.698 142.519 249.978 142.519C250.399 142.519 250.679 142.801 250.679 143.506V144.915C250.399 146.746 250.259 148.719 250.259 150.692C250.259 153.932 250.259 156.75 250.399 159.286C250.399 160.132 250.118 160.414 249.698 160.414C249.418 160.414 249.137 160.132 248.997 159.568C248.436 156.75 247.455 154.778 245.913 153.65C244.371 152.382 241.007 151.819 235.681 151.819C235.681 153.51 235.681 156.328 235.681 160.132C235.681 165.063 235.821 168.163 236.241 169.572C236.522 170.84 237.363 171.967 238.765 172.813C240.026 173.658 242.409 173.94 245.493 173.94C254.604 173.94 260.351 170.84 263.014 164.5C263.295 163.795 263.715 163.373 263.996 163.373C264.416 163.373 264.556 163.654 264.556 164.077C264.556 164.359 264.556 164.641 264.416 164.922C264.276 165.345 263.996 167.036 263.435 169.854C263.435 170.417 262.874 172.249 262.173 175.349H247.595C245.493 175.349 242.409 175.349 238.344 175.067C234.279 174.785 230.635 174.785 227.551 174.785C224.467 174.785 222.785 174.785 222.645 174.644C222.505 174.504 222.505 174.363 222.505 174.222C222.505 173.799 222.925 173.517 223.626 173.517C226.149 173.517 227.971 172.813 228.672 171.404C229.513 169.995 229.934 166.613 229.934 161.4V154.214V147.451C229.934 146.042 229.934 143.506 229.653 139.702C229.513 135.897 229.373 133.784 229.233 133.22C229.233 132.657 228.812 132.093 228.111 131.67C227.411 131.248 226.149 130.543 224.187 130.12C223.626 129.979 223.346 129.698 223.346 129.416C223.346 128.993 223.766 128.852 224.607 128.852L231.756 129.275C234.279 129.275 240.447 129.416 250.259 129.416C256.707 129.416 260.071 129.416 260.211 129.416V129.557Z" fill="white"/>
<path d="M440.052 83.7646L450.845 90.5278L451.126 94.6138L432.202 125.189L428.558 126.739L417.765 119.976L417.484 115.89L436.407 85.3145L440.052 83.7646ZM440.893 76.8606H440.192L432.202 80.2422L431.642 81.2285L411.737 113.212L411.036 114.34L411.597 122.935L411.877 123.639L427.717 133.502H428.418L436.407 130.12L437.108 128.993L457.013 97.0091L457.574 96.0228L457.013 87.428L456.732 86.7235L440.893 76.8606Z" fill="white"/>
</g>
</g>
<defs>
<filter id="filter0_d_69_451" x="0" y="0" width="591.349" height="265" filterUnits="userSpaceOnUse" color-interpolation-filters="sRGB">
<feFlood flood-opacity="0" result="BackgroundImageFix"/>
<feColorMatrix in="SourceAlpha" type="matrix" values="0 0 0 0 0 0 0 0 0 0 0 0 0 0 0 0 0 0 127 0" result="hardAlpha"/>
<feOffset dy="4"/>
<feGaussianBlur stdDeviation="20"/>
<feComposite in2="hardAlpha" operator="out"/>
<feColorMatrix type="matrix" values="0 0 0 0 0 0 0 0 0 0 0 0 0 0 0 0 0 0 0.25 0"/>
<feBlend mode="normal" in2="BackgroundImageFix" result="effect1_dropShadow_69_451"/>
<feBlend mode="normal" in="SourceGraphic" in2="effect1_dropShadow_69_451" result="shape"/>
</filter>
<clipPath id="clip0_69_451">
<rect width="511.349" height="185" fill="white" transform="translate(40 36)"/>
</clipPath>
</defs>
</svg>
