<svg width="79" height="78" viewBox="0 0 79 78" fill="none" xmlns="http://www.w3.org/2000/svg" class="hizmet-icon"><path d="M78.3842 6.79541C78.2039 7.01621 77.9718 7.18907 77.7086 7.29864C77.4454 7.40822 77.1593 7.45113 76.8755 7.42355C74.425 7.39088 71.9811 7.42355 69.5339 7.39823C69.0275 7.39251 68.8804 7.54771 68.8804 8.03699C68.9041 9.60039 68.9 11.1654 68.8902 12.7288C68.871 12.9106 68.9138 13.0935 69.0117 13.2479C69.1096 13.4023 69.2567 13.519 69.4293 13.5792C70.0329 13.8491 70.5429 14.2919 70.8948 14.8517C71.2466 15.4115 71.4246 16.063 71.4061 16.7239C71.4314 19.9529 71.424 23.1826 71.4142 26.4123C71.4347 27.2795 71.1312 28.1232 70.563 28.7785C69.9948 29.4339 69.2026 29.8539 68.3413 29.9565C66.6897 30.1338 65.0217 30.164 63.3587 30.2359C62.9545 30.2336 62.5541 30.3135 62.1818 30.4707C61.8095 30.6279 61.4729 30.8591 61.1927 31.1502C60.9124 31.4414 60.6942 31.7865 60.5514 32.1646C60.4086 32.5427 60.344 32.9459 60.3617 33.3496C60.3568 35.444 60.383 37.5375 60.3503 39.6318C60.3333 39.8396 60.383 40.0473 60.4921 40.2249C60.6013 40.4025 60.7642 40.5407 60.9572 40.6194C63.5858 42.1109 66.1947 43.6376 68.8175 45.1397C69.045 45.252 69.2357 45.427 69.3669 45.6441C69.4982 45.8612 69.5646 46.1113 69.5584 46.3649C69.5633 49.1656 69.5633 51.9659 69.5584 54.766C69.5839 55.0347 69.5107 55.3035 69.3524 55.5221C69.1941 55.7407 68.9615 55.8941 68.6983 55.9537C68.4737 56.0042 68.2385 55.9747 68.0333 55.8703C67.8281 55.7659 67.6658 55.5932 67.5743 55.3819C67.4582 55.1012 67.4217 54.794 67.4689 54.494C67.4632 52.1472 67.4493 49.8013 67.4788 47.4554C67.5009 47.2482 67.4565 47.0394 67.3519 46.8591C67.2473 46.6789 67.0881 46.5367 66.8972 46.4532C64.3111 44.9886 61.7512 43.4799 59.1667 42.0104C58.8704 41.8745 58.6227 41.6513 58.4568 41.3708C58.2908 41.0902 58.2145 40.7656 58.238 40.4405C58.2772 38.0439 58.2502 35.6474 58.2568 33.2524C58.2609 31.9164 58.7866 30.6347 59.722 29.6806C60.6573 28.7266 61.9282 28.1755 63.2639 28.1448C64.6754 28.113 66.0869 28.0533 67.4975 27.9896C68.784 27.9316 69.306 27.3729 69.3052 26.0929C69.3052 23.0652 69.3036 20.0378 69.3003 17.0106C69.3003 15.8924 68.7938 15.2904 67.8553 15.2757C66.8751 15.2602 66.2821 15.8875 66.2739 16.9861C66.2617 18.7774 66.1923 20.5728 66.2903 22.3592C66.4087 24.5532 65.1573 25.1675 63.5515 25.1438C58.8343 25.0744 54.1155 25.1528 49.3983 25.1013C48.6935 25.0767 47.9916 25.2046 47.3409 25.4764C46.6901 25.7482 46.1057 26.1575 45.6278 26.6762C44.3789 27.9635 43.2697 29.3717 42.1155 30.7382C41.4025 31.5911 40.4638 32.226 39.4069 32.5704C38.2911 32.9453 37.1908 33.366 36.0269 33.7866C36.3576 34.1828 36.6035 34.6428 36.7492 35.1379C36.8949 35.6331 36.9373 36.1529 36.8739 36.6651C38.8768 36.0386 40.7702 35.4579 42.6538 34.8485C43.1253 34.66 43.5372 34.3479 43.8463 33.9451C44.6828 33.0017 45.5363 32.0746 46.3785 31.1328C46.7338 30.7333 47.1234 30.4123 47.6854 30.6329C47.9322 30.7331 48.1382 30.9134 48.2702 31.1448C48.4022 31.3762 48.4526 31.6453 48.4132 31.9087C48.4045 40.8127 48.4026 49.7188 48.4075 58.6271C48.4075 59.4987 48.0277 60.0215 47.3856 60.0509C46.7436 60.0803 46.2935 59.5134 46.2927 58.6141C46.2927 50.8684 46.2914 43.123 46.2886 35.3778C46.3412 35.1072 46.3165 34.8273 46.2176 34.57C44.6174 36.6578 42.2429 37.2549 39.9117 37.9296C36.3389 38.9642 32.8132 40.1394 29.3346 41.455C28.2406 41.838 27.083 42.0066 25.9252 41.9516C25.0953 41.8797 24.2595 41.9201 23.4404 42.0717C22.8472 42.2163 22.3173 42.5502 21.9309 43.0228C21.5444 43.4955 21.3225 44.0812 21.2987 44.6913C21.2635 46.3813 21.3052 48.0721 21.2742 49.7613C21.266 50.2081 21.5004 50.3707 21.8206 50.5553C24.3528 52.0141 26.8727 53.4958 29.4114 54.9408C29.6833 55.0686 29.9095 55.2766 30.0597 55.5368C30.2098 55.797 30.2766 56.097 30.2511 56.3964C30.2168 58.5659 30.2421 60.7354 30.2405 62.9057C30.2405 63.7707 29.899 64.1987 29.2235 64.2028C28.57 64.2028 28.1477 63.7405 28.1412 62.9277C28.1257 61.036 28.1167 59.1434 28.1412 57.2516C28.1629 57.0571 28.1223 56.8607 28.0253 56.6907C27.9283 56.5207 27.7798 56.3859 27.6013 56.3057C25.1263 54.9008 22.6783 53.4468 20.1959 52.0582C19.8528 51.906 19.5672 51.6483 19.3805 51.3227C19.1938 50.997 19.1158 50.6203 19.1578 50.2473C19.2239 48.5091 19.2394 46.7644 19.1676 45.0262C19.1345 44.349 19.2423 43.6723 19.4841 43.0389C19.726 42.4056 20.0966 41.8293 20.5726 41.3465C21.0485 40.8636 21.6195 40.4849 22.2494 40.234C22.8792 39.9832 23.5543 39.8657 24.2319 39.8891C27.7491 40.0786 30.7444 38.6263 33.8892 37.5702C34.2355 37.436 34.5159 37.1723 34.6712 36.835C34.8265 36.4977 34.8444 36.1132 34.7211 35.7629C34.5979 35.4126 34.3432 35.124 34.0109 34.9582C33.6786 34.7924 33.2949 34.7625 32.9409 34.8746C31.2664 35.4121 29.6017 35.9806 27.9411 36.5606C27.1563 36.8318 26.3307 36.9658 25.5004 36.9567C20.5553 36.9426 15.6103 36.9426 10.6652 36.9567C9.35146 36.8985 8.04245 37.1503 6.84409 37.6919C6.35608 37.9066 5.94439 38.2639 5.66305 38.7168C5.38171 39.1697 5.24387 39.6971 5.26762 40.2298C5.26762 44.2665 5.25945 48.3033 5.27334 52.34C5.25697 52.8974 5.39357 53.4487 5.66832 53.9339C5.94306 54.4192 6.34546 54.82 6.83184 55.0927C7.3636 55.4195 7.49837 55.3304 7.49674 54.7072C7.48204 50.5953 7.49674 46.4826 7.49674 42.3731C7.49674 42.0962 7.49266 41.8168 7.51634 41.5416C7.52992 41.2834 7.64136 41.0402 7.82798 40.8613C8.0146 40.6825 8.26237 40.5815 8.52084 40.5789C8.77932 40.5763 9.02907 40.6723 9.21925 40.8473C9.40944 41.0224 9.52575 41.2633 9.54452 41.5212C9.56318 41.6964 9.57 41.8727 9.56494 42.0488C9.57366 50.1223 9.58128 58.1959 9.58781 66.2694C9.58781 67.4129 9.23004 67.9602 8.50144 67.9357C7.8104 67.9128 7.48939 67.3909 7.4902 66.2849C7.4902 63.6106 7.4804 60.9363 7.50327 58.262C7.52093 58.1666 7.51953 58.0687 7.49915 57.9738C7.47878 57.879 7.43983 57.7891 7.38455 57.7093C7.32927 57.6296 7.25876 57.5616 7.17707 57.5093C7.09539 57.4569 7.00415 57.4213 6.90862 57.4043C5.79654 57.0858 4.82323 56.4039 4.14409 55.4674C3.46495 54.5309 3.11913 53.3939 3.16184 52.2379C3.15367 48.4536 3.24352 44.6668 3.13652 40.884C3.0287 37.2083 5.28886 35.738 7.86104 35.1238C8.87158 34.9597 9.89079 34.8545 10.9135 34.8085C10.1247 33.9346 9.5278 32.905 9.16143 31.7862C8.80608 30.8146 8.66453 29.7778 8.74643 28.7465C8.82833 27.7152 9.13176 26.7137 9.63601 25.8103C10.0477 25.1121 10.6304 24.5302 11.3292 24.1195C12.0281 23.7087 12.82 23.4827 13.6303 23.4628C14.4326 23.3779 15.2433 23.4257 16.0301 23.6041C17.1246 23.8784 18.0995 24.5029 18.8063 25.3825C19.513 26.2621 19.913 27.3485 19.9452 28.4764C20.0524 29.6032 19.9231 30.7399 19.5657 31.8138C19.2083 32.8877 18.6306 33.8751 17.8696 34.7129C18.0983 34.9416 18.3377 34.8461 18.5468 34.8477C20.9156 34.8632 23.2893 34.855 25.6605 34.8787C26.4889 34.827 27.3018 34.631 28.0628 34.2996C31.647 33.0662 35.2247 31.8124 38.8057 30.5691C39.4975 30.328 40.1078 29.8979 40.5676 29.3276C41.7111 27.9561 42.8343 26.5593 44.0799 25.2704C44.7579 24.5008 45.6023 23.8958 46.549 23.5013C47.4957 23.1069 48.5199 22.9333 49.5437 22.9939C50.1661 23.0298 50.7926 22.9996 51.3938 22.9996C51.5139 22.6786 51.2598 22.6492 51.1577 22.5365C50.1944 21.529 49.5143 20.285 49.1861 18.9303C48.8579 17.5755 48.8934 16.1582 49.2888 14.8215C49.5717 13.7261 50.2129 12.7568 51.1104 12.0679C52.0078 11.379 53.1099 11.0102 54.2413 11.02C57.3591 10.8501 59.2345 12.3792 59.8872 14.182C60.3869 15.4668 60.5428 16.8597 60.3393 18.2232C60.1359 19.5867 59.5803 20.8735 58.7273 21.9565C58.5239 22.2334 58.2911 22.4883 57.9684 22.8795C59.6348 22.8795 61.1598 22.8795 62.6848 22.8795C64.1551 22.8795 64.1551 22.8836 64.1616 21.4093C64.1682 19.9349 64.1682 18.4826 64.1706 17.0188C64.1194 16.2698 64.3072 15.5238 64.707 14.8883C65.1069 14.2528 65.6982 13.7607 66.3956 13.4828C66.831 13.2941 66.8433 13.0245 66.8424 12.6561C66.8365 9.07354 66.8348 5.49094 66.8375 1.90834C66.8375 0.330229 67.0009 0.157879 68.548 0.157879C71.3472 0.158696 74.1481 0.174215 76.9482 0.142359C77.2351 0.108283 77.5255 0.161448 77.7817 0.294918C78.0378 0.428389 78.2478 0.635968 78.3842 0.890572V1.49584C78.0338 2.1493 77.6899 2.81093 77.3297 3.46113C77.2686 3.55258 77.2352 3.6597 77.2334 3.76967C77.2317 3.87963 77.2617 3.98776 77.3199 4.0811C77.6842 4.72802 78.0305 5.38802 78.3818 6.0374L78.3842 6.79541ZM51.112 17.0458C51.0842 18.1488 51.3709 19.237 51.9386 20.1832C53.3534 22.5838 56.1044 22.5471 57.4841 20.1252C58.1941 18.8371 58.4529 17.3486 58.2192 15.8965C58.1856 15.2853 57.9549 14.7013 57.5618 14.2321C57.1687 13.7628 56.6342 13.4335 56.0383 13.2933C53.3313 12.6333 51.0099 13.6821 51.112 17.0458ZM17.8296 29.2475C17.8296 28.9951 17.8443 28.7427 17.8296 28.492C17.8096 27.7677 17.531 27.0746 17.0442 26.5381C16.5574 26.0015 15.8946 25.657 15.1757 25.5669C13.0716 25.2924 11.5988 25.9818 11.1194 27.5951C10.8173 28.5086 10.7541 29.4842 10.9359 30.429C11.1176 31.3738 11.5382 32.2564 12.1575 32.9927C12.4194 33.3607 12.7682 33.6582 13.1728 33.8589C13.5774 34.0597 14.0254 34.1573 14.4768 34.1431C14.9283 34.129 15.3692 34.0035 15.7605 33.7779C16.1517 33.5522 16.4812 33.2334 16.7195 32.8497C17.4985 31.8152 17.892 30.5412 17.832 29.2475M72.2008 5.30552C73.1581 5.30552 74.1163 5.29572 75.0736 5.31042C75.482 5.31614 75.5972 5.19606 75.3538 4.84156C75.1128 4.54801 74.9798 4.18073 74.9768 3.80095C74.9738 3.42118 75.1011 3.05186 75.3374 2.75457C75.6723 2.28735 75.3742 2.2416 74.9764 2.24487C73.7414 2.25467 72.5063 2.22363 71.2721 2.25386C70.5051 2.27346 69.4816 1.89935 69.0389 2.41722C68.5807 2.95633 68.9572 3.96919 68.8984 4.76478C68.8625 5.22547 69.0806 5.31614 69.4783 5.30879C70.385 5.29163 71.2925 5.30307 72.2 5.30307" fill="#D9BB7E"></path><path d="M1.4802 77.6441C1.25402 77.4487 1.07874 77.2012 0.969452 76.923C0.860168 76.6448 0.820159 76.3443 0.852874 76.0472C0.898616 75.0155 0.861859 73.9806 0.86676 72.9432C0.870844 71.972 1.25965 71.5865 2.24556 71.5865C7.79263 71.5865 13.3397 71.5734 18.8868 71.6053C19.5901 71.6053 19.8196 71.4305 19.7379 70.7313C19.6952 70.1547 19.6898 69.576 19.7216 68.9988C19.7354 67.9696 20.0573 67.6518 21.0889 67.651C26.636 67.651 32.1831 67.6347 37.7301 67.6674C38.4489 67.6714 38.6646 67.4566 38.5788 66.7827C38.554 66.4293 38.5518 66.0746 38.5723 65.7209C38.5723 64.4205 38.8467 64.1517 40.1749 64.1509C42.5448 64.1509 44.9136 64.1509 47.2813 64.1509C50.4081 64.1509 53.5349 64.1305 56.6609 64.1615C57.3013 64.1681 57.4965 63.9728 57.4557 63.3504C57.4067 62.5973 57.4263 61.8377 57.4508 61.0821C57.4769 60.284 57.8363 59.9385 58.627 59.9385C64.8047 59.9345 70.9823 59.9434 77.1592 59.9238C77.6314 59.9583 78.0707 60.179 78.3803 60.5373C78.3803 66.01 78.3705 71.4877 78.395 76.9628C78.395 77.5346 78.2692 77.7404 77.6974 77.6514C77.4209 77.6277 77.1429 77.6252 76.8659 77.6441C76.6441 77.4114 76.4745 77.1339 76.3687 76.8303C76.2629 76.5267 76.2233 76.204 76.2525 75.8838C76.2794 71.5211 76.2525 67.1576 76.2843 62.7942C76.2901 62.126 76.0711 62.0263 75.4757 62.0296C70.4315 62.0519 65.3873 62.05 60.3432 62.0239C59.6807 62.0239 59.5051 62.1701 59.5108 62.8473C59.5484 67.2352 59.5337 71.6232 59.5402 76.0121C59.5402 76.6573 59.5075 77.2798 58.8508 77.6457H58.0936C57.8606 77.4777 57.6766 77.2506 57.5605 76.9879C57.4444 76.7252 57.4003 76.4363 57.4328 76.1509C57.4573 73.1246 57.4263 70.0974 57.4647 67.0711C57.4728 66.3972 57.2719 66.2216 56.6152 66.2248C51.5203 66.2477 46.4255 66.2461 41.3307 66.2199C40.7818 66.2199 40.6658 66.3702 40.6707 66.8914C40.6952 69.9136 40.6642 72.9449 40.6977 75.9712C40.7289 76.2791 40.6894 76.5901 40.5823 76.8804C40.4751 77.1707 40.3031 77.4327 40.0793 77.6465H39.1751C38.9532 77.4288 38.783 77.1641 38.6771 76.8719C38.5713 76.5797 38.5323 76.2674 38.5633 75.9581C38.6009 74.1448 38.551 72.329 38.5854 70.5148C38.596 69.943 38.4759 69.7396 37.8502 69.7429C32.7347 69.7685 27.6189 69.7685 22.5029 69.7429C21.8992 69.7429 21.7971 69.9651 21.8045 70.4903C21.8314 72.3804 21.8045 74.2706 21.8314 76.1607C21.8645 76.4466 21.8193 76.7361 21.7008 76.9983C21.5822 77.2605 21.3948 77.4857 21.1584 77.6498H20.4012C20.1692 77.4987 19.9835 77.2865 19.8645 77.0366C19.7454 76.7866 19.6977 76.5087 19.7265 76.2334C19.7534 75.6298 19.6889 75.0204 19.7436 74.4209C19.8024 73.787 19.5255 73.6857 18.9676 73.6914C14.2562 73.7127 9.54472 73.7053 4.83654 73.7078C2.98806 73.7078 2.98071 73.7078 2.98887 75.5906C2.98887 76.3412 3.07709 77.1049 2.39014 77.6498L1.4802 77.6441Z" fill="#D9BB7E"></path><path d="M52.4416 51.3926C52.4416 48.9976 52.4367 46.6035 52.4416 44.2086C52.4416 42.7203 53.1114 42.3299 54.393 43.0511C57.2029 44.6252 60.0071 46.209 62.8292 47.7601C63.1148 47.8886 63.3531 48.103 63.5109 48.3735C63.6686 48.644 63.7378 48.957 63.7089 49.2688C63.6714 51.083 63.7008 52.898 63.6967 54.713C63.6967 55.4808 63.3144 55.9537 62.7026 55.9774C62.0777 56.0019 61.6089 55.4873 61.6007 54.7064C61.5844 53.1438 61.5885 51.5813 61.6007 50.0178C61.6238 49.8597 61.5952 49.6983 61.5193 49.5576C61.4433 49.4169 61.3241 49.3045 61.1792 49.237C59.147 48.1288 57.1253 47.0008 55.1143 45.8528C54.6732 45.6021 54.5425 45.6168 54.5425 46.1796C54.5564 50.2376 54.5425 54.2956 54.5368 58.3503C54.5368 59.4767 54.1815 60.0566 53.4831 60.0542C52.8002 60.0542 52.4433 59.4653 52.4433 58.347C52.4433 56.0278 52.4433 53.7088 52.4433 51.3901L52.4416 51.3926Z" fill="#D9BB7E"></path><path d="M13.4534 60.3113C13.4534 58.2439 13.4484 56.1765 13.4534 54.1092C13.4574 52.7205 14.182 52.2827 15.3925 52.9533C18.1885 54.5053 20.9714 56.0753 23.7699 57.6191C24.0112 57.7286 24.2148 57.907 24.3551 58.1318C24.4955 58.3566 24.5664 58.6178 24.5589 58.8827C24.5589 60.2713 24.5753 61.6599 24.5532 63.042C24.5722 63.1933 24.5574 63.347 24.5098 63.492C24.4623 63.6369 24.3831 63.7695 24.2781 63.8801C24.1731 63.9908 24.0448 64.0768 23.9025 64.1318C23.7603 64.1869 23.6075 64.2097 23.4554 64.1986C22.8411 64.179 22.4752 63.7763 22.4613 63.0216C22.4384 61.9883 22.4335 60.9542 22.4531 59.9176C22.4748 59.7208 22.4321 59.5223 22.3316 59.3518C22.231 59.1813 22.0779 59.048 21.8952 58.9717C19.9692 57.9322 18.0583 56.8643 16.1628 55.7681C15.6571 55.4773 15.5461 55.5558 15.5485 56.1275C15.5657 59.6072 15.5567 63.0861 15.555 66.5658C15.555 67.3883 15.1858 67.8931 14.5749 67.925C13.932 67.9584 13.4623 67.4169 13.4591 66.5853C13.4493 64.4926 13.4591 62.4 13.4591 60.3072" fill="#D9BB7E"></path></svg>