<svg width="29" height="23" viewBox="0 0 29 23" fill="none" xmlns="http://www.w3.org/2000/svg">
<path d="M28.0499 3.18318C27.1824 3.57527 26.2242 3.81414 25.2876 3.97013C25.7321 3.89563 26.3841 3.09186 26.6458 2.76724C27.0462 2.27123 27.3764 1.7061 27.563 1.09626C27.5869 1.04851 27.6041 0.988135 27.556 0.95292C27.4974 0.928989 27.4576 0.940189 27.41 0.96412C26.3658 1.52345 25.2848 1.9297 24.1372 2.21768C24.0419 2.24162 23.9696 2.21768 23.9107 2.15731C23.8152 2.0505 23.7251 1.94795 23.6242 1.86496C23.1403 1.45325 22.6233 1.13136 22.0386 0.892521C21.2718 0.580467 20.4325 0.448414 19.6063 0.501764C18.8022 0.553778 18.0125 0.779997 17.2986 1.15381C16.5834 1.52627 15.9451 2.04618 15.4384 2.67305C14.9124 3.32228 14.5246 4.08814 14.3267 4.90047C14.1336 5.68326 14.1507 6.45898 14.2676 7.25155C14.2847 7.38232 14.2729 7.40038 14.1535 7.38232C9.65811 6.71345 5.93085 5.10417 2.90531 1.65701C2.77315 1.50657 2.70294 1.50657 2.59474 1.66821C1.27063 3.65247 1.91318 6.84121 3.56748 8.40811C3.78768 8.61619 4.01412 8.82553 4.25895 9.01676C4.17047 9.035 3.06846 8.91546 2.08758 8.40811C1.95709 8.32534 1.89056 8.37159 1.87964 8.52061C1.86671 8.73557 1.88544 8.93382 1.91441 9.16566C2.16904 11.1767 3.56202 13.0373 5.47017 13.7639C5.6965 13.8593 5.94667 13.9424 6.19083 13.9845C5.7569 14.08 5.30858 14.1476 4.06182 14.0506C3.90736 14.021 3.84841 14.0983 3.90736 14.2474C4.84322 16.8008 6.86515 17.5597 8.38036 17.9925C8.58262 18.0277 8.78522 18.0277 8.98937 18.0755C8.976 18.0938 8.96497 18.0938 8.95238 18.112C8.45091 18.8779 6.7098 19.4471 5.89853 19.7309C4.42287 20.2466 2.81672 20.4785 1.25826 20.3239C1.0092 20.2874 0.956379 20.2901 0.889182 20.3239C0.821205 20.3675 0.880601 20.4265 0.960502 20.4912C1.27665 20.7005 1.59826 20.8847 1.92711 21.0645C2.91679 21.5888 3.9496 22.0061 5.02898 22.3041C10.6013 23.8443 16.8803 22.7129 21.065 18.5546C24.3508 15.2901 25.503 10.7873 25.503 6.27901C25.503 6.10213 25.7107 6.00504 25.8345 5.91087C26.6907 5.26868 27.3789 4.49996 28.0173 3.64133C28.1604 3.44885 28.1619 3.27729 28.1619 3.207V3.18318C28.1619 3.1115 28.1604 3.13253 28.0499 3.18318Z" fill="white"/>
</svg>
