<svg width="108" height="72" viewBox="0 0 108 72" fill="none" xmlns="http://www.w3.org/2000/svg" class="hizmet-icon"><mask id="mask0_1108_504" style="mask-type:luminance" maskUnits="userSpaceOnUse" x="0" y="0" width="108" height="72"><path d="M107.705 0.489258H0.0625V71.2953H107.705V0.489258Z" fill="white"></path></mask><g mask="url(#mask0_1108_504)"><path d="M107.705 31.4699C107.477 31.8512 107.239 32.2276 107.021 32.6146C106.02 34.3944 104.838 34.9351 102.83 34.5226C102.626 34.4807 102.419 34.4404 102.216 34.4034C100.561 34.092 100.145 34.4347 100.367 36.0468C100.774 39.283 100.37 42.5697 99.19 45.6106C98.1691 48.4532 96.5481 51.0427 94.4373 53.2032C94.1521 53.4776 93.9302 53.8109 93.787 54.1799C93.6438 54.5488 93.5828 54.9446 93.6082 55.3396C93.6518 59.0865 93.6353 62.8351 93.6206 66.5829C93.6468 67.1976 93.5461 67.811 93.3245 68.3849C93.1029 68.9588 92.7653 69.4809 92.3328 69.9184C91.9003 70.3559 91.3822 70.6995 90.8109 70.9276C90.2396 71.1558 89.6273 71.2637 89.0124 71.2444C83.2687 71.279 77.5242 71.2634 71.7797 71.2444C71.0356 71.2993 70.2996 71.0602 69.7299 70.5783C69.1602 70.0965 68.8022 69.4105 68.7328 68.6676C68.6715 68.2873 68.644 67.9023 68.6507 67.5172C68.6457 65.3512 68.6507 65.3808 66.4321 65.3496C64.7714 65.3282 63.0795 65.5895 61.4969 64.762C60.4093 64.2615 59.4895 63.4573 58.8481 62.4464C58.2067 61.4355 57.871 60.2607 57.8814 59.0635C57.851 57.803 57.8264 56.5393 57.8954 55.2837C57.9381 54.5121 57.7376 54.2221 56.9324 54.2886C56.393 54.3666 55.8432 54.3295 55.3192 54.1798C54.7952 54.0301 54.3089 53.7712 53.8921 53.4201C53.6675 53.2636 53.4769 53.0634 53.3316 52.8314C53.1863 52.5995 53.0893 52.3406 53.0465 52.0703C53.0037 51.7999 53.0159 51.5238 53.0824 51.2583C53.1489 50.9928 53.2684 50.7434 53.4336 50.5252C54.6431 48.6 55.8863 46.6953 57.1361 44.7955C57.3489 44.5045 57.4949 44.1703 57.5639 43.8166C57.633 43.4628 57.6232 43.0982 57.5355 42.7486C55.0416 31.2226 63.1346 19.363 74.783 17.3728C77.0154 16.9301 79.3056 16.8584 81.5613 17.1608C81.8832 17.2263 82.2151 17.225 82.5365 17.157C82.8579 17.089 83.162 16.9558 83.4298 16.7656C84.572 15.9759 85.8629 16.3317 87.0749 16.6522C87.5752 16.7691 88.1013 16.6897 88.5449 16.4303C89.1581 16.173 89.702 15.7747 90.1323 15.2677C90.5626 14.7607 90.8673 14.1593 91.0215 13.5125C91.609 11.5609 92.6271 11.0646 94.9057 11.1016C95.6705 11.0544 96.4257 11.292 97.0258 11.7686C97.6259 12.2451 98.0283 12.9269 98.1555 13.6826C98.2688 14.2524 98.5162 14.787 98.8771 15.2423C99.238 15.6975 99.7022 16.0602 100.231 16.3005C100.855 16.6729 101.6 16.7859 102.306 16.6152C102.976 16.4052 103.679 16.3235 104.379 16.3745C105.007 16.4546 105.599 16.7081 106.091 17.1063C106.583 17.5046 106.954 18.0319 107.162 18.6292C107.304 18.9234 107.372 19.2981 107.704 19.4838V20.9554C107.203 21.9466 106.546 22.8508 105.759 23.6334C105.296 24.0796 105.176 26.7411 105.622 27.1881C106.428 28.036 107.128 28.9795 107.705 29.9975L107.705 31.4699ZM97.9271 38.1372C96.909 40.0584 95.1629 40.005 93.4751 39.8127C91.9566 39.6401 91.3157 38.4158 90.8703 37.1011C90.7471 36.7371 90.6238 36.3722 90.4989 36.0099C90.4422 35.8504 90.4093 35.599 90.2968 35.5546C89.0166 35.0074 88.0034 33.8356 86.2754 34.4585C85.6303 34.7661 84.8942 34.8245 84.2087 34.6225C83.5232 34.4205 82.9364 33.9723 82.5613 33.364C81.0822 31.0829 80.9606 30.1355 82.4306 28.4633C82.9048 27.9943 83.2678 27.4249 83.4931 26.7971C83.7183 26.1693 83.8 25.499 83.7322 24.8355C83.7421 24.5817 83.7013 24.3285 83.6123 24.0907C83.5233 23.8528 83.3878 23.6351 83.2137 23.4501C82.2942 22.7258 81.6787 21.6839 81.4881 20.529C81.4257 19.6711 81.0058 19.5651 80.3887 19.5224C78.571 19.4072 76.7461 19.5284 74.9597 19.8831C70.083 20.834 65.7769 23.6671 62.9734 27.7691C60.1699 31.8712 59.0945 36.9122 59.9801 41.8012C60.2026 42.6095 60.2314 43.4588 60.0642 44.2803C59.8971 45.1018 59.5386 45.8723 59.0178 46.5293C57.9694 47.8761 57.1707 49.4143 56.2019 50.8276C55.7417 51.4989 55.7713 51.8054 56.6398 51.8095C57.3407 51.8095 58.0417 51.7972 58.7417 51.8095C59.9538 51.8317 60.372 52.2434 60.3852 53.4636C60.4008 55.1802 60.3852 56.8975 60.3925 58.6141C60.3991 61.3865 61.8881 62.8688 64.681 62.8746C66.2924 62.8746 67.9045 62.8458 69.5159 62.8623C70.7485 62.8746 71.1421 63.2731 71.1757 64.5057C71.2045 65.5213 71.2275 66.5394 71.1823 67.5525C71.1437 68.4375 71.4379 68.7728 72.3779 68.7654C77.8077 68.7235 83.2392 68.7498 88.669 68.735C90.3765 68.73 91.1029 67.9954 91.107 66.3085C91.1168 62.3142 91.13 58.3199 91.107 54.3264C91.0822 53.9286 91.1467 53.5304 91.2957 53.1607C91.4447 52.7911 91.6744 52.4594 91.9681 52.19C93.537 50.6839 94.849 48.9313 95.8523 47.0018C97.3132 44.2815 98.029 41.2233 97.9271 38.1372ZM86.2696 27.0278C86.466 27.6186 86.1266 28.1692 85.549 28.6712C85.0868 29.0988 84.6518 29.5549 84.2466 30.0369C84.0947 30.2018 84.0025 30.4128 83.9848 30.6363C83.9671 30.8597 84.0248 31.0827 84.1488 31.2695C84.213 31.4606 84.3193 31.6349 84.4598 31.7796C84.6002 31.9243 84.7713 32.0357 84.9605 32.1057C85.1496 32.1756 85.3521 32.2022 85.5529 32.1836C85.7537 32.1651 85.9478 32.1017 86.1209 31.9983C86.7896 31.7597 87.5053 31.6829 88.2094 31.7742C88.9136 31.8654 89.5861 32.1222 90.1719 32.5234C91.9385 33.4831 93.0084 34.5867 93.3001 36.5292C93.3071 36.6609 93.3424 36.7897 93.4035 36.9066C93.4646 37.0236 93.5502 37.126 93.6544 37.207C93.7586 37.288 93.879 37.3456 94.0074 37.3759C94.1358 37.4063 94.2693 37.4087 94.3987 37.3829C95.0109 37.3427 95.651 37.4141 95.7635 36.6089C96.0569 34.5185 97.3059 33.3738 99.1547 32.4256C100.323 31.8266 101.256 31.3278 102.504 31.8898C102.665 31.9548 102.834 32.0009 103.006 32.0271C103.731 32.1635 104.363 32.3048 104.869 31.4248C104.976 31.276 105.049 31.106 105.085 30.9264C105.121 30.7467 105.118 30.5614 105.076 30.3831C105.034 30.2048 104.954 30.0376 104.842 29.8927C104.73 29.7477 104.588 29.6285 104.426 29.5431C103.094 28.5356 102.815 27.2932 102.822 25.6416C102.83 23.8404 103.101 22.4255 104.548 21.2356C105.426 20.5117 105.334 19.9094 104.542 19.1083C104.035 18.5947 103.428 18.8009 102.88 19.008C101.491 19.5323 100.405 19.2595 99.0183 18.5347C98.1698 18.1708 97.4268 17.5988 96.8579 16.8716C96.289 16.1444 95.9126 15.2856 95.7635 14.3744C95.6625 13.8132 95.2705 13.648 94.6994 13.5897C93.3584 13.4533 93.1941 14.4582 93.0486 15.3095C92.8145 16.6768 92.0626 17.3506 90.8728 18.0672C89.1258 19.1206 87.5482 19.787 85.5712 18.8839C85.4592 18.8311 85.3372 18.8028 85.2133 18.801C85.0895 18.7993 84.9667 18.8241 84.8533 18.8737C84.7399 18.9234 84.6384 18.9968 84.5557 19.089C84.473 19.1812 84.411 19.29 84.3739 19.4082C84.1356 19.9439 83.6188 20.5241 84.2918 20.9924C86.2072 22.331 86.4808 24.2127 86.2359 26.3138C86.2334 26.5539 86.248 26.7939 86.2795 27.0319" fill="#D9BB7E"></path><path d="M20.1312 71.2553C17.4697 71.2553 14.8008 71.1369 12.1475 71.2857C11.4418 71.3385 10.7331 71.2371 10.0705 70.9887C9.40785 70.7402 8.8072 70.3506 8.31019 69.8469C7.81317 69.3432 7.43167 68.7373 7.19215 68.0714C6.95264 67.4056 6.86083 66.6955 6.92311 65.9906C7.08745 62.4261 6.94201 58.8476 6.98227 55.2756C6.99803 54.8999 6.9352 54.525 6.79782 54.175C6.66043 53.8249 6.4515 53.5074 6.1844 53.2427C2.29031 49.2299 0.0970759 43.8678 0.0627161 38.2762C0.015879 28.1488 7.58951 19.2563 17.6628 17.3516C22.3159 16.47 27.1296 17.1264 31.377 19.2215C35.6243 21.3166 39.0746 24.7368 41.207 28.9655C43.4005 33.3047 44.0261 38.2689 42.9778 43.0166C42.9222 43.2877 42.9259 43.5676 42.9887 43.8371C43.0516 44.1066 43.172 44.3593 43.3418 44.5779C44.7561 46.5349 46.0423 48.5814 47.1923 50.7045C47.3825 50.9903 47.5002 51.3183 47.5351 51.6599C47.5699 52.0016 47.5209 52.3465 47.3923 52.6649C47.2636 52.9833 47.0592 53.2655 46.7969 53.4871C46.5345 53.7086 46.222 53.8628 45.8866 53.9362C45.1184 54.1877 44.3112 54.299 43.5037 54.2649C42.8036 54.2477 42.7 54.5229 42.7173 55.1211C42.7543 56.4161 42.7296 57.7128 42.728 59.0086C42.7474 60.653 42.1206 62.2392 40.9823 63.4261C39.844 64.6129 38.2853 65.3054 36.6416 65.3546C35.3474 65.4023 34.05 65.4031 32.755 65.3702C32.1066 65.3538 31.8872 65.5921 31.9185 66.224C31.9581 66.9233 31.9487 67.6246 31.8905 68.3226C31.8984 68.7282 31.8205 69.1308 31.6622 69.5042C31.5038 69.8776 31.2684 70.2134 30.9713 70.4897C30.6743 70.7659 30.3224 70.9764 29.9385 71.1073C29.5545 71.2382 29.1473 71.2867 28.7434 71.2495C25.8716 71.2758 22.9997 71.2569 20.1279 71.2569L20.1312 71.2553ZM44.8397 51.5615C43.3935 49.3027 42.0213 47.1531 40.6425 45.0084C40.4711 44.7706 40.3557 44.4971 40.3047 44.2085C40.2538 43.9198 40.2687 43.6233 40.3483 43.3412C41.2528 39.8746 41.1545 36.2224 40.0648 32.8095C38.5397 28.0403 35.2123 24.0553 30.7917 21.7038C26.3712 19.3522 21.207 18.8202 16.3998 20.221C12.4279 21.3351 8.92862 23.716 6.43413 27.0015C3.93963 30.287 2.58645 34.2973 2.58041 38.4225C2.59287 40.8953 3.09576 43.341 4.05996 45.618C5.02416 47.8951 6.4305 49.9583 8.19757 51.6881C8.63029 52.0871 8.97177 52.5749 9.19867 53.118C9.42557 53.6612 9.53255 54.2469 9.51229 54.8352C9.44573 58.7227 9.486 62.6126 9.50654 66.5034C9.46604 66.7931 9.49129 67.0882 9.5804 67.3669C9.66951 67.6455 9.82021 67.9005 10.0213 68.113C10.2224 68.3255 10.4688 68.4899 10.7421 68.5942C11.0154 68.6985 11.3087 68.7399 11.6002 68.7154C17.2412 68.7408 22.8814 68.7236 28.5224 68.7417C29.1617 68.7417 29.4041 68.4952 29.395 67.8805C29.3802 66.9002 29.395 65.9183 29.3991 64.938C29.4106 63.1598 29.7163 62.855 31.4632 62.8542C33.1067 62.8542 34.7575 62.8772 36.4033 62.8369C36.9122 62.8458 37.4176 62.7508 37.8886 62.5578C38.3595 62.3648 38.7862 62.0778 39.1426 61.7144C39.4989 61.3509 39.7775 60.9187 39.9612 60.444C40.1449 59.9693 40.2299 59.4622 40.2111 58.9536C40.2242 57.1318 40.2111 55.3101 40.2185 53.4884C40.2234 52.1893 40.5965 51.8351 41.9211 51.8089C42.9014 51.9046 43.891 51.8211 44.8414 51.5623" fill="#D9BB7E"></path><path d="M32.6561 9.581C34.5041 9.82258 36.0784 10.0592 37.6602 10.2252C39.0374 10.369 39.7843 10.8481 39.7375 11.6731C39.689 12.5301 39.0136 12.8925 37.5189 12.7355C34.9494 12.4668 32.3841 12.1603 29.8204 11.839C29.5996 11.8324 29.3833 11.7752 29.188 11.6719C28.9927 11.5686 28.8237 11.422 28.6939 11.2433C28.5642 11.0645 28.477 10.8584 28.4393 10.6408C28.4015 10.4232 28.4141 10.1998 28.4761 9.98775C28.8253 7.3583 29.1556 4.72885 29.4966 2.0994C29.4882 1.81872 29.5491 1.5403 29.6739 1.28877C29.7988 1.03723 29.9837 0.820353 30.2123 0.657317C30.4206 0.539915 30.6584 0.485045 30.8971 0.499276C31.1358 0.513506 31.3654 0.596234 31.5583 0.737556C31.7512 0.878877 31.8993 1.0728 31.9848 1.29611C32.0704 1.51942 32.0897 1.76266 32.0406 1.99669C31.8886 3.68365 31.6519 5.36567 31.4482 7.06988C31.9979 7.08467 32.2699 6.71819 32.5985 6.48894C38.3577 2.36716 45.3759 0.386971 52.4401 0.890648C59.5044 1.39432 66.1706 4.35021 71.2867 9.24739C71.3932 9.33829 71.4949 9.43456 71.5916 9.53581C72.1076 10.1315 72.3048 10.7963 71.6886 11.4011C71.5685 11.5313 71.4214 11.6338 71.2575 11.7013C71.0937 11.7688 70.9171 11.7997 70.7401 11.7919C70.5631 11.7841 70.3899 11.7377 70.2327 11.656C70.0755 11.5743 69.938 11.4593 69.8299 11.3189C68.504 10.0204 67.0558 8.85305 65.5053 7.83324C60.7388 4.71208 55.1274 3.13313 49.4328 3.3107C43.7381 3.48828 38.236 5.41379 33.6733 8.82586C33.4268 9.01156 33.1745 9.19645 32.6552 9.58183" fill="#D9BB7E"></path><path d="M101.861 25.4977C101.864 26.4616 101.677 27.4167 101.311 28.3083C100.945 29.1999 100.406 30.0103 99.7254 30.6931C99.045 31.3759 98.2365 31.9177 97.3463 32.2873C96.456 32.6569 95.5016 32.8471 94.5377 32.847C93.5741 32.8456 92.6203 32.6544 91.7306 32.2844C90.8409 31.9144 90.0328 31.3727 89.3525 30.6904C87.9784 29.3124 87.2081 27.4449 87.2109 25.4989C87.2138 23.5529 87.9896 21.6878 89.3676 20.3137C90.7456 18.9397 92.613 18.1694 94.559 18.1722C95.5225 18.1627 96.4783 18.3459 97.37 18.711C98.2617 19.076 99.0715 19.6157 99.7517 20.2981C100.432 20.9806 100.969 21.7921 101.331 22.685C101.693 23.5779 101.873 24.5342 101.861 25.4977ZM99.3594 25.5026C99.3741 24.8617 99.2581 24.2245 99.0187 23.6297C98.7792 23.035 98.4213 22.4952 97.9666 22.0433C97.5119 21.5913 96.9701 21.2365 96.3739 21.0006C95.7778 20.7647 95.1399 20.6526 94.499 20.671C93.8674 20.6705 93.2418 20.7949 92.6584 21.037C92.075 21.2791 91.5453 21.6343 91.0996 22.082C90.654 22.5296 90.3013 23.061 90.0619 23.6456C89.8224 24.2301 89.7009 24.8562 89.7044 25.4878C89.7131 26.7803 90.2318 28.0171 91.1477 28.929C92.0637 29.8409 93.3027 30.3542 94.5952 30.3572C95.2271 30.3521 95.8517 30.2224 96.4334 29.9755C97.0151 29.7286 97.5424 29.3694 97.9851 28.9185C98.4277 28.4676 98.7771 27.9337 99.0133 27.3476C99.2494 26.7615 99.3675 26.1345 99.361 25.5026" fill="#D9BB7E"></path></g></svg>