<svg width="36" height="26" viewBox="0 0 36 26" fill="none" xmlns="http://www.w3.org/2000/svg">
<path d="M33.6024 6.54785C33.5614 6.30179 33.2538 4.41531 32.4439 3.60536L32.4336 3.59511C31.4391 2.5596 30.3113 2.44682 29.6757 2.38531L29.4706 2.3648C24.8775 2.02647 17.9775 2.02647 17.957 2.02647H17.9467C17.9262 2.02647 11.0365 2.02647 6.43311 2.3648C6.40235 2.3648 6.31008 2.37505 6.20755 2.38531C5.57189 2.44682 4.44411 2.5596 3.45987 3.59511L3.44961 3.60536C2.62941 4.43582 2.32183 6.38381 2.30132 6.5581C2.30132 6.56835 1.97324 9.20327 1.97324 11.8484V14.3501C1.97324 16.9952 2.30132 19.6301 2.30132 19.6404V19.6506C2.33208 19.8557 2.63966 21.7832 3.45987 22.6034L3.47012 22.6136C4.37234 23.5569 5.56164 23.7004 6.33059 23.7927C6.50488 23.8132 6.65867 23.8337 6.8022 23.8644C9.45762 24.1105 17.9467 24.1925 17.9775 24.1925C18.1518 24.1925 24.9287 24.172 29.5014 23.8542L29.7064 23.8337C30.3421 23.7722 31.4699 23.6594 32.4644 22.6239L32.4746 22.6136C33.2948 21.7832 33.6024 19.8352 33.6332 19.6609C33.6332 19.6506 33.9613 17.0157 33.9613 14.3706V11.8689C33.951 9.45958 33.6844 7.02972 33.6332 6.62987C33.6332 6.60936 33.6229 6.58886 33.6229 6.5581L33.6024 6.54785ZM33.2333 2.83642C34.2483 3.87193 34.6277 5.97371 34.6892 6.35305C34.6994 6.37356 34.6994 6.40431 34.6994 6.42482C34.6994 6.43507 35.0275 9.12124 35.0378 11.8484V14.3501C35.0378 17.0567 34.7097 19.7634 34.6994 19.7737V19.7839C34.6994 19.7942 34.3509 22.224 33.2436 23.3621L33.2333 23.3723C31.9518 24.7052 30.5677 24.8487 29.7782 24.9205C29.7372 24.9205 29.6962 24.9307 29.5834 24.941H29.5527C24.9287 25.269 17.957 25.2793 17.9365 25.2793C17.916 25.2793 9.36535 25.2075 6.66892 24.9512C6.64842 24.9512 6.61766 24.9512 6.59715 24.941C6.49463 24.9205 6.35109 24.9 6.1768 24.8794C5.26432 24.7667 3.82896 24.5924 2.64991 23.3621C1.60415 22.2958 1.23506 20.071 1.19405 19.8044C1.19405 19.7942 1.19405 19.7737 1.1838 19.7634C1.1838 19.7532 0.855713 17.0465 0.855713 14.3398V11.8382C0.855713 9.1315 1.1838 6.42482 1.19405 6.41456V6.40431C1.19405 6.39406 1.53238 3.9642 2.63966 2.82617L2.64991 2.81591C3.92123 1.48308 5.30533 1.3498 6.09478 1.26777C6.14604 1.26777 6.18705 1.25752 6.29983 1.24727H6.33059C10.9853 0.908936 17.916 0.908936 17.9365 0.908936H17.9467C17.9673 0.908936 24.8877 0.908936 29.5424 1.24727H29.5834C29.7064 1.25752 29.7372 1.26777 29.7782 1.26777C30.5574 1.33954 31.9518 1.48308 33.2333 2.81591V2.83642ZM13.979 17.3951V8.09599C13.979 7.78841 14.2251 7.54235 14.5326 7.54235C14.6454 7.54235 14.7479 7.57311 14.83 7.63462L23.7189 12.279C23.9855 12.4226 24.088 12.7507 23.9547 13.0172C23.9035 13.1197 23.8215 13.2018 23.7189 13.253L14.789 17.8872C14.5224 18.0307 14.1841 17.918 14.0508 17.6514C14.0098 17.5694 13.9893 17.4873 13.9893 17.3951H13.979Z" fill="white"/>
<path d="M15.0863 9.00847V16.4928M33.6024 6.54785C33.5614 6.30179 33.2538 4.41531 32.4439 3.60536L32.4336 3.59511C31.4391 2.5596 30.3113 2.44682 29.6757 2.38531L29.4706 2.3648C24.8775 2.02647 17.9775 2.02647 17.957 2.02647H17.9467C17.9262 2.02647 11.0365 2.02647 6.43311 2.3648C6.40235 2.3648 6.31008 2.37505 6.20755 2.38531C5.57189 2.44682 4.44411 2.5596 3.45987 3.59511L3.44961 3.60536C2.62941 4.43582 2.32183 6.38381 2.30132 6.5581C2.30132 6.56835 1.97324 9.20327 1.97324 11.8484V14.3501C1.97324 16.9952 2.30132 19.6301 2.30132 19.6404V19.6506C2.33208 19.8557 2.63966 21.7832 3.45987 22.6034L3.47012 22.6136C4.37234 23.5569 5.56164 23.7004 6.33059 23.7927C6.50488 23.8132 6.65867 23.8337 6.8022 23.8644C9.45762 24.1105 17.9467 24.1925 17.9775 24.1925C18.1518 24.1925 24.9287 24.172 29.5014 23.8542L29.7064 23.8337C30.3421 23.7722 31.4699 23.6594 32.4644 22.6239L32.4746 22.6136C33.2948 21.7832 33.6024 19.8352 33.6332 19.6609C33.6332 19.6506 33.9613 17.0157 33.9613 14.3706V11.8689C33.951 9.45958 33.6844 7.02972 33.6332 6.62987C33.6332 6.60936 33.6229 6.58886 33.6229 6.5581L33.6024 6.54785ZM33.2333 2.83642C34.2483 3.87193 34.6277 5.97371 34.6892 6.35305C34.6994 6.37356 34.6994 6.40431 34.6994 6.42482C34.6994 6.43507 35.0275 9.12124 35.0378 11.8484V14.3501C35.0378 17.0567 34.7097 19.7634 34.6994 19.7737V19.7839C34.6994 19.7942 34.3509 22.224 33.2436 23.3621L33.2333 23.3723C31.9518 24.7052 30.5677 24.8487 29.7782 24.9205C29.7372 24.9205 29.6962 24.9307 29.5834 24.941H29.5527C24.9287 25.269 17.957 25.2793 17.9365 25.2793C17.916 25.2793 9.36535 25.2075 6.66892 24.9512C6.64842 24.9512 6.61766 24.9512 6.59715 24.941C6.49463 24.9205 6.35109 24.9 6.1768 24.8794C5.26432 24.7667 3.82896 24.5924 2.64991 23.3621C1.60415 22.2958 1.23506 20.071 1.19405 19.8044C1.19405 19.7942 1.19405 19.7737 1.1838 19.7634C1.1838 19.7532 0.855713 17.0465 0.855713 14.3398V11.8382C0.855713 9.1315 1.1838 6.42482 1.19405 6.41456V6.40431C1.19405 6.39406 1.53238 3.9642 2.63966 2.82617L2.64991 2.81591C3.92123 1.48308 5.30533 1.3498 6.09478 1.26777C6.14604 1.26777 6.18705 1.25752 6.29983 1.24727H6.33059C10.9853 0.908936 17.916 0.908936 17.9365 0.908936H17.9467C17.9673 0.908936 24.8877 0.908936 29.5424 1.24727H29.5834C29.7064 1.25752 29.7372 1.26777 29.7782 1.26777C30.5574 1.33954 31.9518 1.48308 33.2333 2.81591V2.83642ZM13.979 17.3951V8.09599C13.979 7.78841 14.2251 7.54235 14.5326 7.54235C14.6454 7.54235 14.7479 7.57311 14.83 7.63462L23.7189 12.279C23.9855 12.4226 24.088 12.7507 23.9547 13.0172C23.9035 13.1197 23.8215 13.2018 23.7189 13.253L14.789 17.8872C14.5224 18.0307 14.1841 17.918 14.0508 17.6514C14.0098 17.5694 13.9893 17.4873 13.9893 17.3951H13.979Z" stroke="white"/>
</svg>
